<?xml version="1.0" encoding="utf-8"?>
<!-- Generator: Adobe Illustrator 19.1.1, SVG Export Plug-In . SVG Version: 6.00 Build 0)  -->
<svg version="1.1" id="レイヤー_1" xmlns="http://www.w3.org/2000/svg" xmlns:xlink="http://www.w3.org/1999/xlink" x="0px"
	 y="0px" viewBox="0 0 211.56 163" style="enable-background:new 0 0 211.56 163;" xml:space="preserve">
<g>
	<defs>
		<rect id="SVGID_1_" y="0.667" width="207.667" height="162.333"/>
	</defs>
	<clipPath id="SVGID_2_">
		<use xlink:href="#SVGID_1_"  style="overflow:visible;"/>
	</clipPath>
	<path style="clip-path:url(#SVGID_2_);fill:none;stroke:#000000;stroke-width:0.5;stroke-miterlimit:10;" d="M44.822,116.165
		c0.564,0.194,1.132,0.338,1.7,0.438c5.086,0.902,7.604-0.395,10.251-1.896c7.377-4.178,11.104-17.007,8.628-31.005
		C62.977,69.94,55.172,59.735,47.088,57.614c-2.529-0.662-5.24-0.778-9.802,1.192c-1.104,0.475-2.133,1.153-3.079,2.008"/>
	<g style="clip-path:url(#SVGID_2_);">
		<path style="fill:none;stroke:#000000;stroke-width:0.5;stroke-miterlimit:10;" d="M95.921,106.573
			c2.904-0.504,5.891,2.682,6.671,7.122c0.781,4.436-0.935,8.451-3.839,8.961l-1.332,0.255c-2.9,0.514-5.891-2.671-6.668-7.112
			c-0.783-4.444,0.939-8.457,3.835-8.972L95.921,106.573z"/>
		<path style="fill:#FFFFFF;stroke:#000000;stroke-width:0.5;stroke-miterlimit:10;" d="M93.681,108.236l-3.788,0.498
			c0,0-2.179,2.105-3.093,4.152c0,0,0.419,4.004,0.971,5.756c0.549,1.742,3.902,3.657,3.902,3.657l5.374-0.599"/>
	</g>
	<g style="clip-path:url(#SVGID_2_);">
		<path style="fill:none;stroke:#000000;stroke-width:0.5;stroke-miterlimit:10;" d="M120.344,24.261
			c2.934-0.287,5.674,3.113,6.123,7.599c0.447,4.484-1.563,8.358-4.498,8.652l-1.348,0.154c-2.931,0.297-5.673-3.103-6.118-7.591
			c-0.451-4.488,1.566-8.36,4.491-8.658L120.344,24.261z"/>
		<path style="fill:#FFFFFF;stroke:#000000;stroke-width:0.5;stroke-miterlimit:10;" d="M117.984,25.753l-3.813,0.214
			c0,0-2.33,1.938-3.395,3.909c0,0,0.12,4.025,0.54,5.812c0.419,1.78,3.619,3.94,3.619,3.94l5.404-0.198"/>
	</g>
	<g style="clip-path:url(#SVGID_2_);">
		<path style="fill:none;stroke:#000000;stroke-width:0.5;stroke-miterlimit:10;" d="M115.279,128.428
			c2.729-0.475,5.539,2.52,6.274,6.698c0.734,4.172-0.88,7.946-3.611,8.428l-1.252,0.239c-2.729,0.482-5.541-2.512-6.272-6.691
			c-0.737-4.179,0.884-7.949,3.606-8.435L115.279,128.428z"/>
		<path style="fill:#FFFFFF;stroke:#000000;stroke-width:0.5;stroke-miterlimit:10;" d="M113.171,129.993l-3.562,0.47
			c0,0-2.05,1.979-2.908,3.903c0,0,0.393,3.765,0.913,5.411c0.516,1.64,3.67,3.443,3.67,3.443l5.054-0.564"/>
	</g>
	
		<line style="clip-path:url(#SVGID_2_);fill:none;stroke:#000000;stroke-width:0.5;stroke-miterlimit:10;" x1="7.401" y1="7.906" x2="5.067" y2="-28.087"/>
	
		<line style="clip-path:url(#SVGID_2_);fill:none;stroke:#000000;stroke-width:0.5;stroke-miterlimit:10;" x1="8.691" y1="27.793" x2="7.401" y2="7.906"/>
	<path style="clip-path:url(#SVGID_2_);fill:none;stroke:#000000;stroke-width:0.5;stroke-miterlimit:10;" d="M77.882,29.131
		c-1.74,2.936-4.463,6.786-4.463,6.786c-0.756,1.261,0.385,3.871,0.712,4.85c0.326,0.979,2.284,10.276,2.284,15.985"/>
	<path style="clip-path:url(#SVGID_2_);fill:none;stroke:#000000;stroke-width:0.5;stroke-miterlimit:10;" d="M37.21,35.632
		c6.743-0.303,13.087-0.993,14.032-1.186c1.155-0.234,2.085-0.172,2.963,0.609c0.88,0.783,3.007,3.101,4.809,4.049
		c1.801,0.949,3.824,1.705,6.209,1.655c2.388-0.049,8.497-0.675,8.497-0.675"/>
	<path style="clip-path:url(#SVGID_2_);fill:none;stroke:#000000;stroke-width:0.5;stroke-miterlimit:10;" d="M8.491,26.122
		c-2.207,0.476-4.282,2.1-4.323,2.717c-0.042,0.619-0.136,2.063-0.136,2.063c-0.049,2.275,9.346,4.348,16.985,4.752
		c3.91,0.206,10.212,0.428,16.194-0.022"/>
	<path style="clip-path:url(#SVGID_2_);fill:none;stroke:#000000;stroke-width:0.5;stroke-miterlimit:10;" d="M10.356,29.25
		c4.123,1.659,14.339,2.563,23.92,1.826"/>
	<path style="clip-path:url(#SVGID_2_);fill:none;stroke:#000000;stroke-width:0.5;stroke-miterlimit:10;" d="M5.966-13.931
		l-3.316-4.674c-0.866-0.99-1.793-1.051-2.413-1.093c-0.618-0.041-4.922-0.741-6.58-0.748c-1.658-0.005-2.861,0.951-3.734,1.619
		c-0.873,0.666-2.991,2.91-3.993,3.982c-1.004,1.073-2.777,4.374-2.542,7.083c0.235,2.709,1.858,21.982,1.858,21.982
		c0.105,1.56,0.489,2.002,1.094,2.248c0.606,0.247,1.838,0.434,3.109-0.001c1.272-0.434,1.326-2.812,1.326-2.812
		c0.13-1.961-0.428-4.484,1.765-6.308c2.194-1.822,3.513-1.425,5.211-0.483"/>
	<polyline style="clip-path:url(#SVGID_2_);fill:none;stroke:#000000;stroke-width:0.5;stroke-miterlimit:10;" points="
		-9.18,-10.48 -5.487,-11.479 0.694,-10.965 3.156,-9.04 3.214,-0.542 0.341,0.616 	"/>
	<polyline style="clip-path:url(#SVGID_2_);fill:none;stroke:#000000;stroke-width:0.5;stroke-miterlimit:10;" points="
		-9.648,-9.682 -10.237,-8.582 -9.266,-1.37 -7.009,0.541 -1.64,0.794 	"/>
	<path style="clip-path:url(#SVGID_2_);fill:none;stroke:#000000;stroke-width:0.5;stroke-miterlimit:10;" d="M64.305,16.755
		c2.003-3.254,5.455-5.017,8.67-4.105c2.03,0.575,3.583,2.11,4.447,4.125"/>
	<path style="clip-path:url(#SVGID_2_);fill:none;stroke:#000000;stroke-width:0.5;stroke-miterlimit:10;" d="M72.677,30.234
		c-1.527,0.75-3.211,0.974-4.837,0.512c-2.157-0.613-3.771-2.307-4.6-4.508"/>
	<path style="clip-path:url(#SVGID_2_);fill:none;stroke:#000000;stroke-width:0.5;stroke-miterlimit:10;" d="M71.575,29.908
		l2.52,0.8l3.787-1.577c0.327-0.326,2.175-5.655,2.175-5.655l-0.652-5.113l-4.554-3.142l-4.526-1.282"/>
	
		<line style="clip-path:url(#SVGID_2_);fill:none;stroke:#000000;stroke-width:0.5;stroke-miterlimit:10;" x1="69.682" y1="14.506" x2="66.299" y2="17.252"/>
	<path style="clip-path:url(#SVGID_2_);fill:none;stroke:#000000;stroke-width:0.5;stroke-miterlimit:10;" d="M81.74-28.231
		c0.384,3.686,0.083,7.857-1.67,10.667c-2.607,4.177-3.112,7.096-3.327,10.345c-0.214,3.25-0.097,10.872-0.097,10.872
		c-0.256,3.867,0.795,6.734,1.755,8.663c0.959,1.928,2.201,5.397,1.656,10.29"/>
	<path style="clip-path:url(#SVGID_2_);fill:none;stroke:#000000;stroke-width:0.5;stroke-miterlimit:10;" d="M51.439-16.976
		c0,0,15.36,7.39,17.01,8.274"/>
	<path style="clip-path:url(#SVGID_2_);fill:none;stroke:#000000;stroke-width:0.5;stroke-miterlimit:10;" d="M70.474-6.392
		l-0.08,8.231c-0.092,1.393-0.771,2.279-1.73,2.683c-0.961,0.402-16.82,7.586-16.82,7.586"/>
	<path style="clip-path:url(#SVGID_2_);fill:none;stroke:#000000;stroke-width:0.5;stroke-miterlimit:10;" d="M49.748-17.244
		c0,0-0.928,2.27-2.723,3.547c-1.792,1.281-3.834,3.942-4.721,5.592"/>
	<path style="clip-path:url(#SVGID_2_);fill:none;stroke:#000000;stroke-width:0.5;stroke-miterlimit:10;" d="M41.918,4.769
		c0.506,1.744,1.838,2.763,3.044,3.312c1.206,0.544,5.322,1.75,5.322,1.75"/>
	<path style="clip-path:url(#SVGID_2_);fill:none;stroke:#000000;stroke-width:0.5;stroke-miterlimit:10;" d="M60.768,0.911
		c-0.478,0.846-1.254,1.386-2.108,1.354c-1.369-0.051-2.425-1.55-2.354-3.349c0.067-1.796,1.231-3.21,2.599-3.16
		c0.686,0.027,1.292,0.416,1.718,1.021"/>
	
		<ellipse transform="matrix(0.9929 -0.1189 0.1189 0.9929 0.6942 -0.1764)" style="clip-path:url(#SVGID_2_);fill:none;stroke:#000000;stroke-width:0.5;stroke-miterlimit:10;" cx="-1.131" cy="-5.907" rx="2.954" ry="3.839"/>
	<path style="clip-path:url(#SVGID_2_);fill:none;stroke:#000000;stroke-width:0.5;stroke-miterlimit:10;" d="M46.99-9.885
		c2.506,2.384,5.61,2.443,9.284,2.833c3.672,0.392,11.333,0.899,11.333,0.899"/>
	<path style="clip-path:url(#SVGID_2_);fill:none;stroke:#000000;stroke-width:0.5;stroke-miterlimit:10;" d="M47.941,7.044
		c0,0,4.132-2.093,7.101-2.192c2.965-0.1,9.672-0.837,9.672-0.837"/>
	<g style="clip-path:url(#SVGID_2_);">
		<path style="fill:none;stroke:#000000;stroke-width:0.5;stroke-miterlimit:10;" d="M7.532,84.657
			c0.669-1.713,1.697-2.845,2.992-3.073c3.054-0.54,6.438,4.157,7.557,10.489c1.12,6.339-0.452,11.907-3.508,12.449
			c-1.312,0.232-2.685-0.504-3.913-1.922"/>
		<path style="fill:none;stroke:#000000;stroke-width:0.5;stroke-miterlimit:10;" d="M10.524,81.583l8.622-1.525
			c3.057-0.541,6.439,4.156,7.556,10.492c1.122,6.335-0.449,11.905-3.504,12.447l-8.625,1.524"/>
		<path style="fill:none;stroke:#000000;stroke-width:0.5;stroke-miterlimit:10;" d="M80.076,57.716
			c1.445-1.332,3.111-2.216,4.96-2.546c8.059-1.423,16.516,8.313,18.888,21.739c2.37,13.435-2.235,25.471-10.305,26.898
			c-1.295,0.227-2.604,0.17-3.899-0.151"/>
		<path style="fill:none;stroke:#000000;stroke-width:0.5;stroke-miterlimit:10;" d="M87.622,61.862
			c5.363,0.202,10.653,6.858,12.229,15.77c1.453,8.23-0.73,15.73-4.986,18.431"/>
		<path style="fill:none;stroke:#000000;stroke-width:0.5;stroke-miterlimit:10;" d="M21.304,103.573
			c2.463,4.302,5.648,7.189,8.87,7.825c3.491,0.687,5.208-0.239,7.013-1.306c5.029-2.978,7.492-12.239,5.699-22.399
			c-1.764-9.99-7.188-17.436-12.745-19.03c-1.736-0.501-3.598-0.6-6.709,0.79c-3.162,1.419-5.384,5.406-6.275,10.648"/>
		<path style="fill:none;stroke:#000000;stroke-width:0.5;stroke-miterlimit:10;" d="M30.798,70.404
			c4.294,2.902,8.054,9.564,9.499,17.749c1.45,8.21,0.188,15.781-2.875,19.97"/>
		<path style="fill:none;stroke:#000000;stroke-width:0.5;stroke-miterlimit:10;" d="M27.56,110.684
			c2.253,2.257,4.734,3.723,7.243,4.168c4.426,0.781,6.617-0.349,8.924-1.654c6.419-3.639,9.664-14.805,7.512-26.989
			c-2.116-11.982-8.908-20.862-15.944-22.715c-2.203-0.574-4.563-0.675-8.535,1.037c-2.659,1.15-4.816,3.641-6.318,7.012"/>
		<path style="fill:none;stroke:#000000;stroke-width:0.5;stroke-miterlimit:10;" d="M36.892,65.45
			c5.416,3.429,10.104,11.392,11.84,21.21c1.74,9.856,0.042,18.971-3.901,24.033"/>
		<path style="fill:none;stroke:#000000;stroke-width:0.5;stroke-miterlimit:10;" d="M38.06,115.232
			c0.788,0.325,1.584,0.561,2.382,0.703c4.783,0.851,7.15-0.378,9.642-1.789c6.936-3.928,10.447-15.995,8.119-29.159
			c-2.286-12.954-9.628-22.551-17.234-24.545c-2.375-0.622-4.927-0.733-9.216,1.117c-1.256,0.542-2.407,1.36-3.44,2.412"/>
		<path style="fill:none;stroke:#000000;stroke-width:0.5;stroke-miterlimit:10;" d="M42.699,62.551
			c5.85,3.708,10.919,12.309,12.791,22.92c1.884,10.651,0.049,20.495-4.213,25.973"/>
		<path style="fill:none;stroke:#000000;stroke-width:0.5;stroke-miterlimit:10;" d="M48.92,59.859
			c6.224,3.939,11.613,13.084,13.602,24.363c1.999,11.321,0.052,21.79-4.479,27.608"/>
		<path style="fill:none;stroke:#000000;stroke-width:0.5;stroke-miterlimit:10;" d="M53.824,116.291
			c5.25,0.93,7.854-0.416,10.588-1.964c7.619-4.315,11.471-17.565,8.914-32.022c-2.511-14.221-10.568-24.759-18.919-26.953
			c-2.612-0.681-5.415-0.803-10.123,1.233c-0.379,0.163-0.749,0.347-1.107,0.556"/>
		<path style="fill:none;stroke:#000000;stroke-width:0.5;stroke-miterlimit:10;" d="M63.667,54.335l1.336-0.445
			c1.853-0.316,3.313-0.101,4.711,0.319c7.31,2.188,14.478,12.272,16.86,25.763c2.424,13.718-0.754,26.208-7.336,30.183
			c-1.071,0.649-2.122,1.258-3.374,1.642l-2.817,1.051"/>
		<path style="fill:none;stroke:#000000;stroke-width:0.5;stroke-miterlimit:10;" d="M56.302,57.674
			c6.429,4.072,11.992,13.514,14.048,25.164c2.065,11.693,0.053,22.504-4.626,28.518"/>
		<path style="fill:none;stroke:#000000;stroke-width:0.5;stroke-miterlimit:10;" d="M63.198,115.108
			c4.297,0.46,6.658-0.772,9.125-2.171c7.619-4.313,11.47-17.565,8.914-32.021c-2.509-14.22-10.567-24.757-18.918-26.95
			c-2.51-0.656-5.194-0.792-9.577,1.001"/>
		<path style="fill:none;stroke:#000000;stroke-width:0.5;stroke-miterlimit:10;" d="M10.47,84.372
			c2.339-0.412,4.924,3.183,5.78,8.024c0.858,4.851-0.344,9.11-2.68,9.524"/>
		<line style="fill:none;stroke:#000000;stroke-width:0.5;stroke-miterlimit:10;" x1="-52.855" y1="95.12" x2="10.47" y2="84.372"/>
		
			<line style="fill:none;stroke:#000000;stroke-width:0.5;stroke-miterlimit:10;" x1="-52.58" y1="115.415" x2="13.57" y2="101.92"/>
		<path style="fill:none;stroke:#000000;stroke-width:0.5;stroke-miterlimit:10;" d="M74.151,56.484
			c4.663,0.719,6.737,1.541,10.107,3.546c3.376,2.007,5.495,3.583,8.38,7.589"/>
		<path style="fill:none;stroke:#000000;stroke-width:0.5;stroke-miterlimit:10;" d="M80.708,109.233
			c5.378-1.366,7.844-4.961,9.589-6.699c1.294-1.285,4.448-5.528,5.431-8.233"/>
	</g>
	<path style="clip-path:url(#SVGID_2_);fill:none;stroke:#000000;stroke-width:0.5;stroke-miterlimit:10;" d="M77.066-10.943
		c0.164,3.589,3.752,10.603,8.808,15.497c5.058,4.894,13.703,11.744,20.228,23.489l4.567,5.057"/>
	<path style="clip-path:url(#SVGID_2_);fill:none;stroke:#000000;stroke-width:0.5;stroke-miterlimit:10;" d="M76.74,40.44
		l5.547,1.305c2.283,0.652,8.481,5.872,13.212,12.56c4.73,6.688,7.226,15.193,8.425,22.604"/>
	<path style="clip-path:url(#SVGID_2_);fill:none;stroke:#000000;stroke-width:0.5;stroke-miterlimit:10;" d="M117.03,97.534
		c0,8.155,0.979,15.007,3.264,20.227c2.282,5.22,4.566,10.929,4.566,10.929"/>
	<path style="clip-path:url(#SVGID_2_);fill:none;stroke:#000000;stroke-width:0.5;stroke-miterlimit:10;" d="M92.997,122.438
		c1.09,2.39,2.938,3.042,5.004,3.37c2.065,0.325,3.263,1.304,4.675,2.828c1.413,1.522,4.025,5.73,4.025,5.73"/>
	<path style="clip-path:url(#SVGID_2_);fill:none;stroke:#000000;stroke-width:0.5;stroke-miterlimit:10;" d="M112.681,113.083
		c0,0-3.044,6.744-4.132,16.422"/>
	<path style="clip-path:url(#SVGID_2_);fill:none;stroke:#000000;stroke-width:0.5;stroke-miterlimit:10;" d="M116.053,143.751
		c0,0,2.282,0.546,3.263,0.435c0.979-0.109,5.438-1.957,5.438-1.957c5.002-1.74,6.417-13.919-1.306-16.965"/>
	
		<line style="clip-path:url(#SVGID_2_);fill:none;stroke:#000000;stroke-width:0.5;stroke-miterlimit:10;" x1="118.553" y1="61.211" x2="130.08" y2="40.006"/>
	<path style="clip-path:url(#SVGID_2_);fill:none;stroke:#000000;stroke-width:0.5;stroke-miterlimit:10;" d="M115.292,25.869
		c0.978-1.523,2.937-2.828,4.785-3.045c1.848-0.218,5.762-0.109,5.762-0.109c2.938,0,6.31,3.045,7.288,6.199
		c0.979,3.154,1.413,7.176-0.109,10.657c-0.937,2.139-4.132,2.937-4.132,2.937"/>
	<path style="clip-path:url(#SVGID_2_);fill:none;stroke:#000000;stroke-width:0.5;stroke-miterlimit:10;" d="M111.811,39.951
		c0,0,0.816,8.972,2.774,16.476"/>
	<path style="clip-path:url(#SVGID_2_);fill:none;stroke:#000000;stroke-miterlimit:10;" d="M123.228,52.729
		c0.219,4.459,0.763,8.917,0.763,11.201c0,2.284-0.763,2.283-0.219,6.415c0.546,4.134,0.219,18.925-1.088,26.099
		c-1.304,7.179-0.869,8.485-0.869,8.485l-1.85,11.526"/>
	
		<line style="clip-path:url(#SVGID_2_);fill:none;stroke:#000000;stroke-width:0.5;stroke-miterlimit:10;" x1="123.338" y1="106.558" x2="127.035" y2="124.393"/>
	<path style="clip-path:url(#SVGID_2_);fill:none;stroke:#000000;stroke-width:0.5;stroke-miterlimit:10;" d="M82.341,17.93
		c0,0,3.697,1.306,6.633,2.502c2.938,1.196,14.79,6.416,14.79,6.416"/>
	<path style="clip-path:url(#SVGID_2_);fill:none;stroke:#000000;stroke-width:0.5;stroke-miterlimit:10;" d="M84.57,39.135
		c5.056,2.773,12.071,8.156,16.148,14.518c4.078,6.362,8.483,18.271,9.624,22.511c1.143,4.242,0.815,9.95,0.163,14.03
		c-0.653,4.077-6.524,16.309-6.524,16.309"/>
	<path style="clip-path:url(#SVGID_2_);fill:none;stroke:#000000;stroke-width:0.5;stroke-miterlimit:10;" d="M169.956,103.709
		c-1.904,10.097-5.19,19.333-9.591,27.228"/>
	<path style="clip-path:url(#SVGID_2_);fill:none;stroke:#000000;stroke-width:0.5;stroke-miterlimit:10;" d="M166.187,46.813
		c2.104,6.485,3.679,13.397,4.63,20.62"/>
	<path style="clip-path:url(#SVGID_2_);fill:none;stroke:#000000;stroke-width:0.5;stroke-miterlimit:10;" d="M110.32-4.683
		c15.101-0.376,29.485,8.023,40.546,22.089"/>
	<path style="clip-path:url(#SVGID_2_);fill:none;stroke:#000000;stroke-width:0.5;stroke-miterlimit:10;" d="M85.798,4.458
		c6.42-5.033,13.744-8.192,21.693-8.968c0.945-0.092,1.887-0.149,2.829-0.173"/>
	<path style="clip-path:url(#SVGID_2_);fill:none;stroke:#000000;stroke-width:0.5;stroke-miterlimit:10;" d="M169.085,46.818
		c2.457,7.62,4.179,15.823,5.018,24.427c2.244,23.013-2.278,44.436-11.363,60.271"/>
	<path style="clip-path:url(#SVGID_2_);fill:none;stroke:#000000;stroke-width:0.5;stroke-miterlimit:10;" d="M110.318-4.727
		c16.152-1.575,31.677,7.003,43.433,21.99"/>
	<path style="clip-path:url(#SVGID_2_);fill:none;stroke:#000000;stroke-width:0.5;stroke-miterlimit:10;" d="M175.352,104.055
		c-2.064,10.28-5.585,19.597-10.266,27.398"/>
	<path style="clip-path:url(#SVGID_2_);fill:none;stroke:#000000;stroke-width:0.5;stroke-miterlimit:10;" d="M172.054,47.052
		c1.93,6.079,3.394,12.535,4.309,19.273"/>
	<path style="clip-path:url(#SVGID_2_);fill:none;stroke:#000000;stroke-width:0.5;stroke-miterlimit:10;" d="M127.055-2.809
		c10.937,2.358,21.164,9.494,29.508,19.989"/>
	<path style="clip-path:url(#SVGID_2_);fill:none;stroke:#000000;stroke-width:0.5;stroke-miterlimit:10;" d="M174.819,47.015
		c2.33,7.381,3.973,15.318,4.783,23.637c2.223,22.792-2.229,43.979-11.156,59.494"/>
	<path style="clip-path:url(#SVGID_2_);fill:none;stroke:#000000;stroke-width:0.5;stroke-miterlimit:10;" d="M123.72-3.821
		c13.224,0.676,25.744,8.42,35.619,20.875"/>
	<path style="clip-path:url(#SVGID_2_);fill:none;stroke:#000000;stroke-miterlimit:10;" d="M136.486,144.283
		c2.454-0.752,5.32,1.484,6.401,5.005c1.081,3.518-0.031,6.979-2.486,7.733"/>
	<path style="clip-path:url(#SVGID_2_);fill:none;stroke:#000000;stroke-miterlimit:10;" d="M140.401,157.021
		c-2.454,0.752-5.32-1.484-6.403-5.006c-1.079-3.515,0.033-6.978,2.488-7.732"/>
	<path style="clip-path:url(#SVGID_2_);fill:none;stroke:#000000;stroke-miterlimit:10;" d="M151.328,31.372
		c-0.13,4.474-2.801,8.026-5.965,7.935c-3.164-0.09-5.618-3.792-5.495-8.265c0.129-4.473,2.795-8.027,5.963-7.937
		C148.996,23.197,151.461,26.896,151.328,31.372z"/>
	<path style="clip-path:url(#SVGID_2_);fill:none;stroke:#000000;stroke-miterlimit:10;" d="M148.46,31.29
		c-0.061,2.237-1.396,4.013-2.977,3.966c-1.586-0.044-2.814-1.896-2.749-4.131c0.062-2.238,1.398-4.015,2.981-3.969
		C147.295,27.201,148.529,29.05,148.46,31.29z"/>
	<path style="clip-path:url(#SVGID_2_);fill:none;stroke:#000000;stroke-miterlimit:10;" d="M143.645,140.847
		c0.44-0.331,0.926-0.586,1.462-0.751c3.261-1.002,7.002,1.751,8.354,6.153c1.352,4.401-0.195,8.781-3.456,9.785
		c-0.985,0.302-2.016,0.262-3.011-0.065"/>
	<path style="clip-path:url(#SVGID_2_);fill:none;stroke:#000000;stroke-miterlimit:10;" d="M141.59,142.307
		c0.246-0.137,0.509-0.248,0.783-0.334c2.841-0.871,6.102,1.526,7.282,5.364c1.178,3.838-0.17,7.655-3.011,8.531
		c-0.439,0.134-0.889,0.19-1.336,0.176"/>
	<path style="clip-path:url(#SVGID_2_);fill:none;stroke:#000000;stroke-miterlimit:10;" d="M153.884,24.116
		c0.466-0.216,0.968-0.345,1.488-0.373c3.175-0.174,5.959,3.405,6.217,8.005c0.255,4.596-2.114,8.467-5.288,8.644
		c-0.962,0.055-1.888-0.237-2.718-0.796"/>
	<path style="clip-path:url(#SVGID_2_);fill:none;stroke:#000000;stroke-width:0.5;stroke-miterlimit:10;" d="M152.351,39.337
		c-0.104-0.022-0.21-0.049-0.314-0.081"/>
	<path style="clip-path:url(#SVGID_2_);fill:none;stroke:#000000;stroke-miterlimit:10;" d="M153.988,25.14
		c2.094,0.806,3.729,3.477,3.908,6.735c0.225,4.006-1.838,7.379-4.609,7.534c-0.316,0.018-0.63-0.007-0.937-0.072"/>
	
		<ellipse transform="matrix(0.9559 -0.2937 0.2937 0.9559 -38.1407 47.3037)" style="clip-path:url(#SVGID_2_);fill:none;stroke:#000000;stroke-miterlimit:10;" cx="138.443" cy="150.654" rx="2.447" ry="3.505"/>
	<path style="clip-path:url(#SVGID_2_);fill:none;stroke:#000000;stroke-miterlimit:10;" d="M123.228,142.88l5.548,3.915
		c1.652,0.971,3.443,2.046,3.443,2.046"/>
	<path style="clip-path:url(#SVGID_2_);fill:none;stroke:#000000;stroke-miterlimit:10;" d="M137.504,157.978
		c2.176,0.838,3.777,0.67,5.192,0.129c1.411-0.546,2.283-1.634,2.718-2.396c0.436-0.76,1.524-3.044,1.74-5.001
		c0.216-1.957-0.653-4.243-2.394-6.091c-1.738-1.848-3.368-2.608-5.11-2.936c-1.741-0.327-3.616,0.546-3.616,0.546
		c-1.06,0.487-2.445,2.282-2.691,3.097c-0.243,0.817-0.571,1.55-0.571,1.55c-0.462,1.519-0.462,3.131-0.462,3.668
		c0,1.479,1.522,4.21,1.522,4.21C134.728,156.366,136.339,157.532,137.504,157.978z"/>
	<path style="clip-path:url(#SVGID_2_);fill:none;stroke:#000000;stroke-miterlimit:10;" d="M148.46,156.256
		c0.978,0.326,3.479,0.219,4.785,0c1.307-0.218,17.507-7.395,17.507-7.395c1.741-0.653,4.135-2.938,4.895-4.025
		c0.762-1.085,4.676-7.067,4.676-7.067c1.197-1.415,1.632-4.894,1.632-4.894"/>
	<path style="clip-path:url(#SVGID_2_);fill:none;stroke:#000000;stroke-width:0.5;stroke-miterlimit:10;" d="M149.166,132.684
		c0,0,0.243-1.224,1.224-1.632l1.55-0.462c0.327-0.106,0.762-0.218,2.175-0.218l1.632,0.111l2.393-0.435l5.543,1.902l11.093-3.834"
		/>
	<polyline style="clip-path:url(#SVGID_2_);fill:none;stroke:#000000;stroke-width:0.5;stroke-miterlimit:10;" points="
		181.79,132.602 182.443,130.564 182.933,127.874 181.544,127.139 	"/>
	<path style="clip-path:url(#SVGID_2_);fill:none;stroke:#000000;stroke-miterlimit:10;" d="M147.534,134.316l7.259,2.366
		l4.648-1.875c0.571,0.079,1.552,0.161,1.795,0.65c0.246,0.489,0.489,0.735,0.733,0.98c0.245,0.244,2.448,0.896,2.448,0.896
		l3.995,0.082l13.377-4.814"/>
	<path style="clip-path:url(#SVGID_2_);fill:none;stroke:#000000;stroke-width:0.5;stroke-miterlimit:10;" d="M152.021,132.115
		l-3.916,1.305c-0.814,0.163-0.571,0.896-0.571,0.896"/>
	<polyline style="clip-path:url(#SVGID_2_);fill:none;stroke:#000000;stroke-width:0.5;stroke-miterlimit:10;" points="
		182.115,127.382 184.643,126.568 184.643,125.997 179.506,124.773 176.081,125.507 173.308,124.529 170.971,125.155 	"/>
	
		<line style="clip-path:url(#SVGID_2_);fill:none;stroke:#000000;stroke-miterlimit:10;" x1="170.102" y1="127.328" x2="173.226" y2="128.525"/>
	<path style="clip-path:url(#SVGID_2_);fill:none;stroke:#000000;stroke-width:0.5;stroke-miterlimit:10;" d="M102.84,22.66
		c2.61-0.163,10.438,1.631,12.56,2.285"/>
	<path style="clip-path:url(#SVGID_2_);fill:none;stroke:#000000;stroke-miterlimit:10;" d="M190.762,43.866c0,0,0-6.851-0.164-7.83
		c-0.163-0.979-1.468-2.447-1.468-2.447s-4.077-8.972-4.566-9.624c-0.491-0.653-1.306-1.468-2.284-1.632l-10.114-1.467
		c0,0-1.631-1.794-2.936-2.447c-1.306-0.652-3.752-0.978-5.709-1.142c-1.958-0.163-19.9,0.326-21.37,0.326
		c-1.467,0-3.913,0.327-6.851,1.632l-7.83,3.589"/>
	<path style="clip-path:url(#SVGID_2_);fill:none;stroke:#000000;stroke-miterlimit:10;" d="M144.437,21.845
		c0,0-4.243,4.133-4.894,5.003c-0.653,0.87-0.544,8.59-0.544,8.59l4.676,4.894c1.088,0.435,2.392,0.435,2.392,0.435
		s3.047-0.109,4.569-0.326c1.522-0.218,4.132-3.154,4.132-3.154s0.76-4.459,0.76-9.679l-1.848-2.61
		c-0.652-1.196-4.894-3.371-4.894-3.371L144.437,21.845z"/>
	<path style="clip-path:url(#SVGID_2_);fill:none;stroke:#000000;stroke-width:0.5;stroke-miterlimit:10;" d="M150.636,40.44
		c0.979,1.631,2.828,2.175,4.241,2.393c1.413,0.217,5.22-0.109,5.22-0.109"/>
	
		<line style="clip-path:url(#SVGID_2_);fill:none;stroke:#000000;stroke-width:0.5;stroke-miterlimit:10;" x1="155.282" y1="43.05" x2="156.181" y2="44.138"/>
	<polyline style="clip-path:url(#SVGID_2_);fill:none;stroke:#000000;stroke-width:0.5;stroke-miterlimit:10;" points="
		155.282,44.411 155.31,46.204 167.599,46.53 189.674,46.748 190.762,45.77 190.762,43.866 	"/>
	<polyline style="clip-path:url(#SVGID_2_);fill:none;stroke:#000000;stroke-miterlimit:10;" points="190.762,43.866 
		189.783,43.132 171.922,42.398 169.066,43.295 167.599,44.736 155.282,44.411 	"/>
	
		<line style="clip-path:url(#SVGID_2_);fill:none;stroke:#000000;stroke-width:0.5;stroke-miterlimit:10;" x1="168.741" y1="30.654" x2="185.378" y2="31.632"/>
	
		<line style="clip-path:url(#SVGID_2_);fill:none;stroke:#000000;stroke-width:0.5;stroke-miterlimit:10;" x1="125.948" y1="61.32" x2="132.148" y2="44.355"/>
	<path style="clip-path:url(#SVGID_2_);fill:none;stroke:#000000;stroke-width:0.5;stroke-miterlimit:10;" d="M134.54,22.824
		c4.566,2.828,4.134,16.638,0,20.335"/>
	<path style="clip-path:url(#SVGID_2_);fill:none;stroke:#000000;stroke-width:0.5;stroke-miterlimit:10;" d="M180.43,46.748
		c1.85,0.109,2.584,2.908,2.584,2.908c0.408,0.653,3.074,13.837,3.509,23.083c0.424,9.042,0.721,30.509-9.948,50.976
		c0,0-0.655,1.276-2.122,1.225"/>
	<path style="clip-path:url(#SVGID_2_);fill:none;stroke:#000000;stroke-width:0.5;stroke-miterlimit:10;" d="M155.31,46.204
		c-2.174,0.109-8.265,1.414-9.895,2.067"/>
	<path style="clip-path:url(#SVGID_2_);fill:none;stroke:#000000;stroke-width:0.5;stroke-miterlimit:10;" d="M137.423,55.285
		c0,0-0.688,7.874-0.599,12.886c0.009,0.496,0.609,3.092,0.65,4.133c0.321,8.155,0.653,17.616-1.738,26.425l0.107,0.979
		l-0.651,5.981"/>
	<path style="clip-path:url(#SVGID_2_);fill:none;stroke:#000000;stroke-width:0.5;stroke-miterlimit:10;" d="M135.192,105.689
		c0,1.957-0.979,5.436-0.979,7.611c0,2.175,1.086,5.329,1.848,6.851c0.763,1.524,7.179,6.961,7.179,6.961l0.869,4.676
		c0.219,1.304,1.522,1.85,3.154,1.85"/>
	<path style="clip-path:url(#SVGID_2_);fill:none;stroke:#000000;stroke-width:0.5;stroke-miterlimit:10;" d="M159.66,46.53
		c0.869,0.218,1.631,0.979,1.956,1.741c0.328,0.761,0.872,2.936,0.872,2.936c1.413,4.676,3.588,14.244,3.807,34.255h-1.197
		c0,0-0.109,7.725-0.652,11.856l1.631,0.65c-0.653,7.396-5.112,22.292-9.68,30.231c0,0-0.976,1.954-2.282,2.173"/>
	<polyline style="clip-path:url(#SVGID_2_);fill:none;stroke:#000000;stroke-miterlimit:10;" points="145.577,41.5 139.705,41.174 
		139.705,44.763 135.464,46.557 	"/>
	<path style="clip-path:url(#SVGID_2_);fill:none;stroke:#000000;stroke-width:0.5;stroke-miterlimit:10;" d="M145.823,48.352
		c-1.388,0.49-7.586,0.408-7.586,0.408c-0.898-0.163-1.581-0.824-2.855-0.326c-1.875,0.734-4.567,1.958-4.567,1.958
		c-1.142,0.816,0,5.383,2.203,5.383c2.202,0,4.405-0.489,4.405-0.489c1.222-0.327,1.956-1.061,2.364-1.795
		c0.407-0.734,0.081-2.283,1.222-2.854"/>
	<path style="clip-path:url(#SVGID_2_);fill:none;stroke:#000000;stroke-width:0.5;stroke-miterlimit:10;" d="M139.787,53.49
		c0,0,0.407,0.489,0.65,1.06c0.246,0.571,0.491,1.55,0.491,1.55s-0.245,0.652-0.082,1.55c0.162,0.897,1.143,3.099,1.143,3.099
		c0.979,0.489,1.793,0.653,2.528,0.653c0.734,0,2.12-2.529,2.12-2.529c0-0.489,0-1.549,0-1.549s-0.814-2.691-1.143-3.262
		c-0.327-0.571-0.816-1.224-0.816-1.224c-0.732-1.468-2.446-3.181-3.261-3.181c-0.816,0-2.448,0.653-2.448,0.653l-2.446,1.305"/>
	<path style="clip-path:url(#SVGID_2_);fill:none;stroke:#000000;stroke-width:0.5;stroke-miterlimit:10;" d="M136.36,49.656
		c-0.326,0.898-0.162,2.203,0.816,2.773c0.979,0.571,1.713,0.163,1.713,0.163"/>
	<path style="clip-path:url(#SVGID_2_);fill:none;stroke:#000000;stroke-miterlimit:10;" d="M133.668,59.362
		c0,9.625-1.357,36.373-2.282,45.021c-0.489,4.566-1.306,7.34-1.795,11.092c-0.489,3.752,0,7.994,2.284,10.114
		c2.284,2.121,3.916,2.773,3.916,2.773"/>
	<path style="clip-path:url(#SVGID_2_);fill:none;stroke:#000000;stroke-width:0.5;stroke-miterlimit:10;" d="M143.211,128.525
		l-4.813,0.98c-0.896,0.161-1.304,0-2.282-0.246c-0.98-0.245-1.795,0.407-1.877,1.143c-0.08,0.734-0.161,3.263-0.161,3.263
		c0,1.386,3.913,1.386,4.077,0.407c0.164-0.98,0.489-3.263,0.489-3.263"/>
	<path style="clip-path:url(#SVGID_2_);fill:none;stroke:#000000;stroke-width:0.5;stroke-miterlimit:10;" d="M138.398,133.337
		c0.653-0.407,1.959-0.815,1.959-0.815l3.752-0.734"/>
	
		<line style="clip-path:url(#SVGID_2_);fill:none;stroke:#000000;stroke-width:0.5;stroke-miterlimit:10;" x1="162.813" y1="134.291" x2="180.866" y2="128.306"/>
	
		<line style="clip-path:url(#SVGID_2_);fill:none;stroke:#000000;stroke-width:0.5;stroke-miterlimit:10;" x1="166.403" y1="135.704" x2="180.213" y2="131.028"/>
	<g style="clip-path:url(#SVGID_2_);">
		<path style="fill:none;stroke:#000000;stroke-width:0.5;stroke-miterlimit:10;" d="M77.665,122.904
			c-1.853-3.055-3.575-6.282-5.153-9.658"/>
		<path style="fill:none;stroke:#000000;stroke-width:0.5;stroke-miterlimit:10;" d="M95.696,144.045
			c7.254,5.888,15.223,9.822,23.442,11.329c0,0,3.003,0.635,5.512,0.275c0,0,0.403-4.435-0.403-11.825"/>
		<path style="fill:none;stroke:#000000;stroke-width:0.5;stroke-miterlimit:10;" d="M80.847,109.84c0,0-0.473,6.04-1.019,8.696
			c-0.544,2.658-2.182,5.123-4.06,6.601c-2.336,1.844-4.521,3.865-4.521,3.865"/>
		<path style="fill:none;stroke:#000000;stroke-width:0.5;stroke-miterlimit:10;" d="M70.911,137.49
			c-2.173-0.472-3.718-1.556-4.005-3.048c-0.498-2.592,2.995-5.444,7.801-6.364c4.807-0.924,9.105,0.433,9.602,3.025
			c0.214,1.115-0.309,2.274-1.356,3.311"/>
		<path style="fill:none;stroke:#000000;stroke-width:0.5;stroke-miterlimit:10;" d="M78.925,129.827
			c1.226,0.336,2.083,0.993,2.25,1.877c0.318,1.658-1.916,3.483-4.992,4.071c-3.075,0.59-5.827-0.277-6.145-1.936
			c-0.171-0.891,0.395-1.831,1.431-2.6"/>
		
			<line style="fill:none;stroke:#000000;stroke-width:0.5;stroke-miterlimit:10;" x1="67.827" y1="140.383" x2="66.905" y2="134.442"/>
		<path style="fill:none;stroke:#000000;stroke-width:0.5;stroke-miterlimit:10;" d="M98.677,125.692
			c-1.42,0.901-2.205,2.304-2.205,2.304s-2.307,7.92-2.578,11.384"/>
		<path style="fill:none;stroke:#000000;stroke-width:0.5;stroke-miterlimit:10;" d="M67.313,138.315
			c-1.644,0.885-2.654,3.731-2.923,5.736c-0.27,2.003-0.058,5.061,2.245,7.263c2.302,2.205,6.283,3.08,10.037,2.583
			c3.75-0.491,7.356-2.012,9.467-3.082c2.107-1.073,10.143-7.423,10.143-7.423s1.023-0.146,2.063-0.512
			c1.041-0.368,4.063-5.22,6.656-10.282"/>
		<path style="fill:none;stroke:#000000;stroke-width:0.5;stroke-miterlimit:10;" d="M69.592,141.532
			c3.845,0.469,13.214-0.655,18.406-4.468"/>
		<path style="fill:none;stroke:#000000;stroke-width:0.5;stroke-miterlimit:10;" d="M80.291,124.538
			c3.145,0.888,9.775,4.46,12.165,8.827"/>
	</g>
	<path style="clip-path:url(#SVGID_2_);fill:none;stroke:#000000;stroke-miterlimit:10;" d="M94.28,144.765
		c5.375,5.375,21.904,21.501,42.33,13.035"/>
	<path style="clip-path:url(#SVGID_2_);fill:none;stroke:#000000;stroke-width:0.5;stroke-miterlimit:10;" d="M66.862,40.861
		c-1.063,4.901-1.53,9.207-1.859,13.029"/>
</g>
<g>
	<path d="M192.718,155.037v0.591h-3.313c-0.005-0.148,0.02-0.29,0.072-0.427c0.084-0.227,0.219-0.448,0.404-0.667
		s0.454-0.472,0.805-0.759c0.545-0.446,0.913-0.801,1.104-1.062s0.287-0.507,0.287-0.739c0-0.244-0.087-0.45-0.262-0.617
		c-0.174-0.168-0.401-0.252-0.682-0.252c-0.296,0-0.533,0.09-0.711,0.268s-0.268,0.424-0.271,0.738l-0.632-0.065
		c0.043-0.472,0.206-0.831,0.489-1.078c0.282-0.247,0.661-0.371,1.138-0.371c0.48,0,0.861,0.134,1.142,0.399
		c0.28,0.268,0.42,0.598,0.42,0.992c0,0.2-0.041,0.397-0.123,0.591s-0.218,0.397-0.408,0.612c-0.19,0.214-0.506,0.508-0.948,0.881
		c-0.369,0.311-0.606,0.521-0.711,0.631s-0.191,0.222-0.26,0.334H192.718z"/>
</g>
<line style="fill:none;stroke:#FFFFFF;stroke-width:1.5;stroke-linejoin:round;stroke-miterlimit:10;" x1="172.975" y1="141.924" x2="188.139" y2="151.468"/>
<line style="fill:none;stroke:#000000;stroke-width:0.5;stroke-linejoin:round;" x1="172.975" y1="141.924" x2="188.139" y2="151.468"/>
<rect x="127.999" style="fill:#FFFFFF;" width="35.834" height="15"/>
<g>
	<line style="fill:none;stroke:#000000;stroke-width:4;" x1="156.946" y1="8.511" x2="140.567" y2="8.615"/>
	<polygon style="stroke:#000000;stroke-width:2;" points="141.541,4.626 141.154,12.343 134.329,8.179 	"/>
	<polygon style="stroke:#000000;stroke-width:2;" points="156.161,11.962 156.548,4.245 163.373,8.409 	"/>
</g>
<polyline style="fill:none;stroke:#FFFFFF;stroke-width:1.5;" points="153.333,32.333 205.667,78.626 145.916,150.001 "/>
<polyline style="fill:none;stroke:#000000;stroke-width:0.5;" points="153.333,32.333 205.667,78.626 145.916,150.001 "/>
<g>
	<path d="M210.274,80.752h-0.615v-3.921c-0.147,0.142-0.342,0.283-0.582,0.424c-0.24,0.142-0.457,0.248-0.648,0.318v-0.595
		c0.345-0.162,0.646-0.357,0.902-0.588c0.258-0.23,0.44-0.453,0.547-0.67h0.396V80.752z"/>
</g>
</svg>
