<?xml version="1.0" encoding="utf-8"?>
<!-- Generator: Adobe Illustrator 19.1.1, SVG Export Plug-In . SVG Version: 6.00 Build 0)  -->
<svg version="1.1" id="Layer_1" xmlns="http://www.w3.org/2000/svg" xmlns:xlink="http://www.w3.org/1999/xlink" x="0px" y="0px"
	 viewBox="0 0 50.683 58.149" style="enable-background:new 0 0 50.683 58.149;" xml:space="preserve">
<path style="fill:none;stroke:#000000;stroke-linecap:round;stroke-linejoin:round;" d="M25.341,20.212
	c-7.848,0-14.674,3.587-18.201,8.862c3.527,5.276,10.354,8.863,18.201,8.863c7.848,0,14.675-3.587,18.201-8.863
	C40.016,23.799,33.189,20.212,25.341,20.212z"/>
<path style="fill:none;stroke:#000000;stroke-width:0.5;stroke-linecap:round;stroke-linejoin:round;" d="M41.581,10.294
	c2.825,2.912,4.514,6.599,4.514,10.602c0,2.948-0.915,5.724-2.525,8.146"/>
<path style="fill:none;stroke:#000000;stroke-width:0.5;stroke-linecap:round;stroke-linejoin:round;" d="M7,28.869
	c-1.539-2.38-2.412-5.095-2.412-7.973c0-3.941,1.637-7.576,4.383-10.466"/>
<path style="fill:none;stroke:#000000;stroke-linecap:round;stroke-linejoin:round;" d="M50.183,37.251
	c0,11.244-11.122,20.398-24.842,20.398c-13.72,0-24.841-9.154-24.841-20.398V20.896C0.5,9.654,11.622,0.5,25.341,0.5
	c13.72,0,24.842,9.154,24.842,20.396V37.251z"/>
<path style="fill:none;stroke:#000000;stroke-width:0.5;stroke-linecap:round;stroke-linejoin:round;" d="M8.798,36.105
	C3.706,32.367,0.5,26.933,0.5,20.896"/>
<path style="fill:none;stroke:#000000;stroke-width:0.5;stroke-linecap:round;stroke-linejoin:round;" d="M50.183,20.896
	c0,7.974-5.593,14.896-13.738,18.248"/>
</svg>
