<?xml version="1.0" encoding="utf-8"?>
<!-- Generator: Adobe Illustrator 19.1.1, SVG Export Plug-In . SVG Version: 6.00 Build 0)  -->
<svg version="1.1" id="レイヤー_1" xmlns="http://www.w3.org/2000/svg" xmlns:xlink="http://www.w3.org/1999/xlink" x="0px"
	 y="0px" viewBox="0 0 200.117 120.608" style="enable-background:new 0 0 200.117 120.608;" xml:space="preserve">
<path d="M107.58,65.01h-0.38l-0.149-0.439h-0.692l-0.142,0.439h-0.378l0.665-1.947h0.382L107.58,65.01 M106.941,64.24l-0.246-0.723
	l-0.232,0.723H106.941z"/>
<path d="M107.979,64.615l-0.226,1.139l0.978-0.574l-0.212-0.16c0.115-0.256,0.181-0.539,0.181-0.822c0-1.107-0.902-2.01-2.01-2.01
	c-1.108,0-2.01,0.902-2.01,2.01c0,0.57,0.243,1.115,0.667,1.496l0.201-0.225c-0.361-0.324-0.568-0.787-0.568-1.271
	c0-0.943,0.768-1.709,1.71-1.709c0.941,0,1.709,0.766,1.709,1.709c0,0.223-0.044,0.436-0.128,0.639L107.979,64.615"/>
<path style="fill-rule:evenodd;clip-rule:evenodd;" d="M105.533,65.93c0.15,0,0.273,0.045,0.368,0.133
	c0.094,0.088,0.141,0.203,0.141,0.344v0.885c0,0.146-0.047,0.266-0.141,0.354c-0.089,0.082-0.21,0.123-0.368,0.123
	c-0.156,0-0.279-0.041-0.367-0.123c-0.094-0.088-0.141-0.207-0.141-0.354v-0.885c0-0.146,0.047-0.266,0.141-0.354
	C105.254,65.971,105.377,65.93,105.533,65.93 M105.288,67.309c0,0.076,0.02,0.133,0.057,0.168c0.044,0.041,0.106,0.061,0.188,0.061
	s0.145-0.02,0.188-0.061c0.038-0.035,0.057-0.092,0.057-0.168v-0.92c0-0.076-0.019-0.131-0.057-0.168
	c-0.044-0.041-0.106-0.063-0.188-0.063c-0.076,0-0.135,0.022-0.179,0.063c-0.044,0.041-0.066,0.098-0.066,0.168V67.309z"/>
<polyline style="fill-rule:evenodd;clip-rule:evenodd;" points="107.135,66.178 106.551,66.178 106.551,66.717 107.068,66.717 
	107.068,66.945 106.551,66.945 106.551,67.75 106.287,67.75 106.287,65.947 107.135,65.947 107.135,66.178 "/>
<polyline style="fill-rule:evenodd;clip-rule:evenodd;" points="108.34,66.178 107.756,66.178 107.756,66.717 108.273,66.717 
	108.273,66.945 107.756,66.945 107.756,67.75 107.493,67.75 107.493,65.947 108.34,65.947 108.34,66.178 "/>
<g>
	<polygon style="fill-rule:evenodd;clip-rule:evenodd;" points="37.658,84.757 37.552,84.757 37.006,84.757 37.006,84.516 
		37.006,84.469 36.961,84.469 36.19,84.469 36.146,84.469 36.146,84.516 36.146,84.757 34.412,84.757 34.412,84.516 34.412,84.469 
		34.362,84.469 33.596,84.469 33.549,84.469 33.549,84.516 33.549,84.757 33.002,84.757 32.895,84.757 32.85,84.757 32.85,84.801 
		32.85,84.909 32.85,87.379 32.85,87.484 32.85,87.533 32.895,87.533 33.002,87.533 37.552,87.533 37.658,87.533 37.705,87.533 
		37.705,87.484 37.705,87.379 37.705,84.909 37.705,84.801 37.705,84.757 37.658,84.757 	"/>
	<g>
		<polygon style="fill-rule:evenodd;clip-rule:evenodd;fill:#FFFFFF;" points="33.158,85.064 33.158,87.225 37.397,87.225 
			37.397,85.064 33.158,85.064 		"/>
	</g>
	<polygon style="fill-rule:evenodd;clip-rule:evenodd;" points="34.555,85.877 34.555,85.732 34.555,85.686 34.508,85.686 
		33.542,85.686 33.493,85.686 33.493,85.732 33.493,85.877 33.493,85.924 33.542,85.924 34.508,85.924 34.555,85.924 34.555,85.877 
			"/>
	<polygon style="fill-rule:evenodd;clip-rule:evenodd;" points="37.032,85.686 36.704,85.686 36.704,85.378 36.704,85.328 
		36.657,85.328 36.514,85.328 36.465,85.328 36.465,85.378 36.465,85.686 36.118,85.686 36.073,85.686 36.073,85.732 36.073,85.877 
		36.073,85.924 36.118,85.924 36.465,85.924 36.465,86.198 36.465,86.242 36.514,86.242 36.657,86.242 36.704,86.242 36.704,86.198 
		36.704,85.924 37.032,85.924 37.079,85.924 37.079,85.877 37.079,85.732 37.079,85.686 37.032,85.686 	"/>
</g>
<g>
	<polyline points="124.524,46.961 124.524,48.397 122.226,48.397 122.226,50.698 124.524,50.698 124.524,52.131 127.107,49.55 
		124.524,46.961 	"/>
	<polyline points="75.896,47.157 75.896,48.592 78.193,48.592 78.193,50.894 75.896,50.894 75.896,52.325 73.313,49.745 
		75.896,47.157 	"/>
	<g>
		<path style="fill:none;stroke:#000000;stroke-width:0.5;stroke-linecap:round;stroke-linejoin:round;stroke-miterlimit:10;" d="
			M194.79,80.986c0,20.398-17.069,36.937-38.125,36.937c-21.057,0-38.124-16.538-38.124-36.937
			c0-20.396,17.067-36.935,38.124-36.935C177.721,44.052,194.79,60.59,194.79,80.986z"/>
		<path style="fill:none;stroke:#000000;stroke-width:0.5;stroke-linecap:round;stroke-linejoin:round;stroke-miterlimit:10;" d="
			M192.217,80.805c0,19.155-15.931,34.682-35.585,34.682s-35.588-15.526-35.588-34.682c0-19.158,15.934-34.688,35.588-34.688
			S192.217,61.646,192.217,80.805z"/>
		<path style="fill:none;stroke:#000000;stroke-width:0.5;stroke-linecap:round;stroke-linejoin:round;stroke-miterlimit:10;" d="
			M118.541,81.575c-0.271-1.762-0.57-3.739-0.57-5.575c0-16.123,10.667-29.834,25.531-34.87c0,0,2.414,0.159,3.434,0"/>
		<path style="fill:none;stroke:#000000;stroke-width:0.5;stroke-linecap:round;stroke-linejoin:round;stroke-miterlimit:10;" d="
			M194.895,99.009c3.176-5.541,4.972-11.839,4.972-18.519c0-22.163-19.784-40.132-44.186-40.132c-2.963,0-5.859,0.265-8.658,0.771"
			/>
		<path style="fill:none;stroke:#000000;stroke-width:0.5;stroke-linecap:round;stroke-linejoin:round;stroke-miterlimit:10;" d="
			M177.692,115.813c-16.075,7.556-38.25,6.387-50.533-11.434"/>
		<path style="fill:none;stroke:#000000;stroke-width:0.5;stroke-linecap:round;stroke-linejoin:round;stroke-miterlimit:10;" d="
			M194.142,113.78c-1.386,1.407-2.903,2.541-3.805,3.17c-1.811,1.258-5.128,0.581-5.128,0.581l-10.31-2.714
			c0,0,13.532-5.885,18.909-19.277l3.345,10.192c0,0,0.677,3.314-0.584,5.127C195.938,111.765,195.548,112.396,194.142,113.78"/>
		
			<circle style="fill:none;stroke:#000000;stroke-width:0.5;stroke-linecap:round;stroke-linejoin:round;stroke-miterlimit:10;" cx="189.694" cy="109.64" r="2.916"/>
		<path style="fill:#FFFFFF;" d="M149.09,81.575c0,2.513,2.034,4.545,4.544,4.545c2.511,0,4.545-2.032,4.545-4.545
			c0-2.508-2.034-4.545-4.545-4.545C151.124,77.03,149.09,79.067,149.09,81.575"/>
		
			<circle style="fill:none;stroke:#000000;stroke-width:0.5;stroke-linecap:round;stroke-linejoin:round;stroke-miterlimit:10;" cx="153.634" cy="81.575" r="4.544"/>
		
			<circle style="fill:none;stroke:#000000;stroke-width:0.5;stroke-linecap:round;stroke-linejoin:round;stroke-miterlimit:10;" cx="153.636" cy="81.575" r="25.412"/>
		<path style="fill:none;stroke:#000000;stroke-width:0.5;stroke-linecap:round;stroke-linejoin:round;stroke-miterlimit:10;" d="
			M126.421,81.575c0,15.029,12.183,27.214,27.213,27.214c15.031,0,27.214-12.185,27.214-27.214
			c0-15.026-12.183-27.211-27.214-27.211C138.604,54.364,126.421,66.549,126.421,81.575z"/>
		
			<circle style="fill:none;stroke:#000000;stroke-width:0.5;stroke-linecap:round;stroke-linejoin:round;stroke-miterlimit:10;" cx="153.634" cy="81.575" r="30.244"/>
		<path style="fill:none;stroke:#000000;stroke-width:0.5;stroke-linecap:round;stroke-linejoin:round;stroke-miterlimit:10;" d="
			M122.654,81.575c0,17.111,13.87,30.983,30.979,30.983c17.112,0,30.978-13.871,30.978-30.983c0-17.107-13.865-30.979-30.978-30.979
			C136.524,50.596,122.654,64.468,122.654,81.575z"/>
		<path style="fill:#FFFFFF;" d="M154.143,108.489v1.912c0,0.229-0.188,0.42-0.417,0.42h-0.241c-0.232,0-0.417-0.19-0.417-0.42
			v-1.945L154.143,108.489"/>
		<path style="fill:none;stroke:#000000;stroke-width:0.5;stroke-linecap:round;stroke-linejoin:round;stroke-miterlimit:10;" d="
			M154.143,108.489v1.912c0,0.229-0.188,0.42-0.417,0.42h-0.241c-0.232,0-0.417-0.19-0.417-0.42v-1.945L154.143,108.489z"/>
		<path style="fill:#FFFFFF;" d="M141.756,107.661l-0.107-0.05c-0.209-0.095-0.3-0.347-0.202-0.555l1.022-2.193
			c0.096-0.211,0.347-0.298,0.553-0.202l0.105,0.05c0.209,0.096,0.3,0.345,0.204,0.556l-1.02,2.193
			C142.211,107.664,141.962,107.758,141.756,107.661"/>
		<path style="fill:none;stroke:#000000;stroke-width:0.5;stroke-linecap:round;stroke-linejoin:round;stroke-miterlimit:10;" d="
			M141.756,107.661l-0.107-0.05c-0.209-0.095-0.3-0.347-0.202-0.555l1.022-2.193c0.096-0.211,0.347-0.298,0.553-0.202l0.105,0.05
			c0.209,0.096,0.3,0.345,0.204,0.556l-1.02,2.193C142.211,107.664,141.962,107.758,141.756,107.661z"/>
		<path style="fill:#FFFFFF;" d="M131.999,100.375l-0.075-0.091c-0.145-0.174-0.122-0.439,0.054-0.584l1.863-1.55
			c0.174-0.147,0.441-0.122,0.589,0.053l0.072,0.091c0.148,0.177,0.124,0.443-0.054,0.589l-1.861,1.546
			C132.411,100.576,132.145,100.551,131.999,100.375"/>
		<path style="fill:none;stroke:#000000;stroke-width:0.5;stroke-linecap:round;stroke-linejoin:round;stroke-miterlimit:10;" d="
			M131.999,100.375l-0.075-0.091c-0.145-0.174-0.122-0.439,0.054-0.584l1.863-1.55c0.174-0.147,0.441-0.122,0.589,0.053l0.072,0.091
			c0.148,0.177,0.124,0.443-0.054,0.589l-1.861,1.546C132.411,100.576,132.145,100.551,131.999,100.375z"/>
		<path style="fill:#FFFFFF;" d="M126.118,89.634l-0.025-0.116c-0.054-0.224,0.087-0.446,0.31-0.503l2.353-0.565
			c0.226-0.055,0.45,0.084,0.502,0.308l0.028,0.116c0.056,0.223-0.085,0.447-0.309,0.499l-2.354,0.567
			C126.399,89.994,126.173,89.856,126.118,89.634"/>
		<path style="fill:none;stroke:#000000;stroke-width:0.5;stroke-linecap:round;stroke-linejoin:round;stroke-miterlimit:10;" d="
			M126.118,89.634l-0.025-0.116c-0.054-0.224,0.087-0.446,0.31-0.503l2.353-0.565c0.226-0.055,0.45,0.084,0.502,0.308l0.028,0.116
			c0.056,0.223-0.085,0.447-0.309,0.499l-2.354,0.567C126.399,89.994,126.173,89.856,126.118,89.634z"/>
		<path style="fill:#FFFFFF;" d="M125.139,77.601l0.012-0.115c0.03-0.227,0.241-0.391,0.469-0.358l2.4,0.3
			c0.225,0.028,0.394,0.239,0.36,0.467l-0.014,0.116c-0.028,0.229-0.239,0.39-0.467,0.362l-2.399-0.303
			C125.271,78.039,125.11,77.83,125.139,77.601"/>
		<path style="fill:none;stroke:#000000;stroke-width:0.5;stroke-linecap:round;stroke-linejoin:round;stroke-miterlimit:10;" d="
			M125.139,77.601l0.012-0.115c0.03-0.227,0.241-0.391,0.469-0.358l2.4,0.3c0.225,0.028,0.394,0.239,0.36,0.467l-0.014,0.116
			c-0.028,0.229-0.239,0.39-0.467,0.362l-2.399-0.303C125.271,78.039,125.11,77.83,125.139,77.601z"/>
		<path style="fill:#FFFFFF;" d="M129.442,66.211l0.059-0.099c0.112-0.201,0.372-0.271,0.569-0.153l2.095,1.212
			c0.202,0.112,0.27,0.37,0.152,0.567l-0.056,0.101c-0.115,0.2-0.373,0.271-0.569,0.153l-2.098-1.21
			C129.395,66.669,129.329,66.411,129.442,66.211"/>
		<path style="fill:none;stroke:#000000;stroke-width:0.5;stroke-linecap:round;stroke-linejoin:round;stroke-miterlimit:10;" d="
			M129.442,66.211l0.059-0.099c0.112-0.201,0.372-0.271,0.569-0.153l2.095,1.212c0.202,0.112,0.27,0.37,0.152,0.567l-0.056,0.101
			c-0.115,0.2-0.373,0.271-0.569,0.153l-2.098-1.21C129.395,66.669,129.329,66.411,129.442,66.211z"/>
		<path style="fill:#FFFFFF;" d="M138.088,57.396l0.099-0.062c0.197-0.119,0.457-0.058,0.574,0.14l1.259,2.068
			c0.117,0.194,0.054,0.453-0.139,0.574l-0.101,0.061c-0.197,0.119-0.457,0.058-0.574-0.143l-1.259-2.067
			C137.828,57.771,137.892,57.513,138.088,57.396"/>
		<path style="fill:none;stroke:#000000;stroke-width:0.5;stroke-linecap:round;stroke-linejoin:round;stroke-miterlimit:10;" d="
			M138.088,57.396l0.099-0.062c0.197-0.119,0.457-0.058,0.574,0.14l1.259,2.068c0.117,0.194,0.054,0.453-0.139,0.574l-0.101,0.061
			c-0.197,0.119-0.457,0.058-0.574-0.143l-1.259-2.067C137.828,57.771,137.892,57.513,138.088,57.396z"/>
		<path style="fill:#FFFFFF;" d="M149.53,53.197l0.115-0.017c0.227-0.025,0.438,0.14,0.464,0.366l0.281,2.407
			c0.025,0.227-0.139,0.436-0.366,0.461l-0.114,0.017c-0.229,0.023-0.438-0.14-0.464-0.368l-0.281-2.404
			C149.137,53.432,149.303,53.224,149.53,53.197"/>
		<path style="fill:none;stroke:#000000;stroke-width:0.5;stroke-linecap:round;stroke-linejoin:round;stroke-miterlimit:10;" d="
			M149.53,53.197l0.115-0.017c0.227-0.025,0.438,0.14,0.464,0.366l0.281,2.407c0.025,0.227-0.139,0.436-0.366,0.461l-0.114,0.017
			c-0.229,0.023-0.438-0.14-0.464-0.368l-0.281-2.404C149.137,53.432,149.303,53.224,149.53,53.197z"/>
		<path style="fill:#FFFFFF;" d="M161.622,53.977l0.112,0.032c0.218,0.061,0.354,0.295,0.293,0.513l-0.647,2.335
			c-0.066,0.223-0.295,0.352-0.516,0.29l-0.112-0.03c-0.223-0.063-0.352-0.291-0.29-0.516l0.645-2.33
			C161.167,54.051,161.399,53.917,161.622,53.977"/>
		<path style="fill:none;stroke:#000000;stroke-width:0.5;stroke-linecap:round;stroke-linejoin:round;stroke-miterlimit:10;" d="
			M161.622,53.977l0.112,0.032c0.218,0.061,0.354,0.295,0.293,0.513l-0.647,2.335c-0.066,0.223-0.295,0.352-0.516,0.29l-0.112-0.03
			c-0.223-0.063-0.352-0.291-0.29-0.516l0.645-2.33C161.167,54.051,161.399,53.917,161.622,53.977z"/>
		<path style="fill:#FFFFFF;" d="M172.358,59.905l0.084,0.08c0.172,0.156,0.184,0.422,0.028,0.592l-1.636,1.781
			c-0.154,0.172-0.42,0.182-0.591,0.025l-0.084-0.075c-0.169-0.157-0.183-0.424-0.026-0.593l1.634-1.784
			C171.927,59.763,172.189,59.751,172.358,59.905"/>
		<path style="fill:none;stroke:#000000;stroke-width:0.5;stroke-linecap:round;stroke-linejoin:round;stroke-miterlimit:10;" d="
			M172.358,59.905l0.084,0.08c0.172,0.156,0.184,0.422,0.028,0.592l-1.636,1.781c-0.154,0.172-0.42,0.182-0.591,0.025l-0.084-0.075
			c-0.169-0.157-0.183-0.424-0.026-0.593l1.634-1.784C171.927,59.763,172.189,59.751,172.358,59.905z"/>
		<path style="fill:#FFFFFF;" d="M179.638,69.61l0.045,0.108c0.092,0.211-0.012,0.458-0.223,0.548l-2.229,0.94
			c-0.214,0.087-0.46-0.012-0.547-0.223l-0.047-0.11c-0.089-0.211,0.015-0.458,0.223-0.546l2.231-0.938
			C179.303,69.297,179.549,69.399,179.638,69.61"/>
		<path style="fill:none;stroke:#000000;stroke-width:0.5;stroke-linecap:round;stroke-linejoin:round;stroke-miterlimit:10;" d="
			M179.638,69.61l0.045,0.108c0.092,0.211-0.012,0.458-0.223,0.548l-2.229,0.94c-0.214,0.087-0.46-0.012-0.547-0.223l-0.047-0.11
			c-0.089-0.211,0.015-0.458,0.223-0.546l2.231-0.938C179.303,69.297,179.549,69.399,179.638,69.61z"/>
		<path style="fill:#FFFFFF;" d="M182.272,81.55l-0.005,0.116c-0.009,0.23-0.199,0.411-0.431,0.404l-2.419-0.075
			c-0.23-0.006-0.41-0.199-0.403-0.432v-0.112c0.01-0.229,0.204-0.412,0.432-0.407l2.418,0.074
			C182.097,81.126,182.277,81.32,182.272,81.55"/>
		<path style="fill:none;stroke:#000000;stroke-width:0.5;stroke-linecap:round;stroke-linejoin:round;stroke-miterlimit:10;" d="
			M182.272,81.55l-0.005,0.116c-0.009,0.23-0.199,0.411-0.431,0.404l-2.419-0.075c-0.23-0.006-0.41-0.199-0.403-0.432v-0.112
			c0.01-0.229,0.204-0.412,0.432-0.407l2.418,0.074C182.097,81.126,182.277,81.32,182.272,81.55z"/>
		<path style="fill:none;stroke:#000000;stroke-width:0.5;stroke-linecap:round;stroke-linejoin:round;stroke-miterlimit:10;" d="
			M181.879,75.833l-0.607,0.09c-0.091,0.014-0.176-0.05-0.185-0.135c-0.015-0.091,0.047-0.175,0.138-0.189l0.605-0.091
			c0.09-0.015,0.174,0.049,0.188,0.138C182.028,75.736,181.968,75.815,181.879,75.833z"/>
		<path style="fill:none;stroke:#000000;stroke-width:0.5;stroke-linecap:round;stroke-linejoin:round;stroke-miterlimit:10;" d="
			M176.952,64.633l-0.516,0.335c-0.075,0.048-0.178,0.028-0.227-0.047c-0.049-0.077-0.028-0.178,0.05-0.229l0.513-0.336
			c0.077-0.05,0.179-0.026,0.227,0.049C177.051,64.482,177.027,64.586,176.952,64.633z"/>
		<path style="fill:none;stroke:#000000;stroke-width:0.5;stroke-linecap:round;stroke-linejoin:round;stroke-miterlimit:10;" d="
			M167.793,56.587l-0.256,0.558c-0.037,0.081-0.138,0.117-0.218,0.079c-0.08-0.039-0.117-0.136-0.08-0.218l0.258-0.558
			c0.038-0.084,0.137-0.117,0.216-0.077C167.798,56.406,167.83,56.502,167.793,56.587z"/>
		<path style="fill:none;stroke:#000000;stroke-width:0.5;stroke-linecap:round;stroke-linejoin:round;stroke-miterlimit:10;" d="
			M156.104,53.148l-0.023,0.614c-0.007,0.091-0.082,0.159-0.174,0.154c-0.089-0.002-0.159-0.08-0.156-0.171l0.027-0.613
			c0.005-0.088,0.082-0.16,0.169-0.155C156.039,52.984,156.111,53.06,156.104,53.148z"/>
		<path style="fill:none;stroke:#000000;stroke-width:0.5;stroke-linecap:round;stroke-linejoin:round;stroke-miterlimit:10;" d="
			M143.997,54.81l0.176,0.589c0.024,0.088-0.023,0.178-0.11,0.206c-0.087,0.023-0.176-0.028-0.204-0.112l-0.178-0.587
			c-0.026-0.088,0.025-0.18,0.112-0.205C143.88,54.674,143.971,54.724,143.997,54.81z"/>
		<path style="fill:none;stroke:#000000;stroke-width:0.5;stroke-linecap:round;stroke-linejoin:round;stroke-miterlimit:10;" d="
			M133.595,61.225l0.408,0.462c0.057,0.07,0.052,0.171-0.017,0.229c-0.07,0.063-0.173,0.054-0.23-0.014l-0.405-0.464
			c-0.062-0.066-0.054-0.172,0.012-0.23C133.436,61.148,133.536,61.157,133.595,61.225z"/>
		<path style="fill:none;stroke:#000000;stroke-width:0.5;stroke-linecap:round;stroke-linejoin:round;stroke-miterlimit:10;" d="
			M126.943,71.495l0.574,0.219c0.085,0.034,0.129,0.128,0.097,0.213c-0.033,0.084-0.129,0.126-0.214,0.096l-0.571-0.221
			c-0.085-0.032-0.127-0.126-0.097-0.211C126.763,71.505,126.859,71.462,126.943,71.495z"/>
		<path style="fill:none;stroke:#000000;stroke-width:0.5;stroke-linecap:round;stroke-linejoin:round;stroke-miterlimit:10;" d="
			M125.048,83.49l0.616-0.002c0.089,0,0.161,0.072,0.166,0.164c0,0.089-0.077,0.164-0.166,0.164h-0.614
			c-0.089,0.001-0.164-0.074-0.164-0.162C124.886,83.561,124.958,83.49,125.048,83.49z"/>
		<path style="fill:none;stroke:#000000;stroke-width:0.5;stroke-linecap:round;stroke-linejoin:round;stroke-miterlimit:10;" d="
			M128.45,95.208l0.561-0.257c0.082-0.035,0.181,0,0.218,0.085c0.035,0.082,0,0.18-0.084,0.214l-0.558,0.259
			c-0.08,0.037-0.179,0-0.216-0.082C128.333,95.345,128.371,95.247,128.45,95.208z"/>
		<path style="fill:none;stroke:#000000;stroke-width:0.5;stroke-linecap:round;stroke-linejoin:round;stroke-miterlimit:10;" d="
			M136.382,104.507l0.4-0.468c0.061-0.064,0.162-0.073,0.232-0.014c0.065,0.056,0.072,0.163,0.014,0.23l-0.398,0.464
			c-0.061,0.068-0.168,0.075-0.234,0.015C136.33,104.677,136.321,104.573,136.382,104.507z"/>
		<path style="fill:none;stroke:#000000;stroke-width:0.5;stroke-linecap:round;stroke-linejoin:round;stroke-miterlimit:10;" d="
			M147.587,109.785l0.05-0.612c0.009-0.089,0.087-0.155,0.178-0.147c0.089,0.01,0.157,0.087,0.15,0.175l-0.052,0.613
			c-0.005,0.09-0.084,0.154-0.176,0.152C147.645,109.956,147.58,109.874,147.587,109.785z"/>
		
			<line style="fill:none;stroke:#000000;stroke-width:0.5;stroke-linecap:round;stroke-linejoin:round;stroke-miterlimit:10;" x1="153.622" y1="107.091" x2="153.61" y2="108.44"/>
		
			<line style="fill:none;stroke:#000000;stroke-width:0.5;stroke-linecap:round;stroke-linejoin:round;stroke-miterlimit:10;" x1="152.53" y1="107.067" x2="152.465" y2="108.416"/>
		
			<line style="fill:none;stroke:#000000;stroke-width:0.5;stroke-linecap:round;stroke-linejoin:round;stroke-miterlimit:10;" x1="151.44" y1="106.996" x2="151.316" y2="108.343"/>
		
			<line style="fill:none;stroke:#000000;stroke-width:0.5;stroke-linecap:round;stroke-linejoin:round;stroke-miterlimit:10;" x1="150.355" y1="106.88" x2="150.173" y2="108.22"/>
		
			<line style="fill:none;stroke:#000000;stroke-width:0.5;stroke-linecap:round;stroke-linejoin:round;stroke-miterlimit:10;" x1="149.274" y1="106.717" x2="149.033" y2="108.047"/>
		
			<line style="fill:none;stroke:#000000;stroke-width:0.5;stroke-linecap:round;stroke-linejoin:round;stroke-miterlimit:10;" x1="148.201" y1="106.509" x2="147.903" y2="107.827"/>
		
			<line style="fill:none;stroke:#000000;stroke-width:0.5;stroke-linecap:round;stroke-linejoin:round;stroke-miterlimit:10;" x1="147.14" y1="106.253" x2="146.786" y2="107.559"/>
		
			<line style="fill:none;stroke:#000000;stroke-width:0.5;stroke-linecap:round;stroke-linejoin:round;stroke-miterlimit:10;" x1="146.09" y1="105.955" x2="145.682" y2="107.242"/>
		
			<line style="fill:none;stroke:#000000;stroke-width:0.5;stroke-linecap:round;stroke-linejoin:round;stroke-miterlimit:10;" x1="145.054" y1="105.608" x2="144.59" y2="106.876"/>
		
			<line style="fill:none;stroke:#000000;stroke-width:0.5;stroke-linecap:round;stroke-linejoin:round;stroke-miterlimit:10;" x1="144.032" y1="105.221" x2="143.514" y2="106.468"/>
		
			<line style="fill:none;stroke:#000000;stroke-width:0.5;stroke-linecap:round;stroke-linejoin:round;stroke-miterlimit:10;" x1="142.042" y1="104.313" x2="141.423" y2="105.511"/>
		
			<line style="fill:none;stroke:#000000;stroke-width:0.5;stroke-linecap:round;stroke-linejoin:round;stroke-miterlimit:10;" x1="141.083" y1="103.797" x2="140.408" y2="104.968"/>
		
			<line style="fill:none;stroke:#000000;stroke-width:0.5;stroke-linecap:round;stroke-linejoin:round;stroke-miterlimit:10;" x1="140.145" y1="103.237" x2="139.422" y2="104.383"/>
		
			<line style="fill:none;stroke:#000000;stroke-width:0.5;stroke-linecap:round;stroke-linejoin:round;stroke-miterlimit:10;" x1="139.227" y1="102.643" x2="138.458" y2="103.752"/>
		
			<line style="fill:none;stroke:#000000;stroke-width:0.5;stroke-linecap:round;stroke-linejoin:round;stroke-miterlimit:10;" x1="138.339" y1="102.006" x2="137.52" y2="103.082"/>
		
			<line style="fill:none;stroke:#000000;stroke-width:0.5;stroke-linecap:round;stroke-linejoin:round;stroke-miterlimit:10;" x1="137.479" y1="101.333" x2="136.614" y2="102.372"/>
		
			<line style="fill:none;stroke:#000000;stroke-width:0.5;stroke-linecap:round;stroke-linejoin:round;stroke-miterlimit:10;" x1="136.646" y1="100.626" x2="135.739" y2="101.624"/>
		
			<line style="fill:none;stroke:#000000;stroke-width:0.5;stroke-linecap:round;stroke-linejoin:round;stroke-miterlimit:10;" x1="135.848" y1="99.88" x2="134.9" y2="100.844"/>
		
			<line style="fill:none;stroke:#000000;stroke-width:0.5;stroke-linecap:round;stroke-linejoin:round;stroke-miterlimit:10;" x1="135.079" y1="99.104" x2="134.095" y2="100.025"/>
		
			<line style="fill:none;stroke:#000000;stroke-width:0.5;stroke-linecap:round;stroke-linejoin:round;stroke-miterlimit:10;" x1="133.649" y1="97.45" x2="132.585" y2="98.286"/>
		
			<line style="fill:none;stroke:#000000;stroke-width:0.5;stroke-linecap:round;stroke-linejoin:round;stroke-miterlimit:10;" x1="132.988" y1="96.583" x2="131.889" y2="97.37"/>
		
			<line style="fill:none;stroke:#000000;stroke-width:0.5;stroke-linecap:round;stroke-linejoin:round;stroke-miterlimit:10;" x1="132.367" y1="95.687" x2="131.232" y2="96.426"/>
		
			<line style="fill:none;stroke:#000000;stroke-width:0.5;stroke-linecap:round;stroke-linejoin:round;stroke-miterlimit:10;" x1="131.781" y1="94.762" x2="130.618" y2="95.453"/>
		
			<line style="fill:none;stroke:#000000;stroke-width:0.5;stroke-linecap:round;stroke-linejoin:round;stroke-miterlimit:10;" x1="131.237" y1="93.815" x2="130.044" y2="94.454"/>
		
			<line style="fill:none;stroke:#000000;stroke-width:0.5;stroke-linecap:round;stroke-linejoin:round;stroke-miterlimit:10;" x1="130.731" y1="92.846" x2="129.517" y2="93.433"/>
		
			<line style="fill:none;stroke:#000000;stroke-width:0.5;stroke-linecap:round;stroke-linejoin:round;stroke-miterlimit:10;" x1="130.27" y1="91.855" x2="129.032" y2="92.392"/>
		
			<line style="fill:none;stroke:#000000;stroke-width:0.5;stroke-linecap:round;stroke-linejoin:round;stroke-miterlimit:10;" x1="129.852" y1="90.845" x2="128.591" y2="91.33"/>
		
			<line style="fill:none;stroke:#000000;stroke-width:0.5;stroke-linecap:round;stroke-linejoin:round;stroke-miterlimit:10;" x1="129.477" y1="89.821" x2="128.195" y2="90.247"/>
		
			<line style="fill:none;stroke:#000000;stroke-width:0.5;stroke-linecap:round;stroke-linejoin:round;stroke-miterlimit:10;" x1="128.863" y1="87.726" x2="127.548" y2="88.04"/>
		
			<line style="fill:none;stroke:#000000;stroke-width:0.5;stroke-linecap:round;stroke-linejoin:round;stroke-miterlimit:10;" x1="128.619" y1="86.658" x2="127.295" y2="86.919"/>
		
			<line style="fill:none;stroke:#000000;stroke-width:0.5;stroke-linecap:round;stroke-linejoin:round;stroke-miterlimit:10;" x1="128.425" y1="85.583" x2="127.091" y2="85.786"/>
		
			<line style="fill:none;stroke:#000000;stroke-width:0.5;stroke-linecap:round;stroke-linejoin:round;stroke-miterlimit:10;" x1="128.277" y1="84.501" x2="126.932" y2="84.647"/>
		
			<line style="fill:none;stroke:#000000;stroke-width:0.5;stroke-linecap:round;stroke-linejoin:round;stroke-miterlimit:10;" x1="128.177" y1="83.414" x2="126.829" y2="83.5"/>
		
			<line style="fill:none;stroke:#000000;stroke-width:0.5;stroke-linecap:round;stroke-linejoin:round;stroke-miterlimit:10;" x1="128.122" y1="82.323" x2="126.771" y2="82.352"/>
		
			<line style="fill:none;stroke:#000000;stroke-width:0.5;stroke-linecap:round;stroke-linejoin:round;stroke-miterlimit:10;" x1="128.113" y1="81.229" x2="126.763" y2="81.202"/>
		
			<line style="fill:none;stroke:#000000;stroke-width:0.5;stroke-linecap:round;stroke-linejoin:round;stroke-miterlimit:10;" x1="128.15" y1="80.142" x2="126.803" y2="80.055"/>
		
			<line style="fill:none;stroke:#000000;stroke-width:0.5;stroke-linecap:round;stroke-linejoin:round;stroke-miterlimit:10;" x1="128.237" y1="79.05" x2="126.894" y2="78.905"/>
		
			<line style="fill:none;stroke:#000000;stroke-width:0.5;stroke-linecap:round;stroke-linejoin:round;stroke-miterlimit:10;" x1="128.547" y1="76.888" x2="127.22" y2="76.628"/>
		
			<line style="fill:none;stroke:#000000;stroke-width:0.5;stroke-linecap:round;stroke-linejoin:round;stroke-miterlimit:10;" x1="128.77" y1="75.821" x2="127.457" y2="75.507"/>
		
			<line style="fill:none;stroke:#000000;stroke-width:0.5;stroke-linecap:round;stroke-linejoin:round;stroke-miterlimit:10;" x1="129.041" y1="74.76" x2="127.74" y2="74.39"/>
		
			<line style="fill:none;stroke:#000000;stroke-width:0.5;stroke-linecap:round;stroke-linejoin:round;stroke-miterlimit:10;" x1="129.352" y1="73.715" x2="128.075" y2="73.288"/>
		
			<line style="fill:none;stroke:#000000;stroke-width:0.5;stroke-linecap:round;stroke-linejoin:round;stroke-miterlimit:10;" x1="129.714" y1="72.684" x2="128.45" y2="72.2"/>
		
			<line style="fill:none;stroke:#000000;stroke-width:0.5;stroke-linecap:round;stroke-linejoin:round;stroke-miterlimit:10;" x1="130.117" y1="71.667" x2="128.875" y2="71.13"/>
		
			<line style="fill:none;stroke:#000000;stroke-width:0.5;stroke-linecap:round;stroke-linejoin:round;stroke-miterlimit:10;" x1="130.56" y1="70.67" x2="129.346" y2="70.082"/>
		
			<line style="fill:none;stroke:#000000;stroke-width:0.5;stroke-linecap:round;stroke-linejoin:round;stroke-miterlimit:10;" x1="131.05" y1="69.69" x2="129.859" y2="69.052"/>
		
			<line style="fill:none;stroke:#000000;stroke-width:0.5;stroke-linecap:round;stroke-linejoin:round;stroke-miterlimit:10;" x1="131.582" y1="68.734" x2="130.419" y2="68.048"/>
		
			<line style="fill:none;stroke:#000000;stroke-width:0.5;stroke-linecap:round;stroke-linejoin:round;stroke-miterlimit:10;" x1="132.761" y1="66.896" x2="131.661" y2="66.112"/>
		
			<line style="fill:none;stroke:#000000;stroke-width:0.5;stroke-linecap:round;stroke-linejoin:round;stroke-miterlimit:10;" x1="133.41" y1="66.018" x2="132.341" y2="65.185"/>
		
			<line style="fill:none;stroke:#000000;stroke-width:0.5;stroke-linecap:round;stroke-linejoin:round;stroke-miterlimit:10;" x1="134.095" y1="65.167" x2="133.063" y2="64.29"/>
		
			<line style="fill:none;stroke:#000000;stroke-width:0.5;stroke-linecap:round;stroke-linejoin:round;stroke-miterlimit:10;" x1="134.816" y1="64.347" x2="133.825" y2="63.427"/>
		
			<line style="fill:none;stroke:#000000;stroke-width:0.5;stroke-linecap:round;stroke-linejoin:round;stroke-miterlimit:10;" x1="135.568" y1="63.558" x2="134.619" y2="62.594"/>
		
			<line style="fill:none;stroke:#000000;stroke-width:0.5;stroke-linecap:round;stroke-linejoin:round;stroke-miterlimit:10;" x1="136.358" y1="62.8" x2="135.449" y2="61.799"/>
		
			<line style="fill:none;stroke:#000000;stroke-width:0.5;stroke-linecap:round;stroke-linejoin:round;stroke-miterlimit:10;" x1="137.177" y1="62.08" x2="136.313" y2="61.04"/>
		
			<line style="fill:none;stroke:#000000;stroke-width:0.5;stroke-linecap:round;stroke-linejoin:round;stroke-miterlimit:10;" x1="138.024" y1="61.393" x2="137.212" y2="60.315"/>
		
			<line style="fill:none;stroke:#000000;stroke-width:0.5;stroke-linecap:round;stroke-linejoin:round;stroke-miterlimit:10;" x1="138.908" y1="60.747" x2="138.133" y2="59.634"/>
		
			<line style="fill:none;stroke:#000000;stroke-width:0.5;stroke-linecap:round;stroke-linejoin:round;stroke-miterlimit:10;" x1="140.741" y1="59.563" x2="140.068" y2="58.392"/>
		
			<line style="fill:none;stroke:#000000;stroke-width:0.5;stroke-linecap:round;stroke-linejoin:round;stroke-miterlimit:10;" x1="141.697" y1="59.031" x2="141.074" y2="57.83"/>
		
			<line style="fill:none;stroke:#000000;stroke-width:0.5;stroke-linecap:round;stroke-linejoin:round;stroke-miterlimit:10;" x1="142.673" y1="58.541" x2="142.102" y2="57.315"/>
		
			<line style="fill:none;stroke:#000000;stroke-width:0.5;stroke-linecap:round;stroke-linejoin:round;stroke-miterlimit:10;" x1="143.669" y1="58.094" x2="143.15" y2="56.845"/>
		
			<line style="fill:none;stroke:#000000;stroke-width:0.5;stroke-linecap:round;stroke-linejoin:round;stroke-miterlimit:10;" x1="144.684" y1="57.689" x2="144.22" y2="56.42"/>
		
			<line style="fill:none;stroke:#000000;stroke-width:0.5;stroke-linecap:round;stroke-linejoin:round;stroke-miterlimit:10;" x1="145.715" y1="57.327" x2="145.31" y2="56.04"/>
		
			<line style="fill:none;stroke:#000000;stroke-width:0.5;stroke-linecap:round;stroke-linejoin:round;stroke-miterlimit:10;" x1="146.76" y1="57.011" x2="146.408" y2="55.708"/>
		
			<line style="fill:none;stroke:#000000;stroke-width:0.5;stroke-linecap:round;stroke-linejoin:round;stroke-miterlimit:10;" x1="147.824" y1="56.739" x2="147.521" y2="55.422"/>
		
			<line style="fill:none;stroke:#000000;stroke-width:0.5;stroke-linecap:round;stroke-linejoin:round;stroke-miterlimit:10;" x1="148.888" y1="56.517" x2="148.649" y2="55.187"/>
		
			<line style="fill:none;stroke:#000000;stroke-width:0.5;stroke-linecap:round;stroke-linejoin:round;stroke-miterlimit:10;" x1="151.052" y1="56.202" x2="150.925" y2="54.856"/>
		
			<line style="fill:none;stroke:#000000;stroke-width:0.5;stroke-linecap:round;stroke-linejoin:round;stroke-miterlimit:10;" x1="152.139" y1="56.115" x2="152.071" y2="54.768"/>
		
			<line style="fill:none;stroke:#000000;stroke-width:0.5;stroke-linecap:round;stroke-linejoin:round;stroke-miterlimit:10;" x1="153.231" y1="56.077" x2="153.224" y2="54.726"/>
		
			<line style="fill:none;stroke:#000000;stroke-width:0.5;stroke-linecap:round;stroke-linejoin:round;stroke-miterlimit:10;" x1="154.325" y1="56.083" x2="154.37" y2="54.732"/>
		
			<line style="fill:none;stroke:#000000;stroke-width:0.5;stroke-linecap:round;stroke-linejoin:round;stroke-miterlimit:10;" x1="155.415" y1="56.134" x2="155.52" y2="54.789"/>
		
			<line style="fill:none;stroke:#000000;stroke-width:0.5;stroke-linecap:round;stroke-linejoin:round;stroke-miterlimit:10;" x1="156.503" y1="56.237" x2="156.665" y2="54.896"/>
		
			<line style="fill:none;stroke:#000000;stroke-width:0.5;stroke-linecap:round;stroke-linejoin:round;stroke-miterlimit:10;" x1="157.583" y1="56.383" x2="157.804" y2="55.052"/>
		
			<line style="fill:none;stroke:#000000;stroke-width:0.5;stroke-linecap:round;stroke-linejoin:round;stroke-miterlimit:10;" x1="158.661" y1="56.575" x2="158.938" y2="55.255"/>
		
			<line style="fill:none;stroke:#000000;stroke-width:0.5;stroke-linecap:round;stroke-linejoin:round;stroke-miterlimit:10;" x1="159.726" y1="56.816" x2="160.059" y2="55.505"/>
		
			<line style="fill:none;stroke:#000000;stroke-width:0.5;stroke-linecap:round;stroke-linejoin:round;stroke-miterlimit:10;" x1="161.823" y1="57.428" x2="162.268" y2="56.153"/>
		
			<line style="fill:none;stroke:#000000;stroke-width:0.5;stroke-linecap:round;stroke-linejoin:round;stroke-miterlimit:10;" x1="162.85" y1="57.802" x2="163.349" y2="56.549"/>
		
			<line style="fill:none;stroke:#000000;stroke-width:0.5;stroke-linecap:round;stroke-linejoin:round;stroke-miterlimit:10;" x1="163.86" y1="58.218" x2="164.411" y2="56.986"/>
		
			<line style="fill:none;stroke:#000000;stroke-width:0.5;stroke-linecap:round;stroke-linejoin:round;stroke-miterlimit:10;" x1="164.852" y1="58.68" x2="165.456" y2="57.473"/>
		
			<line style="fill:none;stroke:#000000;stroke-width:0.5;stroke-linecap:round;stroke-linejoin:round;stroke-miterlimit:10;" x1="165.819" y1="59.18" x2="166.476" y2="57.999"/>
		
			<line style="fill:none;stroke:#000000;stroke-width:0.5;stroke-linecap:round;stroke-linejoin:round;stroke-miterlimit:10;" x1="166.768" y1="59.724" x2="167.474" y2="58.571"/>
		
			<line style="fill:none;stroke:#000000;stroke-width:0.5;stroke-linecap:round;stroke-linejoin:round;stroke-miterlimit:10;" x1="167.692" y1="60.309" x2="168.446" y2="59.188"/>
		
			<line style="fill:none;stroke:#000000;stroke-width:0.5;stroke-linecap:round;stroke-linejoin:round;stroke-miterlimit:10;" x1="168.59" y1="60.93" x2="169.392" y2="59.842"/>
		
			<line style="fill:none;stroke:#000000;stroke-width:0.5;stroke-linecap:round;stroke-linejoin:round;stroke-miterlimit:10;" x1="169.459" y1="61.591" x2="170.308" y2="60.538"/>
		
			<line style="fill:none;stroke:#000000;stroke-width:0.5;stroke-linecap:round;stroke-linejoin:round;stroke-miterlimit:10;" x1="171.111" y1="63.018" x2="172.047" y2="62.043"/>
		
			<line style="fill:none;stroke:#000000;stroke-width:0.5;stroke-linecap:round;stroke-linejoin:round;stroke-miterlimit:10;" x1="171.892" y1="63.784" x2="172.864" y2="62.849"/>
		
			<line style="fill:none;stroke:#000000;stroke-width:0.5;stroke-linecap:round;stroke-linejoin:round;stroke-miterlimit:10;" x1="172.635" y1="64.586" x2="173.652" y2="63.69"/>
		
			<line style="fill:none;stroke:#000000;stroke-width:0.5;stroke-linecap:round;stroke-linejoin:round;stroke-miterlimit:10;" x1="173.35" y1="65.414" x2="174.402" y2="64.563"/>
		
			<line style="fill:none;stroke:#000000;stroke-width:0.5;stroke-linecap:round;stroke-linejoin:round;stroke-miterlimit:10;" x1="174.02" y1="66.275" x2="175.11" y2="65.47"/>
		
			<line style="fill:none;stroke:#000000;stroke-width:0.5;stroke-linecap:round;stroke-linejoin:round;stroke-miterlimit:10;" x1="174.655" y1="67.161" x2="175.78" y2="66.404"/>
		
			<line style="fill:none;stroke:#000000;stroke-width:0.5;stroke-linecap:round;stroke-linejoin:round;stroke-miterlimit:10;" x1="175.258" y1="68.075" x2="176.408" y2="67.368"/>
		
			<line style="fill:none;stroke:#000000;stroke-width:0.5;stroke-linecap:round;stroke-linejoin:round;stroke-miterlimit:10;" x1="175.815" y1="69.016" x2="176.997" y2="68.356"/>
		
			<line style="fill:none;stroke:#000000;stroke-width:0.5;stroke-linecap:round;stroke-linejoin:round;stroke-miterlimit:10;" x1="176.333" y1="69.977" x2="177.543" y2="69.37"/>
		
			<line style="fill:none;stroke:#000000;stroke-width:0.5;stroke-linecap:round;stroke-linejoin:round;stroke-miterlimit:10;" x1="177.243" y1="71.963" x2="178.499" y2="71.462"/>
		
			<line style="fill:none;stroke:#000000;stroke-width:0.5;stroke-linecap:round;stroke-linejoin:round;stroke-miterlimit:10;" x1="177.637" y1="72.981" x2="178.909" y2="72.536"/>
		
			<line style="fill:none;stroke:#000000;stroke-width:0.5;stroke-linecap:round;stroke-linejoin:round;stroke-miterlimit:10;" x1="177.981" y1="74.017" x2="179.272" y2="73.626"/>
		
			<line style="fill:none;stroke:#000000;stroke-width:0.5;stroke-linecap:round;stroke-linejoin:round;stroke-miterlimit:10;" x1="178.278" y1="75.067" x2="179.589" y2="74.731"/>
		
			<line style="fill:none;stroke:#000000;stroke-width:0.5;stroke-linecap:round;stroke-linejoin:round;stroke-miterlimit:10;" x1="178.536" y1="76.13" x2="179.858" y2="75.85"/>
		
			<line style="fill:none;stroke:#000000;stroke-width:0.5;stroke-linecap:round;stroke-linejoin:round;stroke-miterlimit:10;" x1="178.75" y1="77.202" x2="180.083" y2="76.978"/>
		
			<line style="fill:none;stroke:#000000;stroke-width:0.5;stroke-linecap:round;stroke-linejoin:round;stroke-miterlimit:10;" x1="178.911" y1="78.282" x2="180.252" y2="78.116"/>
		
			<line style="fill:none;stroke:#000000;stroke-width:0.5;stroke-linecap:round;stroke-linejoin:round;stroke-miterlimit:10;" x1="179.031" y1="79.365" x2="180.376" y2="79.26"/>
		
			<line style="fill:none;stroke:#000000;stroke-width:0.5;stroke-linecap:round;stroke-linejoin:round;stroke-miterlimit:10;" x1="179.099" y1="80.456" x2="180.454" y2="80.408"/>
		
			<ellipse style="fill:none;stroke:#000000;stroke-width:0.5;stroke-linecap:round;stroke-linejoin:round;stroke-miterlimit:10;" cx="43.456" cy="81.132" rx="38.125" ry="36.933"/>
		
			<ellipse style="fill:none;stroke:#000000;stroke-width:0.5;stroke-linecap:round;stroke-linejoin:round;stroke-miterlimit:10;" cx="43.487" cy="80.948" rx="35.586" ry="34.685"/>
		<path style="fill:none;stroke:#000000;stroke-width:0.5;stroke-linecap:round;stroke-linejoin:round;stroke-miterlimit:10;" d="
			M81.581,81.721c0.267-1.763,0.565-3.74,0.565-5.575c0-16.122-10.665-29.833-25.53-34.873c0,0-2.412,0.162-3.436,0"/>
		<path style="fill:none;stroke:#000000;stroke-width:0.5;stroke-linecap:round;stroke-linejoin:round;stroke-miterlimit:10;" d="
			M5.226,99.153c-3.18-5.54-4.976-11.84-4.976-18.518c0-22.165,19.783-40.132,44.188-40.132c2.963,0,5.858,0.265,8.658,0.769"/>
		<path style="fill:none;stroke:#000000;stroke-width:0.5;stroke-linecap:round;stroke-linejoin:round;stroke-miterlimit:10;" d="
			M22.427,115.956c16.073,7.555,38.247,6.389,50.532-11.433"/>
		<path style="fill:none;stroke:#000000;stroke-width:0.5;stroke-linecap:round;stroke-linejoin:round;stroke-miterlimit:10;" d="
			M5.977,113.925c1.388,1.41,2.901,2.54,3.803,3.168c1.814,1.259,5.131,0.584,5.131,0.584l10.309-2.717
			c0,0-13.535-5.883-18.909-19.273l-3.343,10.187c0,0-0.677,3.321,0.583,5.133C4.179,111.911,4.57,112.541,5.977,113.925"/>
		
			<circle style="fill:none;stroke:#000000;stroke-width:0.5;stroke-linecap:round;stroke-linejoin:round;stroke-miterlimit:10;" cx="10.426" cy="109.785" r="2.917"/>
		
			<circle style="fill:none;stroke:#000000;stroke-width:0.5;stroke-linecap:round;stroke-linejoin:round;stroke-miterlimit:10;" cx="46.485" cy="81.721" r="4.545"/>
		
			<circle style="fill:none;stroke:#000000;stroke-width:0.5;stroke-linecap:round;stroke-linejoin:round;stroke-miterlimit:10;" cx="46.486" cy="81.721" r="25.41"/>
		<path d="M60.842,59.188c7.713,4.759,12.603,12.888,12.603,21.941c0,0.271-0.507,0.606-0.776,0.606
			c-0.271,0-0.491-0.22-0.491-0.489c0-8.711-4.431-16.643-11.85-21.224L60.842,59.188"/>
		<path style="fill:none;stroke:#000000;stroke-width:0.5;stroke-miterlimit:10;" d="M60.842,59.188
			c7.713,4.759,12.317,13.004,12.317,22.059c0,0.27-0.222,0.489-0.491,0.489c-0.271,0-0.491-0.22-0.491-0.489
			c0-8.711-4.431-16.643-11.85-21.224L60.842,59.188z"/>
		
			<circle style="fill:none;stroke:#000000;stroke-width:0.5;stroke-linecap:round;stroke-linejoin:round;stroke-miterlimit:10;" cx="46.485" cy="81.721" r="27.21"/>
		
			<circle style="fill:none;stroke:#000000;stroke-width:0.5;stroke-linecap:round;stroke-linejoin:round;stroke-miterlimit:10;" cx="46.485" cy="81.721" r="30.243"/>
		
			<circle style="fill:none;stroke:#000000;stroke-width:0.5;stroke-linecap:round;stroke-linejoin:round;stroke-miterlimit:10;" cx="46.484" cy="81.721" r="30.979"/>
		<path style="fill:none;stroke:#000000;stroke-width:0.5;stroke-linecap:round;stroke-linejoin:round;stroke-miterlimit:10;" d="
			M64.133,113.57c12.323-1.647,36.476-1.608,36.476-1.608h0.141c0,0,23.119-0.039,35.445,1.608"/>
		
			<line style="fill:none;stroke:#000000;stroke-width:0.5;stroke-linecap:round;stroke-linejoin:round;stroke-miterlimit:10;" x1="75.186" y1="54.69" x2="124.886" y2="54.69"/>
		
			<line style="fill:none;stroke:#000000;stroke-width:0.5;stroke-linecap:round;stroke-linejoin:round;stroke-miterlimit:10;" x1="67.889" y1="110.472" x2="132.386" y2="110.472"/>
		<path style="fill:none;stroke:#000000;stroke-width:0.5;stroke-linecap:round;stroke-linejoin:round;stroke-miterlimit:10;" d="
			M131.985,110.095c0,0-19.537-0.917-31.822-0.917c-14.158,0-31.714,0.75-31.714,0.75"/>
		
			<line style="fill:none;stroke:#000000;stroke-width:0.5;stroke-linecap:round;stroke-linejoin:round;stroke-miterlimit:10;" x1="84.672" y1="109.396" x2="84.672" y2="54.69"/>
		
			<line style="fill:none;stroke:#000000;stroke-width:0.5;stroke-linecap:round;stroke-linejoin:round;stroke-miterlimit:10;" x1="115.756" y1="54.69" x2="115.756" y2="109.453"/>
		<path style="fill:#FFFFFF;" d="M75.58,81.661v0.117c0,0.23-0.188,0.418-0.416,0.418h-2.677c-0.23,0-0.419-0.188-0.419-0.418
			v-0.117c0-0.228,0.189-0.414,0.419-0.414h2.677C75.393,81.247,75.58,81.433,75.58,81.661"/>
		<path style="fill:none;stroke:#000000;stroke-width:0.5;stroke-linecap:round;stroke-linejoin:round;stroke-miterlimit:10;" d="
			M75.58,81.661v0.117c0,0.23-0.188,0.418-0.416,0.418h-2.677c-0.23,0-0.419-0.188-0.419-0.418v-0.117
			c0-0.228,0.189-0.414,0.419-0.414h2.677C75.393,81.247,75.58,81.433,75.58,81.661z"/>
		<path style="fill:#FFFFFF;" d="M70.711,65.614l0.065,0.099c0.125,0.192,0.075,0.452-0.118,0.579l-2.229,1.477
			c-0.191,0.127-0.452,0.072-0.579-0.117l-0.065-0.099c-0.126-0.189-0.073-0.45,0.117-0.579l2.229-1.475
			C70.322,65.371,70.585,65.424,70.711,65.614"/>
		<path style="fill:none;stroke:#000000;stroke-width:0.5;stroke-linecap:round;stroke-linejoin:round;stroke-miterlimit:10;" d="
			M70.711,65.614l0.065,0.099c0.125,0.192,0.075,0.452-0.118,0.579l-2.229,1.477c-0.191,0.127-0.452,0.072-0.579-0.117l-0.065-0.099
			c-0.126-0.189-0.073-0.45,0.117-0.579l2.229-1.475C70.322,65.371,70.585,65.424,70.711,65.614z"/>
		<path style="fill:#FFFFFF;" d="M57.64,54.862l0.107,0.044c0.212,0.091,0.313,0.336,0.224,0.547l-1.028,2.47
			c-0.088,0.213-0.334,0.314-0.545,0.225l-0.108-0.045c-0.213-0.09-0.314-0.332-0.226-0.546l1.029-2.466
			C57.181,54.877,57.427,54.774,57.64,54.862"/>
		<path style="fill:none;stroke:#000000;stroke-width:0.5;stroke-linecap:round;stroke-linejoin:round;stroke-miterlimit:10;" d="
			M57.64,54.862l0.107,0.044c0.212,0.091,0.313,0.336,0.224,0.547l-1.028,2.47c-0.088,0.213-0.334,0.314-0.545,0.225l-0.108-0.045
			c-0.213-0.09-0.314-0.332-0.226-0.546l1.029-2.466C57.181,54.877,57.427,54.774,57.64,54.862z"/>
		<path style="fill:#FFFFFF;" d="M40.778,53.333l0.112-0.021c0.228-0.039,0.444,0.111,0.486,0.338l0.471,2.63
			c0.041,0.23-0.113,0.448-0.338,0.487l-0.115,0.022c-0.227,0.041-0.444-0.112-0.484-0.339l-0.471-2.634
			C40.398,53.591,40.55,53.371,40.778,53.333"/>
		<path style="fill:none;stroke:#000000;stroke-width:0.5;stroke-linecap:round;stroke-linejoin:round;stroke-miterlimit:10;" d="
			M40.778,53.333l0.112-0.021c0.228-0.039,0.444,0.111,0.486,0.338l0.471,2.63c0.041,0.23-0.113,0.448-0.338,0.487l-0.115,0.022
			c-0.227,0.041-0.444-0.112-0.484-0.339l-0.471-2.634C40.398,53.591,40.55,53.371,40.778,53.333z"/>
		<path style="fill:#FFFFFF;" d="M25.788,61.321l0.081-0.082c0.161-0.164,0.427-0.167,0.591-0.003l1.902,1.878
			c0.164,0.161,0.167,0.429,0.004,0.593l-0.082,0.079c-0.162,0.166-0.428,0.169-0.59,0.008l-1.901-1.883
			C25.629,61.75,25.627,61.482,25.788,61.321"/>
		<path style="fill:none;stroke:#000000;stroke-width:0.5;stroke-linecap:round;stroke-linejoin:round;stroke-miterlimit:10;" d="
			M25.788,61.321l0.081-0.082c0.161-0.164,0.427-0.167,0.591-0.003l1.902,1.878c0.164,0.161,0.167,0.429,0.004,0.593l-0.082,0.079
			c-0.162,0.166-0.428,0.169-0.59,0.008l-1.901-1.883C25.629,61.75,25.627,61.482,25.788,61.321z"/>
		<path style="fill:#FFFFFF;" d="M17.93,76.248l0.016-0.117c0.031-0.228,0.243-0.387,0.471-0.356l2.648,0.373
			c0.229,0.034,0.388,0.241,0.357,0.47l-0.016,0.116c-0.033,0.228-0.245,0.389-0.473,0.354l-2.648-0.367
			C18.059,76.688,17.897,76.474,17.93,76.248"/>
		<path style="fill:none;stroke:#000000;stroke-width:0.5;stroke-linecap:round;stroke-linejoin:round;stroke-miterlimit:10;" d="
			M17.93,76.248l0.016-0.117c0.031-0.228,0.243-0.387,0.471-0.356l2.648,0.373c0.229,0.034,0.388,0.241,0.357,0.47l-0.016,0.116
			c-0.033,0.228-0.245,0.389-0.473,0.354l-2.648-0.367C18.059,76.688,17.897,76.474,17.93,76.248z"/>
		<path style="fill:#FFFFFF;" d="M19.655,92.877l-0.044-0.107c-0.087-0.211,0.013-0.457,0.226-0.543l2.473-1.021
			c0.212-0.093,0.458,0.013,0.547,0.224l0.044,0.109c0.087,0.212-0.016,0.458-0.228,0.545l-2.472,1.023
			C19.989,93.192,19.743,93.091,19.655,92.877"/>
		<path style="fill:none;stroke:#000000;stroke-width:0.5;stroke-linecap:round;stroke-linejoin:round;stroke-miterlimit:10;" d="
			M19.655,92.877l-0.044-0.107c-0.087-0.211,0.013-0.457,0.226-0.543l2.473-1.021c0.212-0.093,0.458,0.013,0.547,0.224l0.044,0.109
			c0.087,0.212-0.016,0.458-0.228,0.545l-2.472,1.023C19.989,93.192,19.743,93.091,19.655,92.877z"/>
		<path style="fill:#FFFFFF;" d="M30.322,105.877l-0.096-0.065c-0.191-0.131-0.243-0.391-0.114-0.58l1.493-2.219
			c0.129-0.188,0.39-0.242,0.58-0.112l0.098,0.062c0.189,0.129,0.24,0.392,0.113,0.582l-1.494,2.222
			C30.775,105.955,30.515,106.005,30.322,105.877"/>
		<path style="fill:none;stroke:#000000;stroke-width:0.5;stroke-linecap:round;stroke-linejoin:round;stroke-miterlimit:10;" d="
			M30.322,105.877l-0.096-0.065c-0.191-0.131-0.243-0.391-0.114-0.58l1.493-2.219c0.129-0.188,0.39-0.242,0.58-0.112l0.098,0.062
			c0.189,0.129,0.24,0.392,0.113,0.582l-1.494,2.222C30.775,105.955,30.515,106.005,30.322,105.877z"/>
		
			<line style="fill:none;stroke:#000000;stroke-width:0.5;stroke-linecap:round;stroke-linejoin:round;stroke-miterlimit:10;" x1="45.009" y1="107.087" x2="44.903" y2="108.888"/>
		
			<line style="fill:none;stroke:#000000;stroke-width:0.5;stroke-linecap:round;stroke-linejoin:round;stroke-miterlimit:10;" x1="43.518" y1="106.955" x2="43.306" y2="108.744"/>
		
			<line style="fill:none;stroke:#000000;stroke-width:0.5;stroke-linecap:round;stroke-linejoin:round;stroke-miterlimit:10;" x1="42.038" y1="106.738" x2="41.723" y2="108.51"/>
		
			<line style="fill:none;stroke:#000000;stroke-width:0.5;stroke-linecap:round;stroke-linejoin:round;stroke-miterlimit:10;" x1="40.572" y1="106.43" x2="40.153" y2="108.182"/>
		
			<line style="fill:none;stroke:#000000;stroke-width:0.5;stroke-linecap:round;stroke-linejoin:round;stroke-miterlimit:10;" x1="39.129" y1="106.04" x2="38.604" y2="107.761"/>
		
			<line style="fill:none;stroke:#000000;stroke-width:0.5;stroke-linecap:round;stroke-linejoin:round;stroke-miterlimit:10;" x1="37.71" y1="105.562" x2="37.087" y2="107.251"/>
		
			<line style="fill:none;stroke:#000000;stroke-width:0.5;stroke-linecap:round;stroke-linejoin:round;stroke-miterlimit:10;" x1="36.322" y1="105.001" x2="35.6" y2="106.653"/>
		
			<line style="fill:none;stroke:#000000;stroke-width:0.5;stroke-linecap:round;stroke-linejoin:round;stroke-miterlimit:10;" x1="34.969" y1="104.361" x2="34.152" y2="105.966"/>
		
			<line style="fill:none;stroke:#000000;stroke-width:0.5;stroke-linecap:round;stroke-linejoin:round;stroke-miterlimit:10;" x1="33.656" y1="103.642" x2="32.746" y2="105.198"/>
		
			<line style="fill:none;stroke:#000000;stroke-width:0.5;stroke-linecap:round;stroke-linejoin:round;stroke-miterlimit:10;" x1="31.168" y1="101.98" x2="30.082" y2="103.417"/>
		
			<line style="fill:none;stroke:#000000;stroke-width:0.5;stroke-linecap:round;stroke-linejoin:round;stroke-miterlimit:10;" x1="30.003" y1="101.043" x2="28.833" y2="102.414"/>
		
			<line style="fill:none;stroke:#000000;stroke-width:0.5;stroke-linecap:round;stroke-linejoin:round;stroke-miterlimit:10;" x1="28.894" y1="100.037" x2="27.646" y2="101.338"/>
		
			<line style="fill:none;stroke:#000000;stroke-width:0.5;stroke-linecap:round;stroke-linejoin:round;stroke-miterlimit:10;" x1="27.845" y1="98.969" x2="26.522" y2="100.192"/>
		
			<line style="fill:none;stroke:#000000;stroke-width:0.5;stroke-linecap:round;stroke-linejoin:round;stroke-miterlimit:10;" x1="26.862" y1="97.841" x2="25.47" y2="98.985"/>
		
			<line style="fill:none;stroke:#000000;stroke-width:0.5;stroke-linecap:round;stroke-linejoin:round;stroke-miterlimit:10;" x1="25.948" y1="96.657" x2="24.49" y2="97.717"/>
		
			<line style="fill:none;stroke:#000000;stroke-width:0.5;stroke-linecap:round;stroke-linejoin:round;stroke-miterlimit:10;" x1="25.103" y1="95.423" x2="23.585" y2="96.393"/>
		
			<line style="fill:none;stroke:#000000;stroke-width:0.5;stroke-linecap:round;stroke-linejoin:round;stroke-miterlimit:10;" x1="24.335" y1="94.138" x2="22.763" y2="95.02"/>
		
			<line style="fill:none;stroke:#000000;stroke-width:0.5;stroke-linecap:round;stroke-linejoin:round;stroke-miterlimit:10;" x1="23.643" y1="92.812" x2="22.021" y2="93.597"/>
		
			<line style="fill:none;stroke:#000000;stroke-width:0.5;stroke-linecap:round;stroke-linejoin:round;stroke-miterlimit:10;" x1="22.498" y1="90.047" x2="20.795" y2="90.639"/>
		
			<line style="fill:none;stroke:#000000;stroke-width:0.5;stroke-linecap:round;stroke-linejoin:round;stroke-miterlimit:10;" x1="22.048" y1="88.618" x2="20.315" y2="89.108"/>
		
			<line style="fill:none;stroke:#000000;stroke-width:0.5;stroke-linecap:round;stroke-linejoin:round;stroke-miterlimit:10;" x1="21.685" y1="87.168" x2="19.927" y2="87.555"/>
		
			<line style="fill:none;stroke:#000000;stroke-width:0.5;stroke-linecap:round;stroke-linejoin:round;stroke-miterlimit:10;" x1="21.408" y1="85.696" x2="19.629" y2="85.978"/>
		
			<line style="fill:none;stroke:#000000;stroke-width:0.5;stroke-linecap:round;stroke-linejoin:round;stroke-miterlimit:10;" x1="21.218" y1="84.211" x2="19.425" y2="84.388"/>
		
			<line style="fill:none;stroke:#000000;stroke-width:0.5;stroke-linecap:round;stroke-linejoin:round;stroke-miterlimit:10;" x1="21.113" y1="82.72" x2="19.315" y2="82.792"/>
		
			<line style="fill:none;stroke:#000000;stroke-width:0.5;stroke-linecap:round;stroke-linejoin:round;stroke-miterlimit:10;" x1="21.101" y1="81.222" x2="19.299" y2="81.188"/>
		
			<line style="fill:none;stroke:#000000;stroke-width:0.5;stroke-linecap:round;stroke-linejoin:round;stroke-miterlimit:10;" x1="21.173" y1="79.729" x2="19.377" y2="79.588"/>
		
			<line style="fill:none;stroke:#000000;stroke-width:0.5;stroke-linecap:round;stroke-linejoin:round;stroke-miterlimit:10;" x1="21.334" y1="78.24" x2="19.55" y2="77.992"/>
		
			<line style="fill:none;stroke:#000000;stroke-width:0.5;stroke-linecap:round;stroke-linejoin:round;stroke-miterlimit:10;" x1="21.918" y1="75.304" x2="20.175" y2="74.852"/>
		
			<line style="fill:none;stroke:#000000;stroke-width:0.5;stroke-linecap:round;stroke-linejoin:round;stroke-miterlimit:10;" x1="22.339" y1="73.869" x2="20.625" y2="73.313"/>
		
			<line style="fill:none;stroke:#000000;stroke-width:0.5;stroke-linecap:round;stroke-linejoin:round;stroke-miterlimit:10;" x1="22.843" y1="72.463" x2="21.165" y2="71.805"/>
		
			<line style="fill:none;stroke:#000000;stroke-width:0.5;stroke-linecap:round;stroke-linejoin:round;stroke-miterlimit:10;" x1="23.429" y1="71.085" x2="21.792" y2="70.33"/>
		
			<line style="fill:none;stroke:#000000;stroke-width:0.5;stroke-linecap:round;stroke-linejoin:round;stroke-miterlimit:10;" x1="24.096" y1="69.744" x2="22.507" y2="68.894"/>
		
			<line style="fill:none;stroke:#000000;stroke-width:0.5;stroke-linecap:round;stroke-linejoin:round;stroke-miterlimit:10;" x1="24.84" y1="68.446" x2="23.304" y2="67.505"/>
		
			<line style="fill:none;stroke:#000000;stroke-width:0.5;stroke-linecap:round;stroke-linejoin:round;stroke-miterlimit:10;" x1="25.659" y1="67.192" x2="24.18" y2="66.163"/>
		
			<line style="fill:none;stroke:#000000;stroke-width:0.5;stroke-linecap:round;stroke-linejoin:round;stroke-miterlimit:10;" x1="26.55" y1="65.992" x2="25.135" y2="64.876"/>
		
			<line style="fill:none;stroke:#000000;stroke-width:0.5;stroke-linecap:round;stroke-linejoin:round;stroke-miterlimit:10;" x1="27.511" y1="64.843" x2="26.163" y2="63.648"/>
		
			<line style="fill:none;stroke:#000000;stroke-width:0.5;stroke-linecap:round;stroke-linejoin:round;stroke-miterlimit:10;" x1="29.626" y1="62.729" x2="28.429" y2="61.382"/>
		
			<line style="fill:none;stroke:#000000;stroke-width:0.5;stroke-linecap:round;stroke-linejoin:round;stroke-miterlimit:10;" x1="30.773" y1="61.771" x2="29.658" y2="60.353"/>
		
			<line style="fill:none;stroke:#000000;stroke-width:0.5;stroke-linecap:round;stroke-linejoin:round;stroke-miterlimit:10;" x1="31.976" y1="60.876" x2="30.944" y2="59.399"/>
		
			<line style="fill:none;stroke:#000000;stroke-width:0.5;stroke-linecap:round;stroke-linejoin:round;stroke-miterlimit:10;" x1="33.228" y1="60.058" x2="32.286" y2="58.522"/>
		
			<line style="fill:none;stroke:#000000;stroke-width:0.5;stroke-linecap:round;stroke-linejoin:round;stroke-miterlimit:10;" x1="34.527" y1="59.313" x2="33.678" y2="57.721"/>
		
			<line style="fill:none;stroke:#000000;stroke-width:0.5;stroke-linecap:round;stroke-linejoin:round;stroke-miterlimit:10;" x1="35.866" y1="58.646" x2="35.113" y2="57.011"/>
		
			<line style="fill:none;stroke:#000000;stroke-width:0.5;stroke-linecap:round;stroke-linejoin:round;stroke-miterlimit:10;" x1="37.243" y1="58.061" x2="36.587" y2="56.382"/>
		
			<line style="fill:none;stroke:#000000;stroke-width:0.5;stroke-linecap:round;stroke-linejoin:round;stroke-miterlimit:10;" x1="38.653" y1="57.557" x2="38.096" y2="55.841"/>
		
			<line style="fill:none;stroke:#000000;stroke-width:0.5;stroke-linecap:round;stroke-linejoin:round;stroke-miterlimit:10;" x1="40.088" y1="57.138" x2="39.633" y2="55.393"/>
		
			<line style="fill:none;stroke:#000000;stroke-width:0.5;stroke-linecap:round;stroke-linejoin:round;stroke-miterlimit:10;" x1="43.022" y1="56.554" x2="42.776" y2="54.768"/>
		
			<line style="fill:none;stroke:#000000;stroke-width:0.5;stroke-linecap:round;stroke-linejoin:round;stroke-miterlimit:10;" x1="44.513" y1="56.392" x2="44.369" y2="54.596"/>
		
			<line style="fill:none;stroke:#000000;stroke-width:0.5;stroke-linecap:round;stroke-linejoin:round;stroke-miterlimit:10;" x1="46.006" y1="56.319" x2="45.971" y2="54.515"/>
		
			<line style="fill:none;stroke:#000000;stroke-width:0.5;stroke-linecap:round;stroke-linejoin:round;stroke-miterlimit:10;" x1="47.502" y1="56.331" x2="47.573" y2="54.531"/>
		
			<line style="fill:none;stroke:#000000;stroke-width:0.5;stroke-linecap:round;stroke-linejoin:round;stroke-miterlimit:10;" x1="48.996" y1="56.435" x2="49.173" y2="54.644"/>
		
			<line style="fill:none;stroke:#000000;stroke-width:0.5;stroke-linecap:round;stroke-linejoin:round;stroke-miterlimit:10;" x1="50.48" y1="56.629" x2="50.762" y2="54.845"/>
		
			<line style="fill:none;stroke:#000000;stroke-width:0.5;stroke-linecap:round;stroke-linejoin:round;stroke-miterlimit:10;" x1="51.95" y1="56.903" x2="52.336" y2="55.143"/>
		
			<line style="fill:none;stroke:#000000;stroke-width:0.5;stroke-linecap:round;stroke-linejoin:round;stroke-miterlimit:10;" x1="53.402" y1="57.268" x2="53.89" y2="55.534"/>
		
			<line style="fill:none;stroke:#000000;stroke-width:0.5;stroke-linecap:round;stroke-linejoin:round;stroke-miterlimit:10;" x1="54.829" y1="57.714" x2="55.421" y2="56.013"/>
		<path style="fill:none;stroke:#000000;stroke-width:0.5;stroke-linecap:round;stroke-linejoin:round;stroke-miterlimit:10;" d="
			M37.931,109.354l0.178-0.589c0.026-0.082,0.117-0.133,0.204-0.106c0.088,0.025,0.137,0.118,0.111,0.204l-0.181,0.586
			c-0.024,0.088-0.117,0.136-0.204,0.109C37.954,109.533,37.904,109.442,37.931,109.354z"/>
		<path style="fill:none;stroke:#000000;stroke-width:0.5;stroke-linecap:round;stroke-linejoin:round;stroke-miterlimit:10;" d="
			M24.023,99.937l0.476-0.389c0.07-0.059,0.172-0.05,0.232,0.02c0.056,0.069,0.046,0.177-0.022,0.23l-0.477,0.39
			c-0.069,0.059-0.173,0.049-0.23-0.021C23.944,100.096,23.955,99.993,24.023,99.937z"/>
		<path style="fill:none;stroke:#000000;stroke-width:0.5;stroke-linecap:round;stroke-linejoin:round;stroke-miterlimit:10;" d="
			M17.694,84.374l0.612-0.057c0.09-0.008,0.169,0.055,0.179,0.146c0.008,0.088-0.058,0.17-0.147,0.179l-0.609,0.061
			c-0.089,0.009-0.172-0.06-0.18-0.146C17.538,84.466,17.605,84.388,17.694,84.374z"/>
		<path style="fill:none;stroke:#000000;stroke-width:0.5;stroke-linecap:round;stroke-linejoin:round;stroke-miterlimit:10;" d="
			M21.077,67.923l0.542,0.291c0.078,0.042,0.109,0.143,0.066,0.219c-0.04,0.081-0.141,0.113-0.221,0.07l-0.542-0.289
			c-0.079-0.043-0.11-0.143-0.066-0.223C20.896,67.913,20.996,67.88,21.077,67.923z"/>
		<path style="fill:none;stroke:#000000;stroke-width:0.5;stroke-linecap:round;stroke-linejoin:round;stroke-miterlimit:10;" d="
			M33.027,56.122l0.29,0.541c0.044,0.078,0.013,0.179-0.066,0.221c-0.08,0.045-0.179,0.015-0.221-0.066l-0.29-0.54
			c-0.043-0.082-0.012-0.181,0.067-0.221C32.887,56.013,32.986,56.043,33.027,56.122z"/>
		<path style="fill:none;stroke:#000000;stroke-width:0.5;stroke-linecap:round;stroke-linejoin:round;stroke-miterlimit:10;" d="
			M49.522,52.95l-0.058,0.61c-0.011,0.089-0.091,0.157-0.182,0.149c-0.088-0.011-0.154-0.091-0.146-0.18l0.062-0.613
			c0.007-0.088,0.09-0.155,0.177-0.146C49.466,52.78,49.532,52.862,49.522,52.95z"/>
		<path style="fill:none;stroke:#000000;stroke-width:0.5;stroke-linecap:round;stroke-linejoin:round;stroke-miterlimit:10;" d="
			M64.999,59.476l-0.388,0.478c-0.057,0.067-0.161,0.079-0.23,0.022c-0.071-0.06-0.081-0.163-0.023-0.232l0.389-0.476
			c0.059-0.069,0.161-0.079,0.23-0.022C65.046,59.306,65.058,59.408,64.999,59.476z"/>
		<path style="fill:none;stroke:#000000;stroke-width:0.5;stroke-linecap:round;stroke-linejoin:round;stroke-miterlimit:10;" d="
			M74.243,73.501l-0.587,0.181c-0.088,0.024-0.179-0.025-0.206-0.111c-0.025-0.084,0.024-0.178,0.11-0.205l0.587-0.176
			c0.086-0.025,0.178,0.021,0.204,0.105C74.38,73.383,74.329,73.476,74.243,73.501z"/>
		<polyline style="fill:#FFFFFF;" points="45.399,75.821 47.394,75.821 46.874,108.196 45.952,108.196 45.399,75.821 		"/>
		<polygon style="fill:none;stroke:#000000;stroke-width:0.5;stroke-miterlimit:10;" points="45.399,75.821 47.394,75.821 
			46.874,108.196 45.952,108.196 		"/>
		<path style="fill:none;stroke:#000000;stroke-width:0.5;stroke-miterlimit:10;" d="M46.397,107.847
			c-0.181,0-0.327-0.147-0.327-0.328V85.417c0-0.183,0.146-0.33,0.327-0.33c0.18,0,0.328,0.147,0.328,0.33v22.102
			C46.726,107.699,46.577,107.847,46.397,107.847z"/>
		<path style="fill:none;stroke:#000000;stroke-width:0.5;stroke-miterlimit:10;" d="M21.269,46.263
			c0,0,18.909-11.968,34.706-12.211c15.796-0.246,43.236-1.394,45.609-1.313"/>
		<path style="fill:none;stroke:#000000;stroke-width:0.5;stroke-miterlimit:10;" d="M183.004,48.95
			c0,0-18.683-14.039-37.148-14.545c-15.792-0.432-41.896-1.747-44.271-1.666"/>
		<path style="fill:none;stroke:#000000;stroke-width:0.5;stroke-miterlimit:10;" d="M130.63,33.876l12.872,7.254
			c-23.548-4.205-42.714-3.474-42.714-3.474h-0.039c0,0-20.184-0.589-43.73,3.616l13.931-7.584"/>
		<path style="fill:none;stroke:#000000;stroke-width:0.5;stroke-miterlimit:10;" d="M139.933,42.543
			c-21.887-3.525-39.145-2.868-39.145-2.868h-0.039c0,0-18.325-0.534-40.428,3.056"/>
		<path style="fill:#FFFFFF;" d="M47.021,108.489v1.912c0,0.229-0.189,0.42-0.418,0.42h-0.24c-0.229,0-0.418-0.19-0.418-0.42v-1.945
			L47.021,108.489"/>
		<path style="fill:none;stroke:#000000;stroke-width:0.5;stroke-linecap:round;stroke-linejoin:round;stroke-miterlimit:10;" d="
			M47.021,108.489v1.912c0,0.229-0.189,0.42-0.418,0.42h-0.24c-0.229,0-0.418-0.19-0.418-0.42v-1.945L47.021,108.489z"/>
		<path style="fill:none;stroke:#000000;stroke-width:0.5;stroke-linecap:round;stroke-linejoin:round;stroke-miterlimit:10;" d="
			M73.901,53.448c0,0,28.383-2.883,51.929,0.099"/>
		<polyline style="fill:#FFFFFF;" points="152.645,75.821 154.64,75.821 154.119,108.196 153.196,108.196 152.645,75.821 		"/>
		<polygon style="fill:none;stroke:#000000;stroke-width:0.5;stroke-miterlimit:10;" points="152.645,75.821 154.64,75.821 
			154.119,108.196 153.196,108.196 		"/>
		<path style="fill:none;stroke:#000000;stroke-width:0.5;stroke-miterlimit:10;" d="M153.643,107.847
			c-0.183,0-0.328-0.147-0.328-0.328V85.417c0-0.183,0.145-0.33,0.328-0.33c0.178,0,0.328,0.147,0.328,0.33v22.102
			C153.972,107.699,153.821,107.847,153.643,107.847z"/>
		<rect x="164.113" y="99.666" width="0.633" height="1.092"/>
		<circle style="fill:none;stroke:#000000;stroke-width:0.5;stroke-miterlimit:10;" cx="164.114" cy="92.002" r="3.441"/>
		<circle style="fill:none;stroke:#000000;stroke-width:0.5;stroke-miterlimit:10;" cx="164.113" cy="92.066" r="8.771"/>
		<circle style="fill:none;stroke:#000000;stroke-width:0.5;stroke-miterlimit:10;" cx="164.113" cy="92.008" r="9.487"/>
		
			<line style="fill:none;stroke:#000000;stroke-width:0.5;stroke-linecap:round;stroke-linejoin:round;stroke-miterlimit:10;" x1="165.329" y1="99.695" x2="165.493" y2="100.729"/>
		
			<line style="fill:none;stroke:#000000;stroke-width:0.5;stroke-linecap:round;stroke-linejoin:round;stroke-miterlimit:10;" x1="166.518" y1="99.413" x2="166.841" y2="100.403"/>
		
			<line style="fill:none;stroke:#000000;stroke-width:0.5;stroke-linecap:round;stroke-linejoin:round;stroke-miterlimit:10;" x1="167.645" y1="98.942" x2="168.121" y2="99.873"/>
		
			<line style="fill:none;stroke:#000000;stroke-width:0.5;stroke-linecap:round;stroke-linejoin:round;stroke-miterlimit:10;" x1="168.686" y1="98.306" x2="169.302" y2="99.151"/>
		<polyline points="170.148,98.46 169.407,97.721 169.827,97.307 170.561,98.04 170.148,98.46 		"/>
		
			<line style="fill:none;stroke:#000000;stroke-width:0.5;stroke-linecap:round;stroke-linejoin:round;stroke-miterlimit:10;" x1="170.408" y1="96.583" x2="171.252" y2="97.196"/>
		
			<line style="fill:none;stroke:#000000;stroke-width:0.5;stroke-linecap:round;stroke-linejoin:round;stroke-miterlimit:10;" x1="171.048" y1="95.542" x2="171.979" y2="96.016"/>
		
			<line style="fill:none;stroke:#000000;stroke-width:0.5;stroke-linecap:round;stroke-linejoin:round;stroke-miterlimit:10;" x1="171.515" y1="94.412" x2="172.509" y2="94.735"/>
		
			<line style="fill:none;stroke:#000000;stroke-width:0.5;stroke-linecap:round;stroke-linejoin:round;stroke-miterlimit:10;" x1="171.803" y1="93.227" x2="172.832" y2="93.39"/>
		<rect x="171.791" y="92.002" width="1.093" height="0.634"/>
		<path style="fill:#FFFFFF;" d="M164.113,100.763c-0.192,0-0.352-0.158-0.352-0.351V90.208c0-0.19,0.159-0.35,0.352-0.35
			c0.192,0,0.349,0.159,0.349,0.35v10.204C164.462,100.604,164.306,100.763,164.113,100.763"/>
		<path style="fill:none;stroke:#000000;stroke-width:0.5;stroke-linecap:round;stroke-linejoin:round;stroke-miterlimit:10;" d="
			M164.113,100.763c-0.192,0-0.352-0.158-0.352-0.351V90.208c0-0.19,0.159-0.35,0.352-0.35c0.192,0,0.349,0.159,0.349,0.35v10.204
			C164.462,100.604,164.306,100.763,164.113,100.763z"/>
		<rect x="57.441" y="99.782" width="0.636" height="1.09"/>
		<path style="fill:none;stroke:#000000;stroke-width:0.5;stroke-miterlimit:10;" d="M54.002,92.118c0,1.9,1.541,3.438,3.439,3.438
			c1.9,0,3.44-1.537,3.44-3.438c0-1.902-1.54-3.438-3.44-3.438C55.543,88.68,54.002,90.216,54.002,92.118z"/>
		<path style="fill:none;stroke:#000000;stroke-width:0.5;stroke-miterlimit:10;" d="M48.671,92.179
			c0,4.847,3.929,8.771,8.772,8.771c4.843,0,8.772-3.924,8.772-8.771c0-4.846-3.93-8.772-8.772-8.772
			C52.6,83.406,48.671,87.333,48.671,92.179z"/>
		<circle style="fill:none;stroke:#000000;stroke-width:0.5;stroke-miterlimit:10;" cx="57.445" cy="92.124" r="9.488"/>
		
			<line style="fill:none;stroke:#000000;stroke-width:0.5;stroke-linecap:round;stroke-linejoin:round;stroke-miterlimit:10;" x1="58.659" y1="99.813" x2="58.823" y2="100.844"/>
		
			<line style="fill:none;stroke:#000000;stroke-width:0.5;stroke-linecap:round;stroke-linejoin:round;stroke-miterlimit:10;" x1="59.849" y1="99.525" x2="60.171" y2="100.518"/>
		
			<line style="fill:none;stroke:#000000;stroke-width:0.5;stroke-linecap:round;stroke-linejoin:round;stroke-miterlimit:10;" x1="60.976" y1="99.06" x2="61.451" y2="99.985"/>
		
			<line style="fill:none;stroke:#000000;stroke-width:0.5;stroke-linecap:round;stroke-linejoin:round;stroke-miterlimit:10;" x1="62.018" y1="98.42" x2="62.633" y2="99.264"/>
		
			<line style="fill:none;stroke:#000000;stroke-width:0.5;stroke-linecap:round;stroke-linejoin:round;stroke-miterlimit:10;" x1="62.946" y1="97.627" x2="63.685" y2="98.366"/>
		
			<line style="fill:none;stroke:#000000;stroke-width:0.5;stroke-linecap:round;stroke-linejoin:round;stroke-miterlimit:10;" x1="63.739" y1="96.698" x2="64.585" y2="97.312"/>
		
			<line style="fill:none;stroke:#000000;stroke-width:0.5;stroke-linecap:round;stroke-linejoin:round;stroke-miterlimit:10;" x1="64.377" y1="95.658" x2="65.309" y2="96.13"/>
		
			<line style="fill:none;stroke:#000000;stroke-width:0.5;stroke-linecap:round;stroke-linejoin:round;stroke-miterlimit:10;" x1="64.846" y1="94.529" x2="65.839" y2="94.851"/>
		
			<line style="fill:none;stroke:#000000;stroke-width:0.5;stroke-linecap:round;stroke-linejoin:round;stroke-miterlimit:10;" x1="65.131" y1="93.341" x2="66.162" y2="93.507"/>
		<rect x="65.121" y="92.118" width="1.095" height="0.633"/>
		<path style="fill:#FFFFFF;" d="M57.441,100.876c-0.191,0-0.348-0.156-0.348-0.347V90.32c0-0.192,0.156-0.352,0.348-0.352
			c0.192,0,0.351,0.159,0.351,0.352v10.209C57.792,100.72,57.634,100.876,57.441,100.876"/>
		<path style="fill:none;stroke:#000000;stroke-width:0.5;stroke-linecap:round;stroke-linejoin:round;stroke-miterlimit:10;" d="
			M57.441,100.876c-0.191,0-0.348-0.156-0.348-0.347V90.32c0-0.192,0.156-0.352,0.348-0.352c0.192,0,0.351,0.159,0.351,0.352v10.209
			C57.792,100.72,57.634,100.876,57.441,100.876z"/>
		<rect x="168.344" y="93.81" style="fill:#FFFFFF;" width="1.005" height="0.624"/>
	</g>
</g>
<g>
	<g>
		<polygon style="fill:none;stroke:#FFFFFF;stroke-width:3;stroke-linejoin:round;stroke-miterlimit:10;" points="148.319,2.221 
			148.319,15.459 109.509,61.027 148.319,26.711 148.319,44.002 186.441,44.002 186.441,2.221 		"/>
		<polygon style="fill:#FFFFFF;stroke:#000000;" points="148.319,2.221 148.319,15.459 109.509,61.027 148.319,26.711 
			148.319,44.002 186.441,44.002 186.441,2.221 		"/>
	</g>
</g>
<g>
	<path d="M179.85,15.293h-0.615v-3.92c-0.148,0.141-0.343,0.282-0.583,0.424c-0.24,0.141-0.456,0.247-0.647,0.318v-0.595
		c0.344-0.162,0.645-0.358,0.902-0.588c0.257-0.23,0.439-0.454,0.547-0.67h0.396V15.293z"/>
</g>
<line style="fill:none;stroke:#000000;stroke-width:0.5;" x1="176.789" y1="16.604" x2="168.675" y2="22.481"/>
<path d="M168.492,25.036c0.282-0.782,0.443-1.632,0.443-2.523c0-3.985-3.223-7.22-7.225-7.22c-3.982,0-7.212,3.234-7.212,7.22
	c0,2.196,0.978,4.168,2.517,5.478l0.793-0.917c-1.285-1.108-2.094-2.73-2.094-4.561c0.012-3.315,2.689-5.993,5.996-5.999
	c3.318,0.006,5.996,2.684,6.009,5.999c0,0.617-0.091,1.216-0.468,2.145l-0.92-0.715l-0.799,3.996l3.396-1.972l-0.67-0.518
	L168.492,25.036"/>
<path d="M164.865,25.409h-1.325l-0.631-1.953h-2.156l-0.624,1.953h-1.222l2.116-6.882h1.51L164.865,25.409 M162.686,22.581
	l-0.908-2.879l-0.86,2.879H162.686z"/>
<path d="M159.889,32.557c0,2.389-1.276,3.619-3.074,3.619c-1.903,0-2.983-1.522-2.983-3.517c0-2.057,1.191-3.58,3.079-3.58
	C158.907,29.079,159.889,30.717,159.889,32.557 M155.279,32.625c0,1.363,0.559,2.471,1.582,2.471c1.032,0,1.581-1.102,1.581-2.489
	c0-1.271-0.513-2.436-1.567-2.436C155.781,30.171,155.279,31.374,155.279,32.625z"/>
<polyline points="160.957,36.078 160.957,29.188 164.831,29.188 164.831,30.302 162.338,30.302 162.338,32.123 164.653,32.123 
	164.653,33.205 162.338,33.205 162.338,36.078 160.957,36.078 "/>
<polyline points="165.996,36.078 165.996,29.188 169.875,29.188 169.875,30.302 167.38,30.302 167.38,32.123 169.697,32.123 
	169.697,33.205 167.38,33.205 167.38,36.078 165.996,36.078 "/>
<polyline style="fill:#FFFFFF;stroke:#FFFFFF;stroke-width:3;" points="36.161,82.419 59.115,32.5 46.264,32.5 46.264,1.5 
	86.014,1.5 86.014,32.5 68.366,32.5 36.161,82.419 "/>
<polyline style="fill:#FFFFFF;stroke:#000000;" points="36.161,82.419 59.115,32.5 46.264,32.5 46.264,1.5 86.014,1.5 86.014,32.5 
	68.366,32.5 36.161,82.419 "/>
<g>
	<polygon style="fill-rule:evenodd;clip-rule:evenodd;" points="74.692,11.951 74.161,11.951 71.448,11.951 71.448,10.754 
		71.448,10.521 71.227,10.521 67.387,10.521 67.161,10.521 67.161,10.754 67.161,11.951 58.525,11.951 58.525,10.754 58.525,10.521 
		58.287,10.521 54.467,10.521 54.232,10.521 54.232,10.754 54.232,11.951 51.519,11.951 50.982,11.951 50.756,11.951 50.756,12.172 
		50.756,12.713 50.756,25.012 50.756,25.537 50.756,25.775 50.982,25.775 51.519,25.775 74.161,25.775 74.692,25.775 74.924,25.775 
		74.924,25.537 74.924,25.006 74.924,12.713 74.924,12.172 74.924,11.951 74.692,11.951 	"/>
	<g>
		<polygon style="fill-rule:evenodd;clip-rule:evenodd;fill:#FFFFFF;" points="52.291,13.479 52.291,24.236 73.397,24.236 
			73.397,13.479 52.291,13.479 		"/>
	</g>
	<polygon style="fill-rule:evenodd;clip-rule:evenodd;" points="59.244,17.525 59.244,16.811 59.244,16.576 59.01,16.576 
		54.197,16.576 53.959,16.576 53.959,16.811 53.959,17.525 53.959,17.76 54.197,17.76 59.01,17.76 59.244,17.76 59.244,17.525 	"/>
	<polygon style="fill-rule:evenodd;clip-rule:evenodd;" points="71.577,16.576 69.936,16.576 69.936,15.041 69.936,14.797 
		69.704,14.797 68.998,14.797 68.752,14.797 68.752,15.041 68.752,16.576 67.02,16.576 66.799,16.576 66.799,16.811 66.799,17.525 
		66.799,17.76 67.02,17.76 68.752,17.76 68.752,19.125 68.752,19.354 68.998,19.354 69.704,19.354 69.936,19.354 69.936,19.125 
		69.936,17.76 71.577,17.76 71.803,17.76 71.803,17.525 71.803,16.811 71.803,16.576 71.577,16.576 	"/>
</g>
<g>
	<path d="M83.863,8.576v0.591h-3.312c-0.004-0.148,0.02-0.291,0.072-0.427c0.084-0.226,0.219-0.448,0.405-0.667
		c0.186-0.219,0.454-0.472,0.805-0.759c0.544-0.447,0.913-0.8,1.104-1.061c0.191-0.261,0.287-0.508,0.287-0.74
		c0-0.244-0.087-0.449-0.262-0.617c-0.174-0.167-0.401-0.251-0.682-0.251c-0.296,0-0.533,0.089-0.711,0.267S81.302,5.335,81.3,5.65
		l-0.632-0.065c0.043-0.472,0.206-0.831,0.489-1.079c0.283-0.247,0.662-0.371,1.138-0.371c0.481,0,0.861,0.133,1.142,0.4
		s0.42,0.597,0.42,0.991c0,0.201-0.041,0.397-0.123,0.591s-0.218,0.397-0.409,0.612c-0.19,0.214-0.506,0.508-0.948,0.882
		c-0.369,0.31-0.606,0.52-0.711,0.631c-0.105,0.11-0.191,0.221-0.26,0.333H83.863z"/>
</g>
<line style="fill:none;stroke:#000000;stroke-width:0.5;" x1="79.819" y1="8.148" x2="71.071" y2="11.443"/>
</svg>
