<?xml version="1.0" encoding="utf-8"?>
<!-- Generator: Adobe Illustrator 19.1.1, SVG Export Plug-In . SVG Version: 6.00 Build 0)  -->
<svg version="1.1" id="レイヤー_1" xmlns="http://www.w3.org/2000/svg" xmlns:xlink="http://www.w3.org/1999/xlink" x="0px"
	 y="0px" viewBox="0 0 281.101 164.311" style="enable-background:new 0 0 281.101 164.311;" xml:space="preserve">
<g>
	<g>
		<line style="fill:none;stroke:#000000;stroke-width:0.4;" x1="49.841" y1="109.416" x2="41.563" y2="109.416"/>
		<polyline points="42.901,107.898 39.269,109.414 42.901,110.934 42.901,107.898 		"/>
		<path style="fill:none;stroke:#000000;stroke-width:0.5;" d="M27.658,116.834h-2.29v-15.436h2.29V116.834z M25.346,118.176H0.25
			v-18.119h25.096V118.176z M27.753,111.834c1.327,0,2.405,1.08,2.405,2.408c0,3.621,0.813,7.055,2.269,10.127 M33.255,123.852
			c-1.368-2.922-2.128-6.178-2.128-9.609c0-1.861-1.514-3.375-3.374-3.375 M27.753,109.898c2.393,0,4.34,1.947,4.34,4.344
			c0,3.246,0.712,6.326,1.989,9.094 M34.91,122.82c-1.188-2.615-1.85-5.522-1.85-8.578c0-2.93-2.38-5.313-5.307-5.313
			 M27.753,107.961c3.463,0,6.278,2.818,6.278,6.281c0,2.869,0.608,5.596,1.707,8.059 M36.568,121.783
			c-1.009-2.309-1.57-4.861-1.57-7.541c0-3.998-3.25-7.25-7.245-7.25 M27.753,106.023c4.528,0,8.213,3.686,8.213,8.219
			c0,2.471,0.502,4.826,1.407,6.965 M38.267,120.832c-0.859-2.027-1.333-4.252-1.333-6.59c0-5.068-4.118-9.188-9.181-9.188"/>
		<g>
			<path d="M52.261,113.118v-6.402h1.357v0.51h-0.742v5.384h0.742v0.509H52.261z"/>
			<path d="M56.561,111.279c-0.228,0.194-0.447,0.331-0.658,0.41c-0.211,0.08-0.437,0.12-0.679,0.12
				c-0.399,0-0.705-0.098-0.919-0.293c-0.214-0.194-0.321-0.443-0.321-0.746c0-0.178,0.041-0.341,0.122-0.487
				c0.081-0.147,0.187-0.265,0.318-0.354c0.131-0.089,0.278-0.156,0.442-0.202c0.121-0.032,0.303-0.063,0.547-0.092
				c0.497-0.06,0.863-0.13,1.097-0.212c0.002-0.085,0.003-0.139,0.003-0.161c0-0.251-0.058-0.428-0.174-0.53
				c-0.157-0.139-0.391-0.208-0.701-0.208c-0.289,0-0.503,0.051-0.641,0.152c-0.138,0.102-0.24,0.28-0.306,0.538l-0.602-0.082
				c0.055-0.258,0.145-0.466,0.27-0.624s0.307-0.28,0.543-0.365c0.237-0.086,0.512-0.129,0.824-0.129
				c0.31,0,0.562,0.037,0.755,0.109c0.194,0.073,0.336,0.165,0.428,0.275c0.091,0.11,0.155,0.25,0.191,0.419
				c0.021,0.104,0.031,0.294,0.031,0.567v0.82c0,0.572,0.013,0.934,0.039,1.085c0.026,0.152,0.078,0.297,0.156,0.437h-0.643
				C56.62,111.6,56.579,111.45,56.561,111.279z M56.509,109.905c-0.223,0.091-0.558,0.169-1.005,0.232
				c-0.253,0.036-0.432,0.077-0.537,0.123s-0.186,0.112-0.243,0.2s-0.085,0.186-0.085,0.292c0,0.164,0.062,0.301,0.187,0.41
				c0.124,0.109,0.306,0.164,0.545,0.164c0.237,0,0.448-0.052,0.632-0.155s0.32-0.245,0.407-0.426
				c0.066-0.139,0.099-0.344,0.099-0.615V109.905z"/>
			<path d="M59.114,113.118h-1.357v-0.509h0.742v-5.384h-0.742v-0.51h1.357V113.118z"/>
		</g>
	</g>
</g>
<g>
	<polyline style="fill:none;stroke:#000000;stroke-width:0.5;" points="141.636,39.694 66.09,39.694 66.09,29.909 258.228,29.909 	
		"/>
	<polyline style="fill:none;stroke:#000000;stroke-width:0.5;stroke-miterlimit:3.864;" points="141.458,39.694 243.559,39.694 
		243.559,43.2 	"/>
	<g>
		<rect x="196.628" y="8.859" style="fill:none;stroke:#000000;" width="79.813" height="46.741"/>
		<g>
			<path d="M237.015,5.416v0.591h-3.313c-0.005-0.148,0.02-0.291,0.072-0.427c0.084-0.226,0.219-0.448,0.404-0.667
				s0.454-0.472,0.806-0.759c0.544-0.447,0.912-0.8,1.104-1.062c0.191-0.261,0.287-0.507,0.287-0.74c0-0.244-0.087-0.45-0.262-0.617
				c-0.174-0.167-0.401-0.251-0.682-0.251c-0.296,0-0.533,0.089-0.711,0.267s-0.268,0.424-0.27,0.738l-0.633-0.065
				c0.043-0.472,0.206-0.831,0.489-1.079c0.282-0.247,0.661-0.371,1.138-0.371c0.48,0,0.861,0.133,1.142,0.4
				s0.421,0.597,0.421,0.991c0,0.2-0.041,0.397-0.123,0.591c-0.082,0.193-0.219,0.397-0.409,0.612
				c-0.189,0.214-0.506,0.508-0.948,0.882c-0.369,0.31-0.606,0.52-0.711,0.63c-0.104,0.111-0.191,0.222-0.26,0.333H237.015z"/>
		</g>
		<rect x="59.972" y="23.758" style="fill:none;stroke:#000000;" width="33.765" height="22.194"/>
		<g>
			<path d="M54.957,36.87h-0.615v-3.92c-0.148,0.141-0.342,0.282-0.583,0.424c-0.241,0.141-0.457,0.247-0.648,0.318v-0.595
				c0.344-0.162,0.645-0.358,0.902-0.588c0.257-0.23,0.44-0.454,0.547-0.67h0.396V36.87z"/>
		</g>
		<g>
			<path d="M84.58,10.525l1.924-5.011h0.714l2.051,5.011h-0.755L87.93,9.007h-2.095l-0.55,1.518H84.58z M86.026,8.467h1.699
				L87.202,7.08c-0.159-0.422-0.278-0.768-0.355-1.039c-0.064,0.321-0.154,0.64-0.27,0.957L86.026,8.467z"/>
			<path d="M91.867,10.525h-0.615v-3.92c-0.148,0.141-0.342,0.282-0.583,0.424c-0.241,0.141-0.457,0.247-0.648,0.318V6.751
				c0.344-0.162,0.645-0.358,0.902-0.588c0.257-0.23,0.44-0.454,0.547-0.67h0.396V10.525z"/>
		</g>
		<g>
			<path d="M84.58,65.03l1.924-5.011h0.714l2.051,5.011h-0.755l-0.584-1.518h-2.095l-0.55,1.518H84.58z M86.026,62.972h1.699
				l-0.523-1.388c-0.159-0.422-0.278-0.768-0.355-1.039c-0.064,0.321-0.154,0.64-0.27,0.957L86.026,62.972z"/>
			<path d="M92.783,64.438v0.591h-3.312c-0.004-0.148,0.02-0.291,0.072-0.427c0.084-0.226,0.219-0.448,0.405-0.667
				c0.186-0.219,0.454-0.472,0.805-0.759c0.544-0.447,0.913-0.8,1.104-1.062c0.191-0.261,0.287-0.507,0.287-0.74
				c0-0.244-0.087-0.45-0.261-0.617s-0.402-0.251-0.682-0.251c-0.296,0-0.533,0.089-0.711,0.267s-0.268,0.424-0.27,0.738
				l-0.632-0.065c0.043-0.472,0.206-0.831,0.489-1.079c0.283-0.247,0.662-0.371,1.138-0.371c0.481,0,0.861,0.133,1.142,0.4
				s0.42,0.597,0.42,0.991c0,0.2-0.041,0.397-0.123,0.591c-0.082,0.193-0.218,0.397-0.408,0.612
				c-0.19,0.214-0.506,0.508-0.949,0.882c-0.369,0.31-0.606,0.52-0.711,0.63c-0.105,0.111-0.191,0.222-0.26,0.333H92.783z"/>
		</g>
		<rect x="141.17" y="36.719" style="fill:#FFFFFF;" width="14.875" height="5.819"/>
		<path d="M257.871,29.256c-0.816-0.248-1.35-0.476-2.006-0.74v2.496c0.236-0.112,1.189-0.492,2.006-0.737
			c0.875-0.265,1.668-0.445,2.184-0.511C259.539,29.7,258.746,29.518,257.871,29.256"/>
		<line style="fill:none;stroke:#000000;stroke-width:0.5;" x1="246.314" y1="19.919" x2="252.357" y2="19.919"/>
		<path d="M249.244,30.712c0.512,0,0.93-0.415,0.93-0.928c0-0.515-0.418-0.931-0.93-0.931c-0.513,0-0.929,0.416-0.929,0.931
			C248.315,30.297,248.731,30.712,249.244,30.712"/>
		<g>
			<path d="M245.315,16.274l0.646-0.055c0.049,0.314,0.16,0.551,0.334,0.709c0.174,0.159,0.385,0.238,0.631,0.238
				c0.296,0,0.547-0.112,0.752-0.335s0.307-0.52,0.307-0.889c0-0.351-0.098-0.628-0.295-0.831c-0.197-0.203-0.455-0.304-0.774-0.304
				c-0.198,0-0.377,0.045-0.536,0.135c-0.16,0.09-0.285,0.207-0.377,0.351l-0.577-0.075l0.485-2.574h2.492v0.588h-2l-0.27,1.347
				c0.301-0.21,0.615-0.314,0.946-0.314c0.438,0,0.807,0.151,1.107,0.455c0.301,0.303,0.451,0.693,0.451,1.169
				c0,0.454-0.132,0.845-0.396,1.176c-0.321,0.406-0.76,0.608-1.315,0.608c-0.456,0-0.828-0.127-1.116-0.383
				S245.356,16.696,245.315,16.274z"/>
			<path d="M250.89,17.587l-1.941-5.011h0.717l1.303,3.64c0.105,0.292,0.192,0.565,0.264,0.82c0.077-0.273,0.167-0.547,0.27-0.82
				l1.354-3.64h0.677l-1.962,5.011H250.89z"/>
		</g>
		<polyline style="fill:none;stroke:#000000;stroke-width:0.5;stroke-miterlimit:3.864;" points="249.257,21.131 249.257,22.661 
			250.068,23.014 248.447,23.704 250.068,24.393 248.447,25.083 250.068,25.771 248.447,26.463 249.257,26.801 249.257,29.618 		"/>
		<path style="fill:#FFFFFF;" d="M249.235,21.153c0.659,0,1.194-0.535,1.194-1.195c0-0.659-0.535-1.194-1.194-1.194
			c-0.659,0-1.192,0.535-1.192,1.194C248.043,20.618,248.576,21.153,249.235,21.153"/>
		<circle style="fill:none;stroke:#000000;stroke-width:0.5;" cx="249.235" cy="19.959" r="1.195"/>
		
			<line style="fill:none;stroke:#000000;stroke-linecap:round;stroke-linejoin:round;" x1="240.306" y1="43.628" x2="246.6" y2="43.628"/>
		
			<line style="fill:none;stroke:#000000;stroke-width:0.5;stroke-linecap:round;stroke-linejoin:round;" x1="241.546" y1="45.09" x2="245.296" y2="45.09"/>
		
			<line style="fill:none;stroke:#000000;stroke-width:0.5;stroke-linecap:round;stroke-linejoin:round;" x1="242.437" y1="46.489" x2="244.216" y2="46.489"/>
		<rect x="202.024" y="36.715" style="fill:#FFFFFF;" width="28.36" height="5.819"/>
		<g>
			<path d="M207.212,40.131v-0.588l2.123-0.003v1.859c-0.326,0.26-0.662,0.455-1.008,0.586c-0.347,0.131-0.702,0.197-1.066,0.197
				c-0.492,0-0.939-0.105-1.342-0.316s-0.706-0.516-0.911-0.915c-0.205-0.398-0.308-0.844-0.308-1.336
				c0-0.487,0.102-0.943,0.307-1.365c0.203-0.423,0.496-0.737,0.879-0.942S206.71,37,207.209,37c0.362,0,0.69,0.059,0.983,0.177
				c0.292,0.117,0.521,0.28,0.688,0.49c0.167,0.21,0.293,0.483,0.38,0.82l-0.599,0.164c-0.074-0.255-0.168-0.456-0.279-0.602
				s-0.271-0.263-0.479-0.351s-0.438-0.132-0.691-0.132c-0.303,0-0.564,0.047-0.785,0.139c-0.222,0.093-0.4,0.214-0.535,0.364
				c-0.136,0.15-0.241,0.315-0.316,0.495c-0.127,0.311-0.191,0.646-0.191,1.009c0,0.446,0.077,0.82,0.23,1.121
				c0.154,0.301,0.378,0.524,0.672,0.67s0.606,0.219,0.937,0.219c0.287,0,0.567-0.056,0.841-0.166s0.48-0.229,0.622-0.354v-0.934
				H207.212z"/>
			<path d="M210.064,39.625c0-0.592,0.061-1.069,0.183-1.43c0.122-0.361,0.303-0.64,0.544-0.836c0.24-0.196,0.542-0.294,0.906-0.294
				c0.27,0,0.506,0.054,0.708,0.162c0.203,0.108,0.37,0.265,0.503,0.469c0.132,0.203,0.235,0.452,0.311,0.745
				c0.075,0.292,0.113,0.688,0.113,1.184c0,0.588-0.061,1.063-0.182,1.424s-0.301,0.641-0.541,0.838
				c-0.241,0.197-0.545,0.296-0.912,0.296c-0.482,0-0.861-0.174-1.138-0.521C210.228,41.245,210.064,40.566,210.064,39.625z
				 M210.696,39.625c0,0.823,0.097,1.37,0.289,1.643s0.43,0.408,0.712,0.408c0.283,0,0.521-0.137,0.713-0.41
				c0.193-0.273,0.289-0.82,0.289-1.641c0-0.824-0.096-1.372-0.289-1.644c-0.192-0.271-0.432-0.407-0.719-0.407
				c-0.283,0-0.509,0.12-0.678,0.359C210.802,38.239,210.696,38.803,210.696,39.625z"/>
			<path d="M215.929,42.097v-1.2h-2.174v-0.563l2.287-3.247h0.502v3.247h0.677v0.563h-0.677v1.2H215.929z M215.929,40.333v-2.26
				l-1.568,2.26H215.929z"/>
			<path d="M217.782,40.593v-0.619h1.89v0.619H217.782z"/>
			<path d="M223.415,41.505v0.592h-3.312c-0.005-0.148,0.02-0.291,0.071-0.428c0.085-0.226,0.22-0.447,0.405-0.666
				s0.453-0.472,0.805-0.759c0.545-0.446,0.912-0.801,1.104-1.062s0.287-0.508,0.287-0.74c0-0.243-0.086-0.449-0.261-0.616
				c-0.175-0.168-0.401-0.252-0.683-0.252c-0.296,0-0.533,0.089-0.711,0.267s-0.268,0.424-0.27,0.738l-0.633-0.064
				c0.044-0.472,0.207-0.831,0.489-1.078c0.282-0.248,0.662-0.371,1.138-0.371c0.481,0,0.861,0.133,1.143,0.399
				c0.279,0.267,0.42,0.598,0.42,0.991c0,0.201-0.041,0.398-0.123,0.592s-0.219,0.397-0.408,0.611
				c-0.19,0.215-0.506,0.509-0.949,0.882c-0.369,0.311-0.605,0.521-0.711,0.631c-0.104,0.11-0.191,0.222-0.26,0.333H223.415z"/>
			<path d="M227.308,41.505v0.592h-3.313c-0.004-0.148,0.02-0.291,0.072-0.428c0.084-0.226,0.219-0.447,0.405-0.666
				c0.186-0.219,0.454-0.472,0.805-0.759c0.544-0.446,0.913-0.801,1.104-1.062s0.287-0.508,0.287-0.74
				c0-0.243-0.088-0.449-0.262-0.616c-0.174-0.168-0.402-0.252-0.682-0.252c-0.297,0-0.533,0.089-0.711,0.267
				s-0.268,0.424-0.271,0.738l-0.632-0.064c0.043-0.472,0.205-0.831,0.488-1.078c0.283-0.248,0.662-0.371,1.139-0.371
				c0.48,0,0.861,0.133,1.141,0.399c0.281,0.267,0.421,0.598,0.421,0.991c0,0.201-0.041,0.398-0.123,0.592s-0.218,0.397-0.408,0.611
				c-0.19,0.215-0.507,0.509-0.948,0.882c-0.369,0.311-0.606,0.521-0.711,0.631c-0.105,0.11-0.191,0.222-0.26,0.333H227.308z"/>
		</g>
		<rect x="202.465" y="26.499" style="fill:#FFFFFF;" width="26.406" height="5.818"/>
		<g>
			<path d="M207.212,29.914v-0.588l2.123-0.003v1.859c-0.326,0.26-0.662,0.455-1.008,0.586c-0.347,0.131-0.702,0.197-1.066,0.197
				c-0.492,0-0.939-0.105-1.342-0.316c-0.402-0.21-0.706-0.515-0.911-0.914s-0.308-0.844-0.308-1.336
				c0-0.488,0.102-0.943,0.307-1.366c0.203-0.422,0.496-0.736,0.879-0.941s0.824-0.308,1.323-0.308c0.362,0,0.69,0.059,0.983,0.176
				c0.292,0.117,0.521,0.281,0.688,0.491c0.167,0.209,0.293,0.483,0.38,0.82l-0.599,0.164c-0.074-0.255-0.168-0.456-0.279-0.602
				c-0.111-0.146-0.271-0.263-0.479-0.351c-0.207-0.087-0.438-0.131-0.691-0.131c-0.303,0-0.564,0.046-0.785,0.138
				c-0.222,0.092-0.4,0.214-0.535,0.364c-0.136,0.15-0.241,0.315-0.316,0.496c-0.127,0.31-0.191,0.646-0.191,1.008
				c0,0.447,0.077,0.82,0.23,1.121c0.154,0.301,0.378,0.524,0.672,0.67s0.606,0.219,0.937,0.219c0.287,0,0.567-0.055,0.841-0.166
				c0.273-0.11,0.48-0.228,0.622-0.354v-0.933H207.212z"/>
			<path d="M210.064,29.408c0-0.593,0.061-1.069,0.183-1.431c0.122-0.361,0.303-0.64,0.544-0.835
				c0.24-0.196,0.542-0.294,0.906-0.294c0.27,0,0.506,0.054,0.708,0.162c0.203,0.108,0.37,0.265,0.503,0.468
				c0.132,0.204,0.235,0.453,0.311,0.745c0.075,0.293,0.113,0.688,0.113,1.185c0,0.588-0.061,1.063-0.182,1.423
				c-0.121,0.361-0.301,0.641-0.541,0.837c-0.241,0.197-0.545,0.296-0.912,0.296c-0.482,0-0.861-0.173-1.138-0.52
				C210.228,31.028,210.064,30.349,210.064,29.408z M210.696,29.408c0,0.823,0.097,1.37,0.289,1.642
				c0.192,0.272,0.43,0.409,0.712,0.409c0.283,0,0.521-0.137,0.713-0.41c0.193-0.273,0.289-0.82,0.289-1.641
				c0-0.825-0.096-1.373-0.289-1.644c-0.192-0.271-0.432-0.407-0.719-0.407c-0.283,0-0.509,0.12-0.678,0.359
				C210.802,28.021,210.696,28.585,210.696,29.408z"/>
			<path d="M213.957,30.567l0.646-0.055c0.048,0.314,0.159,0.551,0.334,0.709c0.174,0.159,0.384,0.238,0.63,0.238
				c0.296,0,0.547-0.112,0.752-0.335s0.308-0.52,0.308-0.889c0-0.351-0.099-0.628-0.295-0.831c-0.197-0.203-0.456-0.304-0.775-0.304
				c-0.197,0-0.377,0.045-0.536,0.135c-0.159,0.09-0.284,0.207-0.376,0.351l-0.578-0.075l0.486-2.574h2.491v0.588h-1.999
				l-0.271,1.347c0.301-0.21,0.616-0.314,0.946-0.314c0.438,0,0.807,0.151,1.107,0.455c0.301,0.303,0.451,0.693,0.451,1.169
				c0,0.454-0.131,0.845-0.396,1.176c-0.32,0.406-0.76,0.608-1.315,0.608c-0.456,0-0.827-0.127-1.116-0.383
				C214.163,31.327,213.998,30.988,213.957,30.567z"/>
			<path d="M217.782,30.375v-0.619h1.89v0.619H217.782z"/>
			<path d="M223.415,31.288v0.591h-3.312c-0.005-0.148,0.02-0.291,0.071-0.427c0.085-0.226,0.22-0.448,0.405-0.667
				s0.453-0.472,0.805-0.759c0.545-0.447,0.912-0.8,1.104-1.062c0.191-0.261,0.287-0.507,0.287-0.74c0-0.244-0.086-0.45-0.261-0.617
				s-0.401-0.251-0.683-0.251c-0.296,0-0.533,0.089-0.711,0.267s-0.268,0.424-0.27,0.738l-0.633-0.065
				c0.044-0.472,0.207-0.831,0.489-1.079c0.282-0.247,0.662-0.371,1.138-0.371c0.481,0,0.861,0.133,1.143,0.4
				c0.279,0.267,0.42,0.597,0.42,0.991c0,0.2-0.041,0.397-0.123,0.591c-0.082,0.193-0.219,0.397-0.408,0.612
				c-0.19,0.214-0.506,0.508-0.949,0.882c-0.369,0.31-0.605,0.52-0.711,0.63c-0.104,0.111-0.191,0.222-0.26,0.333H223.415z"/>
			<path d="M227.308,31.288v0.591h-3.313c-0.004-0.148,0.02-0.291,0.072-0.427c0.084-0.226,0.219-0.448,0.405-0.667
				c0.186-0.219,0.454-0.472,0.805-0.759c0.544-0.447,0.913-0.8,1.104-1.062c0.191-0.261,0.287-0.507,0.287-0.74
				c0-0.244-0.088-0.45-0.262-0.617s-0.402-0.251-0.682-0.251c-0.297,0-0.533,0.089-0.711,0.267s-0.268,0.424-0.271,0.738
				l-0.632-0.065c0.043-0.472,0.205-0.831,0.488-1.079c0.283-0.247,0.662-0.371,1.139-0.371c0.48,0,0.861,0.133,1.141,0.4
				c0.281,0.267,0.421,0.597,0.421,0.991c0,0.2-0.041,0.397-0.123,0.591c-0.082,0.193-0.218,0.397-0.408,0.612
				s-0.507,0.508-0.948,0.882c-0.369,0.31-0.606,0.52-0.711,0.63c-0.105,0.111-0.191,0.222-0.26,0.333H227.308z"/>
		</g>
		<polyline style="fill:none;stroke:#000000;stroke-width:0.5;" points="76.034,35.069 79.278,33.501 78.054,36.432 82.601,34.221 
					"/>
		<path d="M75.29,35.918c0.748-0.111,1.262-0.13,1.887-0.168l-0.944-1.999c-0.146,0.179-0.767,0.843-1.33,1.351
			c-0.599,0.543-1.168,0.99-1.556,1.236C73.784,36.192,74.489,36.038,75.29,35.918"/>
		<polyline points="80.247,37.118 75.995,39.573 80.247,42.028 80.247,37.118 		"/>
		<line style="fill:none;stroke:#000000;" x1="75.7" y1="42.011" x2="75.7" y2="37.135"/>
		<rect x="133.149" y="27.093" style="fill:#FFFFFF;" width="30.919" height="5.819"/>
		<g>
			<path d="M143.945,42.097v-2.123l-1.932-2.888h0.807l0.988,1.511c0.182,0.282,0.352,0.565,0.509,0.848
				c0.15-0.262,0.333-0.557,0.547-0.885l0.971-1.473h0.772l-2,2.888v2.123H143.945z"/>
			<path d="M147.215,42.097v-5.011h3.623v0.591h-2.96v1.535h2.771V39.8h-2.771v1.706h3.076v0.591H147.215z"/>
			<path d="M151.843,42.097v-5.011h0.664v4.419h2.467v0.591H151.843z"/>
		</g>
		<g>
			<path d="M137.255,32.212v-5.011h0.663v4.419h2.468v0.591H137.255z"/>
			<path d="M142.451,32.212v-4.419h-1.651v-0.591h3.972v0.591h-1.657v4.419H142.451z"/>
			<path d="M147.37,32.212v-5.011h1.88c0.383,0,0.689,0.05,0.921,0.152s0.412,0.258,0.544,0.468
				c0.131,0.211,0.196,0.431,0.196,0.662c0,0.214-0.059,0.416-0.175,0.605c-0.116,0.189-0.291,0.342-0.526,0.458
				c0.304,0.089,0.536,0.24,0.699,0.455s0.244,0.467,0.244,0.759c0,0.235-0.049,0.453-0.148,0.654
				c-0.099,0.202-0.222,0.357-0.367,0.467s-0.329,0.192-0.549,0.248c-0.22,0.056-0.489,0.084-0.809,0.084H147.37z M148.033,29.307
				h1.083c0.294,0,0.505-0.02,0.633-0.058c0.169-0.05,0.296-0.133,0.381-0.25c0.086-0.116,0.128-0.262,0.128-0.438
				c0-0.167-0.039-0.313-0.119-0.439s-0.193-0.213-0.342-0.26c-0.148-0.046-0.402-0.07-0.763-0.07h-1.001V29.307z M148.033,31.621
				h1.247c0.215,0,0.365-0.008,0.451-0.024c0.153-0.027,0.28-0.073,0.383-0.137s0.188-0.157,0.253-0.279
				c0.066-0.122,0.1-0.262,0.1-0.422c0-0.187-0.048-0.349-0.144-0.487c-0.096-0.138-0.229-0.234-0.398-0.291
				c-0.17-0.056-0.414-0.083-0.733-0.083h-1.158V31.621z"/>
			<path d="M152.039,32.212v-5.011h0.663v4.419h2.468v0.591H152.039z"/>
			<path d="M159.248,27.202h0.663v2.895c0,0.503-0.057,0.903-0.171,1.2s-0.319,0.537-0.617,0.723
				c-0.297,0.186-0.688,0.279-1.171,0.279c-0.469,0-0.854-0.081-1.151-0.243c-0.299-0.162-0.512-0.396-0.64-0.703
				c-0.127-0.306-0.191-0.725-0.191-1.256v-2.895h0.663v2.892c0,0.435,0.041,0.756,0.122,0.962c0.08,0.207,0.22,0.365,0.417,0.477
				c0.196,0.112,0.438,0.167,0.723,0.167c0.487,0,0.835-0.11,1.042-0.332c0.208-0.221,0.312-0.646,0.312-1.275V27.202z"/>
		</g>
	</g>
</g>
<line style="fill:none;stroke:#000000;stroke-width:0.5;" x1="107.85" y1="29.909" x2="93.321" y2="11.525"/>
<line style="fill:none;stroke:#000000;stroke-width:0.5;" x1="93.321" y1="58.078" x2="107.85" y2="39.694"/>
<g>
	<g>
		<path d="M78.892,86.084v-6.422h1.702v0.755h-0.79v4.911h0.79v0.756H78.892z"/>
		<path d="M85.752,84.672h-1.101l-0.438-1.138h-2.003l-0.414,1.138h-1.073l1.952-5.01h1.07L85.752,84.672z M83.889,82.69
			l-0.69-1.859l-0.677,1.859H83.889z"/>
		<path d="M87.612,79.662v6.422H85.91v-0.756h0.79V80.41h-0.79v-0.749H87.612z"/>
	</g>
</g>
<g>
	<path d="M176.157,82.708V82.12l2.123-0.003v1.859c-0.326,0.26-0.662,0.455-1.009,0.586c-0.347,0.132-0.702,0.197-1.066,0.197
		c-0.492,0-0.939-0.105-1.342-0.316s-0.705-0.516-0.91-0.914c-0.205-0.399-0.308-0.844-0.308-1.336c0-0.488,0.102-0.943,0.306-1.366
		c0.204-0.422,0.497-0.736,0.88-0.941s0.824-0.308,1.323-0.308c0.362,0,0.689,0.059,0.982,0.176s0.522,0.281,0.688,0.491
		c0.167,0.209,0.293,0.483,0.38,0.82l-0.599,0.164c-0.075-0.255-0.169-0.456-0.28-0.602c-0.111-0.146-0.271-0.263-0.479-0.351
		c-0.207-0.087-0.438-0.131-0.69-0.131c-0.303,0-0.565,0.046-0.786,0.138s-0.399,0.214-0.535,0.364s-0.24,0.315-0.315,0.496
		c-0.128,0.31-0.191,0.646-0.191,1.008c0,0.447,0.076,0.82,0.23,1.121c0.153,0.301,0.378,0.524,0.672,0.67
		c0.294,0.146,0.605,0.219,0.937,0.219c0.287,0,0.567-0.055,0.841-0.166c0.273-0.11,0.48-0.228,0.622-0.354v-0.933H176.157z"/>
	<path d="M179.008,82.202c0-0.593,0.061-1.069,0.183-1.431c0.122-0.361,0.303-0.64,0.543-0.835c0.24-0.196,0.543-0.294,0.908-0.294
		c0.269,0,0.504,0.054,0.707,0.162s0.37,0.265,0.503,0.468c0.132,0.204,0.235,0.453,0.311,0.745
		c0.075,0.293,0.113,0.688,0.113,1.185c0,0.588-0.061,1.063-0.182,1.423c-0.121,0.361-0.301,0.641-0.542,0.838
		c-0.24,0.197-0.544,0.296-0.91,0.296c-0.483,0-0.863-0.174-1.139-0.52C179.173,83.822,179.008,83.143,179.008,82.202z
		 M179.64,82.202c0,0.822,0.097,1.37,0.289,1.642c0.192,0.272,0.43,0.409,0.713,0.409c0.282,0,0.52-0.137,0.712-0.41
		c0.193-0.273,0.289-0.82,0.289-1.641c0-0.825-0.096-1.373-0.289-1.644c-0.192-0.271-0.432-0.407-0.719-0.407
		c-0.283,0-0.509,0.12-0.677,0.359C179.747,80.815,179.64,81.379,179.64,82.202z"/>
	<path d="M182.901,83.36l0.646-0.055c0.048,0.314,0.159,0.551,0.333,0.709c0.175,0.159,0.385,0.238,0.631,0.238
		c0.296,0,0.547-0.112,0.752-0.335c0.205-0.224,0.308-0.52,0.308-0.889c0-0.351-0.099-0.628-0.296-0.831
		c-0.196-0.203-0.455-0.304-0.773-0.304c-0.198,0-0.378,0.045-0.537,0.135c-0.159,0.09-0.285,0.207-0.376,0.351l-0.577-0.075
		l0.485-2.574h2.491v0.588h-1.999l-0.271,1.347c0.301-0.21,0.616-0.314,0.947-0.314c0.438,0,0.807,0.151,1.107,0.455
		c0.301,0.303,0.451,0.693,0.451,1.169c0,0.453-0.133,0.845-0.396,1.176c-0.321,0.405-0.761,0.608-1.316,0.608
		c-0.456,0-0.828-0.128-1.116-0.383C183.106,84.12,182.942,83.782,182.901,83.36z"/>
</g>
<g>
	<g>
		<rect x="80.064" y="88.297" style="fill:none;stroke:#000000;stroke-width:0.5;" width="2.545" height="5.09"/>
		<rect x="91.874" y="88.297" style="fill:none;stroke:#000000;stroke-width:0.5;" width="2.546" height="5.09"/>
		<rect x="127.124" y="88.297" style="fill:none;stroke:#000000;stroke-width:0.5;" width="2.546" height="5.09"/>
		<rect x="226.435" y="88.662" style="fill:none;stroke:#000000;stroke-width:0.5;" width="2.545" height="4.725"/>
		<rect x="155.654" y="88.297" style="fill:none;stroke:#000000;stroke-width:0.5;" width="49.607" height="5.09"/>
		<rect x="262.046" y="88.662" style="fill:none;stroke:#000000;stroke-width:0.5;" width="2.545" height="4.725"/>
		<rect x="278.49" y="88.662" style="fill:none;stroke:#000000;stroke-width:0.5;" width="2.361" height="4.725"/>
		<line style="fill:none;stroke:#000000;stroke-width:0.5;" x1="115.497" y1="93.387" x2="115.497" y2="117.009"/>
		<line style="fill:none;stroke:#000000;stroke-width:0.5;" x1="103.686" y1="93.675" x2="103.686" y2="117.281"/>
		<line style="fill:none;stroke:#000000;stroke-width:0.5;" x1="91.874" y1="93.387" x2="91.874" y2="117.281"/>
		<polyline style="fill:none;stroke:#000000;stroke-width:0.5;" points="80.064,105.197 80.064,117.009 91.874,117.009 
			280.851,117.009 280.851,105.197 91.874,105.197 		"/>
		<g>
			<path d="M263.794,102.571h-0.615v-3.92c-0.147,0.141-0.342,0.282-0.582,0.424c-0.24,0.141-0.457,0.247-0.648,0.317v-0.595
				c0.345-0.162,0.646-0.357,0.902-0.588c0.258-0.23,0.44-0.453,0.547-0.67h0.396V102.571z"/>
		</g>
		<g>
			<path d="M252.92,101.979v0.592h-3.312c-0.005-0.148,0.02-0.291,0.071-0.428c0.085-0.225,0.22-0.447,0.405-0.666
				s0.454-0.472,0.806-0.759c0.544-0.446,0.912-0.801,1.104-1.062s0.287-0.508,0.287-0.74c0-0.243-0.087-0.449-0.262-0.616
				c-0.174-0.168-0.401-0.251-0.682-0.251c-0.296,0-0.533,0.088-0.711,0.266s-0.268,0.424-0.27,0.738l-0.633-0.064
				c0.043-0.472,0.206-0.831,0.488-1.078c0.283-0.247,0.662-0.371,1.139-0.371c0.48,0,0.861,0.133,1.142,0.4
				c0.28,0.266,0.421,0.597,0.421,0.99c0,0.201-0.041,0.398-0.123,0.592s-0.219,0.397-0.409,0.611
				c-0.19,0.215-0.506,0.509-0.948,0.883c-0.369,0.31-0.606,0.52-0.711,0.63s-0.191,0.222-0.26,0.333H252.92z"/>
		</g>
		<g>
			<path d="M237.902,101.249l0.615-0.082c0.07,0.348,0.19,0.6,0.36,0.753c0.17,0.154,0.377,0.231,0.621,0.231
				c0.289,0,0.533-0.101,0.732-0.301c0.199-0.201,0.299-0.449,0.299-0.746c0-0.282-0.092-0.515-0.276-0.698
				s-0.419-0.275-0.704-0.275c-0.116,0-0.261,0.022-0.434,0.068l0.068-0.54c0.041,0.005,0.073,0.007,0.099,0.007
				c0.262,0,0.498-0.068,0.708-0.205c0.209-0.137,0.314-0.348,0.314-0.632c0-0.227-0.077-0.413-0.229-0.561
				c-0.152-0.148-0.35-0.223-0.591-0.223c-0.24,0-0.439,0.075-0.599,0.226s-0.262,0.376-0.308,0.677l-0.615-0.109
				c0.075-0.412,0.246-0.732,0.513-0.959s0.599-0.34,0.995-0.34c0.273,0,0.524,0.059,0.755,0.176s0.406,0.277,0.528,0.48
				s0.183,0.418,0.183,0.646c0,0.216-0.058,0.413-0.175,0.591c-0.115,0.178-0.288,0.319-0.516,0.424
				c0.296,0.068,0.526,0.21,0.69,0.426c0.164,0.215,0.246,0.484,0.246,0.808c0,0.438-0.159,0.809-0.479,1.113
				c-0.319,0.304-0.723,0.456-1.21,0.456c-0.439,0-0.805-0.131-1.096-0.394C238.109,102.005,237.943,101.665,237.902,101.249z"/>
		</g>
		<g>
			<path d="M228.082,102.571v-1.199h-2.174v-0.564l2.285-3.247h0.504v3.247h0.676v0.564h-0.676v1.199H228.082z M228.082,100.808
				v-2.26l-1.57,2.26H228.082z"/>
		</g>
		<g>
			<path d="M214.319,101.259l0.646-0.055c0.048,0.314,0.159,0.551,0.333,0.709c0.175,0.158,0.385,0.238,0.631,0.238
				c0.296,0,0.547-0.112,0.752-0.336c0.205-0.223,0.308-0.52,0.308-0.889c0-0.351-0.099-0.627-0.296-0.83s-0.455-0.305-0.773-0.305
				c-0.199,0-0.378,0.046-0.537,0.136s-0.285,0.206-0.376,0.351l-0.577-0.076l0.484-2.573h2.492v0.588h-2l-0.27,1.347
				c0.301-0.21,0.616-0.314,0.947-0.314c0.438,0,0.807,0.151,1.107,0.455c0.301,0.303,0.451,0.692,0.451,1.168
				c0,0.454-0.133,0.846-0.396,1.176c-0.322,0.406-0.761,0.609-1.316,0.609c-0.456,0-0.828-0.128-1.116-0.383
				C214.524,102.019,214.36,101.681,214.319,101.259z"/>
		</g>
		<g>
			<path d="M205.719,98.788l-0.611,0.047c-0.055-0.241-0.132-0.416-0.232-0.525c-0.166-0.176-0.371-0.264-0.615-0.264
				c-0.196,0-0.368,0.055-0.516,0.164c-0.194,0.142-0.347,0.348-0.459,0.619c-0.111,0.271-0.169,0.657-0.174,1.158
				c0.148-0.226,0.329-0.393,0.543-0.502c0.215-0.109,0.439-0.164,0.674-0.164c0.41,0,0.76,0.15,1.048,0.452
				s0.433,0.692,0.433,1.171c0,0.314-0.068,0.606-0.204,0.877c-0.136,0.27-0.321,0.477-0.559,0.62s-0.506,0.216-0.807,0.216
				c-0.513,0-0.931-0.189-1.255-0.566c-0.323-0.377-0.484-0.998-0.484-1.864c0-0.969,0.179-1.673,0.536-2.112
				c0.313-0.383,0.732-0.574,1.261-0.574c0.395,0,0.718,0.11,0.97,0.332C205.519,98.093,205.669,98.397,205.719,98.788z
				 M203.208,100.948c0,0.211,0.045,0.414,0.135,0.607c0.09,0.194,0.216,0.342,0.378,0.443s0.331,0.152,0.509,0.152
				c0.26,0,0.483-0.105,0.67-0.314c0.188-0.21,0.281-0.495,0.281-0.855c0-0.346-0.093-0.619-0.277-0.818s-0.417-0.299-0.697-0.299
				c-0.278,0-0.514,0.1-0.707,0.299C203.304,100.362,203.208,100.624,203.208,100.948z"/>
		</g>
		<g>
			<path d="M190.91,98.217v-0.591h3.244v0.479c-0.32,0.339-0.635,0.79-0.949,1.354c-0.313,0.563-0.555,1.141-0.727,1.736
				c-0.123,0.419-0.201,0.878-0.236,1.377h-0.631c0.006-0.395,0.084-0.87,0.232-1.429s0.359-1.097,0.637-1.615
				s0.572-0.955,0.883-1.311H190.91z"/>
		</g>
		<g>
			<path d="M179.947,99.854c-0.256-0.094-0.444-0.228-0.567-0.4s-0.185-0.381-0.185-0.622c0-0.364,0.131-0.671,0.393-0.919
				c0.263-0.249,0.611-0.373,1.046-0.373c0.438,0,0.79,0.127,1.057,0.381s0.399,0.563,0.399,0.928c0,0.232-0.061,0.436-0.183,0.607
				s-0.307,0.305-0.556,0.398c0.308,0.1,0.542,0.262,0.703,0.484c0.16,0.224,0.24,0.49,0.24,0.801c0,0.428-0.151,0.788-0.454,1.08
				c-0.304,0.291-0.702,0.438-1.196,0.438c-0.495,0-0.894-0.146-1.196-0.439c-0.304-0.293-0.455-0.658-0.455-1.096
				c0-0.326,0.083-0.599,0.248-0.818S179.641,99.934,179.947,99.854z M179.625,101.126c0,0.175,0.041,0.345,0.125,0.509
				c0.083,0.164,0.206,0.291,0.37,0.381s0.341,0.136,0.53,0.136c0.294,0,0.536-0.095,0.728-0.284s0.287-0.43,0.287-0.722
				c0-0.296-0.099-0.541-0.295-0.734c-0.197-0.193-0.444-0.291-0.74-0.291c-0.29,0-0.529,0.096-0.72,0.287
				S179.625,100.839,179.625,101.126z M179.824,98.812c0,0.237,0.076,0.431,0.229,0.581c0.153,0.15,0.352,0.226,0.595,0.226
				c0.237,0,0.432-0.074,0.583-0.224s0.228-0.332,0.228-0.549c0-0.226-0.078-0.415-0.234-0.569c-0.156-0.153-0.351-0.23-0.583-0.23
				c-0.234,0-0.43,0.075-0.584,0.226C179.901,98.422,179.824,98.602,179.824,98.812z"/>
		</g>
		<g>
			<path d="M167.054,101.413l0.592-0.055c0.051,0.277,0.146,0.479,0.287,0.604s0.322,0.188,0.543,0.188
				c0.189,0,0.355-0.044,0.498-0.131c0.143-0.086,0.259-0.202,0.35-0.347c0.092-0.145,0.168-0.34,0.229-0.586
				s0.093-0.497,0.093-0.752c0-0.027-0.002-0.068-0.004-0.123c-0.123,0.196-0.291,0.354-0.504,0.477s-0.443,0.183-0.692,0.183
				c-0.415,0-0.766-0.15-1.053-0.451s-0.431-0.697-0.431-1.189c0-0.508,0.15-0.917,0.449-1.227c0.3-0.31,0.676-0.465,1.127-0.465
				c0.325,0,0.623,0.088,0.893,0.264c0.271,0.175,0.477,0.425,0.615,0.75c0.141,0.324,0.211,0.795,0.211,1.41
				c0,0.64-0.069,1.149-0.209,1.529c-0.139,0.379-0.346,0.668-0.619,0.866c-0.275,0.198-0.598,0.298-0.967,0.298
				c-0.392,0-0.711-0.109-0.96-0.327S167.105,101.807,167.054,101.413z M169.574,99.201c0-0.354-0.094-0.634-0.281-0.841
				c-0.189-0.207-0.415-0.311-0.68-0.311c-0.273,0-0.512,0.111-0.714,0.334c-0.202,0.224-0.304,0.514-0.304,0.869
				c0,0.318,0.096,0.578,0.289,0.777c0.191,0.199,0.43,0.299,0.712,0.299c0.284,0,0.519-0.1,0.702-0.299
				S169.574,99.555,169.574,99.201z"/>
		</g>
		<g>
			<path d="M155.193,102.571h-0.615v-3.92c-0.147,0.141-0.342,0.282-0.582,0.424c-0.24,0.141-0.457,0.247-0.648,0.317v-0.595
				c0.345-0.162,0.646-0.357,0.902-0.588c0.258-0.23,0.44-0.453,0.547-0.67h0.396V102.571z"/>
			<path d="M156.769,100.101c0-0.593,0.061-1.069,0.184-1.431c0.121-0.361,0.303-0.64,0.543-0.836s0.543-0.294,0.907-0.294
				c0.269,0,0.505,0.054,0.708,0.162c0.202,0.108,0.369,0.265,0.502,0.469s0.236,0.452,0.311,0.745
				c0.076,0.293,0.113,0.688,0.113,1.185c0,0.588-0.061,1.062-0.182,1.423c-0.12,0.361-0.301,0.641-0.541,0.838
				s-0.545,0.296-0.911,0.296c-0.483,0-0.862-0.174-1.138-0.52C156.934,101.72,156.769,101.041,156.769,100.101z M157.402,100.101
				c0,0.822,0.096,1.369,0.289,1.642c0.191,0.272,0.43,0.409,0.712,0.409s0.521-0.137,0.712-0.41
				c0.193-0.273,0.289-0.82,0.289-1.641c0-0.825-0.096-1.373-0.289-1.645c-0.191-0.271-0.432-0.406-0.719-0.406
				c-0.283,0-0.508,0.119-0.677,0.358C157.507,98.714,157.402,99.277,157.402,100.101z"/>
		</g>
		<g>
			<path d="M143.553,102.571h-0.615v-3.92c-0.147,0.141-0.342,0.282-0.582,0.424c-0.241,0.141-0.457,0.247-0.648,0.317v-0.595
				c0.345-0.162,0.646-0.357,0.902-0.588c0.258-0.23,0.44-0.453,0.547-0.67h0.396V102.571z"/>
			<path d="M147.447,102.571h-0.615v-3.92c-0.148,0.141-0.343,0.282-0.583,0.424c-0.24,0.141-0.456,0.247-0.647,0.317v-0.595
				c0.344-0.162,0.645-0.357,0.902-0.588c0.257-0.23,0.439-0.453,0.547-0.67h0.396V102.571z"/>
		</g>
		<g>
			<path d="M131.914,102.571h-0.615v-3.92c-0.148,0.141-0.342,0.282-0.583,0.424c-0.241,0.141-0.457,0.247-0.648,0.317v-0.595
				c0.344-0.162,0.645-0.357,0.902-0.588s0.44-0.453,0.547-0.67h0.396V102.571z"/>
			<path d="M136.723,101.979v0.592h-3.312c-0.004-0.148,0.02-0.291,0.072-0.428c0.084-0.225,0.219-0.447,0.405-0.666
				c0.186-0.219,0.454-0.472,0.805-0.759c0.544-0.446,0.913-0.801,1.104-1.062s0.287-0.508,0.287-0.74
				c0-0.243-0.087-0.449-0.262-0.616c-0.174-0.168-0.401-0.251-0.682-0.251c-0.296,0-0.533,0.088-0.711,0.266
				s-0.268,0.424-0.27,0.738l-0.632-0.064c0.043-0.472,0.206-0.831,0.489-1.078s0.662-0.371,1.138-0.371
				c0.481,0,0.861,0.133,1.142,0.4c0.28,0.266,0.42,0.597,0.42,0.99c0,0.201-0.041,0.398-0.123,0.592s-0.218,0.397-0.409,0.611
				c-0.19,0.215-0.506,0.509-0.948,0.883c-0.369,0.31-0.606,0.52-0.711,0.63s-0.191,0.222-0.26,0.333H136.723z"/>
		</g>
		<g>
			<path d="M120.024,102.571h-0.615v-3.92c-0.148,0.141-0.342,0.282-0.583,0.424c-0.241,0.141-0.457,0.247-0.648,0.317v-0.595
				c0.344-0.162,0.645-0.357,0.902-0.588s0.44-0.453,0.547-0.67h0.396V102.571z"/>
			<path d="M121.603,101.249l0.615-0.082c0.071,0.348,0.191,0.6,0.36,0.753c0.17,0.154,0.377,0.231,0.621,0.231
				c0.29,0,0.534-0.101,0.733-0.301c0.2-0.201,0.299-0.449,0.299-0.746c0-0.282-0.092-0.515-0.277-0.698s-0.419-0.275-0.704-0.275
				c-0.116,0-0.261,0.022-0.434,0.068l0.068-0.54c0.041,0.005,0.074,0.007,0.099,0.007c0.262,0,0.498-0.068,0.708-0.205
				s0.314-0.348,0.314-0.632c0-0.227-0.076-0.413-0.229-0.561c-0.153-0.148-0.35-0.223-0.591-0.223
				c-0.239,0-0.438,0.075-0.598,0.226s-0.262,0.376-0.308,0.677l-0.615-0.109c0.075-0.412,0.246-0.732,0.513-0.959
				s0.598-0.34,0.995-0.34c0.273,0,0.525,0.059,0.755,0.176s0.406,0.277,0.528,0.48c0.122,0.203,0.183,0.418,0.183,0.646
				c0,0.216-0.058,0.413-0.174,0.591s-0.288,0.319-0.516,0.424c0.296,0.068,0.526,0.21,0.69,0.426
				c0.164,0.215,0.246,0.484,0.246,0.808c0,0.438-0.16,0.809-0.479,1.113c-0.319,0.304-0.722,0.456-1.21,0.456
				c-0.44,0-0.805-0.131-1.096-0.394C121.81,102.005,121.644,101.665,121.603,101.249z"/>
		</g>
		<g>
			<path d="M107.884,102.571h-0.615v-3.92c-0.148,0.141-0.342,0.282-0.583,0.424c-0.241,0.141-0.457,0.247-0.648,0.317v-0.595
				c0.344-0.162,0.645-0.357,0.902-0.588s0.44-0.453,0.547-0.67h0.396V102.571z"/>
			<path d="M111.432,102.571v-1.199h-2.174v-0.564l2.287-3.247h0.502v3.247h0.677v0.564h-0.677v1.199H111.432z M111.432,100.808
				v-2.26l-1.569,2.26H111.432z"/>
		</g>
		<g>
			<path d="M96.245,102.571h-0.615v-3.92c-0.148,0.141-0.342,0.282-0.583,0.424c-0.241,0.141-0.457,0.247-0.648,0.317v-0.595
				c0.344-0.162,0.645-0.357,0.902-0.588s0.44-0.453,0.547-0.67h0.396V102.571z"/>
			<path d="M97.82,101.259l0.646-0.055c0.048,0.314,0.159,0.551,0.333,0.709c0.175,0.158,0.385,0.238,0.631,0.238
				c0.296,0,0.547-0.112,0.752-0.336c0.205-0.223,0.308-0.52,0.308-0.889c0-0.351-0.099-0.627-0.296-0.83
				c-0.197-0.203-0.455-0.305-0.774-0.305c-0.198,0-0.377,0.046-0.537,0.136s-0.285,0.206-0.376,0.351l-0.578-0.076l0.485-2.573
				h2.492v0.588h-2l-0.27,1.347c0.301-0.21,0.616-0.314,0.947-0.314c0.438,0,0.807,0.151,1.107,0.455
				c0.301,0.303,0.451,0.692,0.451,1.168c0,0.454-0.132,0.846-0.396,1.176c-0.321,0.406-0.76,0.609-1.316,0.609
				c-0.456,0-0.828-0.128-1.116-0.383C98.026,102.019,97.861,101.681,97.82,101.259z"/>
		</g>
		<g>
			<path d="M84.184,102.571h-0.615v-3.92c-0.148,0.141-0.342,0.282-0.583,0.424c-0.241,0.141-0.457,0.247-0.648,0.317v-0.595
				c0.344-0.162,0.645-0.357,0.902-0.588s0.44-0.453,0.547-0.67h0.396V102.571z"/>
			<path d="M88.952,98.788l-0.612,0.047c-0.055-0.241-0.132-0.416-0.232-0.525c-0.167-0.176-0.372-0.264-0.615-0.264
				c-0.196,0-0.368,0.055-0.516,0.164c-0.194,0.142-0.346,0.348-0.458,0.619c-0.112,0.271-0.17,0.657-0.174,1.158
				c0.148-0.226,0.329-0.393,0.543-0.502s0.438-0.164,0.673-0.164c0.41,0,0.759,0.15,1.048,0.452
				c0.288,0.302,0.432,0.692,0.432,1.171c0,0.314-0.068,0.606-0.204,0.877c-0.135,0.27-0.322,0.477-0.559,0.62
				s-0.506,0.216-0.807,0.216c-0.513,0-0.931-0.189-1.254-0.566s-0.485-0.998-0.485-1.864c0-0.969,0.179-1.673,0.537-2.112
				c0.312-0.383,0.732-0.574,1.261-0.574c0.394,0,0.717,0.11,0.969,0.332C88.75,98.093,88.901,98.397,88.952,98.788z
				 M86.439,100.948c0,0.211,0.045,0.414,0.135,0.607c0.09,0.194,0.216,0.342,0.378,0.443s0.332,0.152,0.509,0.152
				c0.26,0,0.483-0.105,0.67-0.314c0.187-0.21,0.28-0.495,0.28-0.855c0-0.346-0.092-0.619-0.277-0.818s-0.417-0.299-0.697-0.299
				c-0.278,0-0.514,0.1-0.708,0.299S86.439,100.624,86.439,100.948z"/>
		</g>
		<g>
			<path d="M273.66,113.465h-0.615v-3.92c-0.147,0.141-0.342,0.282-0.582,0.424c-0.24,0.141-0.457,0.247-0.648,0.317v-0.595
				c0.345-0.162,0.646-0.357,0.902-0.588c0.258-0.23,0.44-0.453,0.547-0.67h0.396V113.465z"/>
			<path d="M275.277,109.11v-0.591h3.243v0.479c-0.319,0.339-0.635,0.79-0.948,1.354c-0.313,0.563-0.556,1.141-0.727,1.736
				c-0.123,0.419-0.201,0.878-0.236,1.377h-0.632c0.007-0.395,0.084-0.87,0.232-1.429s0.36-1.097,0.638-1.615
				c0.276-0.519,0.571-0.955,0.883-1.311H275.277z"/>
		</g>
		<g>
			<path d="M261.849,113.465h-0.615v-3.92c-0.147,0.141-0.342,0.282-0.582,0.424c-0.24,0.141-0.457,0.247-0.648,0.317v-0.595
				c0.345-0.162,0.646-0.357,0.902-0.588c0.258-0.23,0.44-0.453,0.547-0.67h0.396V113.465z"/>
			<path d="M264.372,110.748c-0.255-0.094-0.444-0.228-0.567-0.4s-0.185-0.381-0.185-0.622c0-0.364,0.131-0.671,0.394-0.919
				c0.262-0.249,0.61-0.373,1.045-0.373c0.438,0,0.79,0.127,1.057,0.381s0.4,0.563,0.4,0.928c0,0.232-0.062,0.436-0.184,0.607
				s-0.307,0.305-0.555,0.398c0.307,0.1,0.541,0.262,0.702,0.484c0.16,0.224,0.241,0.49,0.241,0.801c0,0.428-0.152,0.788-0.455,1.08
				c-0.303,0.291-0.702,0.438-1.196,0.438s-0.894-0.146-1.196-0.439s-0.455-0.658-0.455-1.096c0-0.326,0.083-0.599,0.248-0.818
				S264.066,110.827,264.372,110.748z M264.05,112.02c0,0.175,0.042,0.345,0.125,0.509s0.207,0.291,0.371,0.381
				s0.34,0.136,0.529,0.136c0.294,0,0.537-0.095,0.729-0.284s0.287-0.43,0.287-0.722c0-0.296-0.099-0.541-0.296-0.734
				s-0.444-0.291-0.74-0.291c-0.289,0-0.529,0.096-0.72,0.287S264.05,111.732,264.05,112.02z M264.249,109.705
				c0,0.237,0.076,0.431,0.229,0.581c0.152,0.15,0.351,0.226,0.594,0.226c0.237,0,0.432-0.074,0.583-0.224s0.228-0.332,0.228-0.549
				c0-0.226-0.078-0.415-0.234-0.569c-0.156-0.153-0.35-0.23-0.582-0.23c-0.235,0-0.43,0.075-0.585,0.226
				S264.249,109.495,264.249,109.705z"/>
		</g>
		<g>
			<path d="M250.059,113.465h-0.615v-3.92c-0.147,0.141-0.342,0.282-0.582,0.424c-0.24,0.141-0.457,0.247-0.648,0.317v-0.595
				c0.345-0.162,0.646-0.357,0.902-0.588c0.258-0.23,0.44-0.453,0.547-0.67h0.396V113.465z"/>
			<path d="M251.727,112.307l0.592-0.055c0.05,0.277,0.146,0.479,0.287,0.604c0.141,0.125,0.322,0.188,0.543,0.188
				c0.189,0,0.354-0.044,0.497-0.131c0.143-0.086,0.26-0.202,0.351-0.347s0.168-0.34,0.229-0.586
				c0.063-0.246,0.093-0.497,0.093-0.752c0-0.027-0.001-0.068-0.003-0.123c-0.123,0.196-0.292,0.354-0.505,0.477
				s-0.443,0.183-0.692,0.183c-0.414,0-0.766-0.15-1.053-0.451s-0.43-0.697-0.43-1.189c0-0.508,0.149-0.917,0.449-1.227
				s0.675-0.465,1.126-0.465c0.326,0,0.624,0.088,0.894,0.264c0.271,0.175,0.476,0.425,0.615,0.75
				c0.141,0.324,0.211,0.795,0.211,1.41c0,0.64-0.07,1.149-0.209,1.529c-0.139,0.379-0.346,0.668-0.62,0.866
				s-0.597,0.298-0.966,0.298c-0.392,0-0.712-0.109-0.961-0.327C251.926,113.006,251.777,112.7,251.727,112.307z M254.247,110.095
				c0-0.354-0.095-0.634-0.282-0.841c-0.188-0.207-0.414-0.311-0.679-0.311c-0.273,0-0.512,0.111-0.715,0.334
				c-0.202,0.224-0.304,0.514-0.304,0.869c0,0.318,0.097,0.578,0.289,0.777s0.43,0.299,0.712,0.299c0.285,0,0.52-0.1,0.703-0.299
				S254.247,110.448,254.247,110.095z"/>
		</g>
		<g>
			<path d="M239.185,112.873v0.592h-3.312c-0.005-0.148,0.02-0.291,0.071-0.428c0.085-0.225,0.22-0.447,0.405-0.666
				s0.454-0.472,0.806-0.759c0.544-0.446,0.912-0.801,1.104-1.062s0.287-0.508,0.287-0.74c0-0.243-0.087-0.449-0.262-0.616
				c-0.174-0.168-0.401-0.251-0.682-0.251c-0.296,0-0.533,0.088-0.711,0.266s-0.268,0.424-0.27,0.738l-0.633-0.064
				c0.043-0.472,0.206-0.831,0.488-1.078c0.283-0.247,0.662-0.371,1.139-0.371c0.48,0,0.861,0.133,1.142,0.4
				c0.28,0.266,0.421,0.597,0.421,0.99c0,0.201-0.041,0.398-0.123,0.592s-0.219,0.397-0.409,0.611
				c-0.19,0.215-0.506,0.509-0.948,0.883c-0.369,0.31-0.606,0.52-0.711,0.63s-0.191,0.222-0.26,0.333H239.185z"/>
			<path d="M239.845,110.994c0-0.593,0.061-1.069,0.183-1.431s0.303-0.64,0.543-0.836s0.543-0.294,0.907-0.294
				c0.27,0,0.505,0.054,0.708,0.162s0.37,0.265,0.503,0.469c0.132,0.204,0.235,0.452,0.311,0.745s0.113,0.688,0.113,1.185
				c0,0.588-0.061,1.062-0.182,1.423s-0.302,0.641-0.542,0.838s-0.544,0.296-0.911,0.296c-0.482,0-0.862-0.174-1.138-0.52
				C240.01,112.613,239.845,111.935,239.845,110.994z M240.477,110.994c0,0.822,0.097,1.369,0.289,1.642s0.43,0.409,0.712,0.409
				c0.283,0,0.521-0.137,0.713-0.41s0.289-0.82,0.289-1.641c0-0.825-0.097-1.373-0.289-1.645s-0.432-0.406-0.719-0.406
				c-0.283,0-0.509,0.119-0.678,0.358C240.583,109.607,240.477,110.171,240.477,110.994z"/>
		</g>
		<g>
			<path d="M227.396,112.873v0.592h-3.312c-0.005-0.148,0.02-0.291,0.071-0.428c0.085-0.225,0.22-0.447,0.405-0.666
				s0.454-0.472,0.806-0.759c0.544-0.446,0.912-0.801,1.104-1.062s0.287-0.508,0.287-0.74c0-0.243-0.087-0.449-0.262-0.616
				c-0.174-0.168-0.401-0.251-0.682-0.251c-0.296,0-0.533,0.088-0.711,0.266s-0.268,0.424-0.27,0.738l-0.633-0.064
				c0.043-0.472,0.206-0.831,0.488-1.078c0.283-0.247,0.662-0.371,1.139-0.371c0.48,0,0.861,0.133,1.142,0.4
				c0.28,0.266,0.421,0.597,0.421,0.99c0,0.201-0.041,0.398-0.123,0.592s-0.219,0.397-0.409,0.611
				c-0.19,0.215-0.506,0.509-0.948,0.883c-0.369,0.31-0.606,0.52-0.711,0.63s-0.191,0.222-0.26,0.333H227.396z"/>
			<path d="M230.373,113.465h-0.615v-3.92c-0.147,0.141-0.342,0.282-0.582,0.424c-0.24,0.141-0.457,0.247-0.648,0.317v-0.595
				c0.345-0.162,0.646-0.357,0.902-0.588c0.258-0.23,0.44-0.453,0.547-0.67h0.396V113.465z"/>
		</g>
		<g>
			<path d="M215.605,112.873v0.592h-3.312c-0.005-0.148,0.02-0.291,0.071-0.428c0.085-0.225,0.22-0.447,0.405-0.666
				s0.454-0.472,0.806-0.759c0.544-0.446,0.912-0.801,1.104-1.062s0.287-0.508,0.287-0.74c0-0.243-0.087-0.449-0.262-0.616
				c-0.174-0.168-0.401-0.251-0.682-0.251c-0.296,0-0.533,0.088-0.711,0.266s-0.268,0.424-0.27,0.738l-0.633-0.064
				c0.043-0.472,0.206-0.831,0.488-1.078c0.283-0.247,0.662-0.371,1.139-0.371c0.48,0,0.861,0.133,1.142,0.4
				c0.28,0.266,0.421,0.597,0.421,0.99c0,0.201-0.041,0.398-0.123,0.592s-0.219,0.397-0.409,0.611
				c-0.19,0.215-0.506,0.509-0.948,0.883c-0.369,0.31-0.606,0.52-0.711,0.63s-0.191,0.222-0.26,0.333H215.605z"/>
			<path d="M219.498,112.873v0.592h-3.312c-0.005-0.148,0.02-0.291,0.071-0.428c0.085-0.225,0.22-0.447,0.405-0.666
				s0.454-0.472,0.806-0.759c0.544-0.446,0.912-0.801,1.104-1.062s0.287-0.508,0.287-0.74c0-0.243-0.087-0.449-0.262-0.616
				c-0.174-0.168-0.401-0.251-0.682-0.251c-0.296,0-0.533,0.088-0.711,0.266s-0.268,0.424-0.27,0.738l-0.633-0.064
				c0.043-0.472,0.206-0.831,0.488-1.078c0.283-0.247,0.662-0.371,1.139-0.371c0.48,0,0.861,0.133,1.142,0.4
				c0.28,0.266,0.421,0.597,0.421,0.99c0,0.201-0.041,0.398-0.123,0.592s-0.219,0.397-0.409,0.611
				c-0.19,0.215-0.506,0.509-0.948,0.883c-0.369,0.31-0.606,0.52-0.711,0.63s-0.191,0.222-0.26,0.333H219.498z"/>
		</g>
		<g>
			<path d="M203.815,112.873v0.592h-3.312c-0.005-0.148,0.02-0.291,0.071-0.428c0.085-0.225,0.22-0.447,0.405-0.666
				s0.454-0.472,0.806-0.759c0.544-0.446,0.912-0.801,1.104-1.062s0.287-0.508,0.287-0.74c0-0.243-0.087-0.449-0.262-0.616
				c-0.174-0.168-0.401-0.251-0.682-0.251c-0.296,0-0.533,0.088-0.711,0.266s-0.268,0.424-0.27,0.738l-0.633-0.064
				c0.043-0.472,0.206-0.831,0.488-1.078c0.283-0.247,0.662-0.371,1.139-0.371c0.48,0,0.861,0.133,1.142,0.4
				c0.28,0.266,0.421,0.597,0.421,0.99c0,0.201-0.041,0.398-0.123,0.592s-0.219,0.397-0.409,0.611
				c-0.19,0.215-0.506,0.509-0.948,0.883c-0.369,0.31-0.606,0.52-0.711,0.63s-0.191,0.222-0.26,0.333H203.815z"/>
			<path d="M204.478,112.143l0.615-0.082c0.07,0.348,0.19,0.6,0.36,0.753c0.17,0.154,0.377,0.231,0.621,0.231
				c0.289,0,0.533-0.101,0.732-0.301c0.199-0.201,0.299-0.449,0.299-0.746c0-0.282-0.092-0.515-0.276-0.698
				s-0.419-0.275-0.704-0.275c-0.116,0-0.261,0.022-0.434,0.068l0.068-0.54c0.041,0.005,0.073,0.007,0.099,0.007
				c0.262,0,0.498-0.068,0.708-0.205c0.209-0.137,0.314-0.348,0.314-0.632c0-0.227-0.077-0.413-0.229-0.561
				c-0.152-0.148-0.35-0.223-0.591-0.223c-0.24,0-0.439,0.075-0.599,0.226s-0.262,0.376-0.308,0.677l-0.615-0.109
				c0.075-0.412,0.246-0.732,0.513-0.959s0.599-0.34,0.995-0.34c0.273,0,0.524,0.059,0.755,0.176s0.406,0.277,0.528,0.48
				s0.183,0.418,0.183,0.646c0,0.216-0.058,0.413-0.175,0.591c-0.115,0.178-0.288,0.319-0.516,0.424
				c0.296,0.068,0.526,0.21,0.69,0.426c0.164,0.215,0.246,0.484,0.246,0.808c0,0.438-0.159,0.809-0.479,1.113
				c-0.319,0.304-0.723,0.456-1.21,0.456c-0.439,0-0.805-0.131-1.096-0.394C204.685,112.898,204.519,112.559,204.478,112.143z"/>
		</g>
		<g>
			<path d="M192.156,112.873v0.592h-3.312c-0.005-0.148,0.02-0.291,0.071-0.428c0.085-0.225,0.22-0.447,0.405-0.666
				s0.454-0.472,0.806-0.759c0.544-0.446,0.912-0.801,1.104-1.062s0.287-0.508,0.287-0.74c0-0.243-0.087-0.449-0.262-0.616
				c-0.174-0.168-0.401-0.251-0.682-0.251c-0.296,0-0.533,0.088-0.711,0.266s-0.268,0.424-0.27,0.738l-0.633-0.064
				c0.043-0.472,0.206-0.831,0.488-1.078c0.283-0.247,0.662-0.371,1.139-0.371c0.48,0,0.861,0.133,1.142,0.4
				c0.28,0.266,0.421,0.597,0.421,0.99c0,0.201-0.041,0.398-0.123,0.592s-0.219,0.397-0.409,0.611
				c-0.19,0.215-0.506,0.509-0.948,0.883c-0.369,0.31-0.606,0.52-0.711,0.63s-0.191,0.222-0.26,0.333H192.156z"/>
			<path d="M194.788,113.465v-1.199h-2.174v-0.564l2.286-3.247h0.503v3.247h0.677v0.564h-0.677v1.199H194.788z M194.788,111.701
				v-2.26l-1.569,2.26H194.788z"/>
		</g>
		<g>
			<path d="M180.287,112.873v0.592h-3.313c-0.004-0.148,0.02-0.291,0.072-0.428c0.084-0.225,0.219-0.447,0.404-0.666
				c0.187-0.219,0.455-0.472,0.806-0.759c0.544-0.446,0.913-0.801,1.104-1.062s0.287-0.508,0.287-0.74
				c0-0.243-0.088-0.449-0.262-0.616c-0.174-0.168-0.402-0.251-0.682-0.251c-0.297,0-0.533,0.088-0.711,0.266
				s-0.268,0.424-0.271,0.738l-0.632-0.064c0.043-0.472,0.205-0.831,0.488-1.078s0.662-0.371,1.139-0.371
				c0.48,0,0.861,0.133,1.141,0.4c0.281,0.266,0.421,0.597,0.421,0.99c0,0.201-0.041,0.398-0.123,0.592s-0.218,0.397-0.409,0.611
				c-0.189,0.215-0.506,0.509-0.947,0.883c-0.369,0.31-0.606,0.52-0.711,0.63c-0.105,0.11-0.191,0.222-0.26,0.333H180.287z"/>
			<path d="M180.947,112.152l0.646-0.055c0.048,0.314,0.159,0.551,0.333,0.709c0.175,0.158,0.385,0.238,0.631,0.238
				c0.297,0,0.547-0.112,0.752-0.336c0.205-0.223,0.308-0.52,0.308-0.889c0-0.351-0.099-0.627-0.296-0.83s-0.455-0.305-0.773-0.305
				c-0.199,0-0.377,0.046-0.537,0.136s-0.285,0.206-0.376,0.351l-0.577-0.076l0.484-2.573h2.492v0.588h-2l-0.27,1.347
				c0.301-0.21,0.616-0.314,0.947-0.314c0.438,0,0.807,0.151,1.107,0.455c0.301,0.303,0.451,0.692,0.451,1.168
				c0,0.454-0.133,0.846-0.396,1.176c-0.322,0.406-0.76,0.609-1.316,0.609c-0.455,0-0.828-0.128-1.116-0.383
				C181.152,112.912,180.988,112.574,180.947,112.152z"/>
		</g>
		<g>
			<path d="M168.249,112.873v0.592h-3.313c-0.004-0.148,0.02-0.291,0.072-0.428c0.084-0.225,0.219-0.447,0.404-0.666
				s0.454-0.472,0.805-0.759c0.545-0.446,0.913-0.801,1.104-1.062s0.287-0.508,0.287-0.74c0-0.243-0.087-0.449-0.262-0.616
				c-0.174-0.168-0.401-0.251-0.682-0.251c-0.296,0-0.533,0.088-0.711,0.266s-0.268,0.424-0.271,0.738l-0.632-0.064
				c0.044-0.472,0.206-0.831,0.489-1.078c0.282-0.247,0.662-0.371,1.138-0.371c0.481,0,0.861,0.133,1.142,0.4
				c0.28,0.266,0.42,0.597,0.42,0.99c0,0.201-0.041,0.398-0.123,0.592s-0.218,0.397-0.408,0.611
				c-0.189,0.215-0.506,0.509-0.948,0.883c-0.369,0.31-0.606,0.52-0.711,0.63s-0.191,0.222-0.26,0.333H168.249z"/>
			<path d="M172.101,109.682l-0.611,0.047c-0.055-0.241-0.133-0.416-0.232-0.525c-0.167-0.176-0.372-0.264-0.615-0.264
				c-0.196,0-0.369,0.055-0.517,0.164c-0.194,0.142-0.347,0.348-0.458,0.619c-0.111,0.271-0.17,0.657-0.174,1.158
				c0.147-0.226,0.328-0.393,0.543-0.502s0.438-0.164,0.674-0.164c0.41,0,0.759,0.15,1.047,0.452
				c0.289,0.302,0.433,0.692,0.433,1.171c0,0.314-0.067,0.606-0.204,0.877c-0.135,0.27-0.321,0.477-0.559,0.62
				c-0.236,0.144-0.506,0.216-0.807,0.216c-0.512,0-0.93-0.189-1.254-0.566s-0.485-0.998-0.485-1.864
				c0-0.969,0.179-1.673,0.536-2.112c0.313-0.383,0.732-0.574,1.262-0.574c0.395,0,0.717,0.11,0.969,0.332
				C171.9,108.986,172.05,109.291,172.101,109.682z M169.589,111.842c0,0.211,0.045,0.414,0.135,0.607
				c0.09,0.194,0.216,0.342,0.377,0.443c0.162,0.102,0.332,0.152,0.51,0.152c0.26,0,0.482-0.105,0.67-0.314
				c0.188-0.21,0.28-0.495,0.28-0.855c0-0.346-0.093-0.619-0.276-0.818c-0.186-0.199-0.418-0.299-0.697-0.299
				c-0.278,0-0.514,0.1-0.708,0.299S169.589,111.518,169.589,111.842z"/>
		</g>
		<g>
			<path d="M156.109,112.873v0.592h-3.312c-0.005-0.148,0.02-0.291,0.071-0.428c0.085-0.225,0.22-0.447,0.405-0.666
				s0.454-0.472,0.805-0.759c0.545-0.446,0.913-0.801,1.104-1.062s0.287-0.508,0.287-0.74c0-0.243-0.087-0.449-0.262-0.616
				c-0.174-0.168-0.401-0.251-0.682-0.251c-0.297,0-0.533,0.088-0.711,0.266s-0.268,0.424-0.271,0.738l-0.632-0.064
				c0.043-0.472,0.206-0.831,0.488-1.078c0.283-0.247,0.662-0.371,1.139-0.371c0.48,0,0.861,0.133,1.142,0.4
				c0.28,0.266,0.42,0.597,0.42,0.99c0,0.201-0.041,0.398-0.123,0.592s-0.218,0.397-0.408,0.611
				c-0.19,0.215-0.507,0.509-0.948,0.883c-0.369,0.31-0.606,0.52-0.711,0.63c-0.105,0.11-0.191,0.222-0.26,0.333H156.109z"/>
			<path d="M156.81,109.11v-0.591h3.243v0.479c-0.318,0.339-0.635,0.79-0.948,1.354c-0.313,0.563-0.556,1.141-0.727,1.736
				c-0.123,0.419-0.201,0.878-0.235,1.377h-0.633c0.007-0.395,0.085-0.87,0.232-1.429c0.148-0.559,0.36-1.097,0.638-1.615
				c0.276-0.519,0.571-0.955,0.884-1.311H156.81z"/>
		</g>
		<g>
			<path d="M144.47,112.873v0.592h-3.313c-0.004-0.148,0.02-0.291,0.072-0.428c0.084-0.225,0.219-0.447,0.405-0.666
				c0.187-0.219,0.454-0.472,0.806-0.759c0.544-0.446,0.912-0.801,1.104-1.062s0.287-0.508,0.287-0.74
				c0-0.243-0.087-0.449-0.262-0.616c-0.174-0.168-0.401-0.251-0.682-0.251c-0.296,0-0.533,0.088-0.711,0.266
				s-0.268,0.424-0.27,0.738l-0.633-0.064c0.043-0.472,0.206-0.831,0.489-1.078c0.282-0.247,0.662-0.371,1.138-0.371
				c0.481,0,0.861,0.133,1.142,0.4c0.28,0.266,0.421,0.597,0.421,0.99c0,0.201-0.041,0.398-0.123,0.592s-0.219,0.397-0.409,0.611
				c-0.189,0.215-0.506,0.509-0.948,0.883c-0.369,0.31-0.605,0.52-0.711,0.63c-0.104,0.11-0.191,0.222-0.26,0.333H144.47z"/>
			<path d="M146.077,110.748c-0.256-0.094-0.444-0.228-0.567-0.4s-0.185-0.381-0.185-0.622c0-0.364,0.131-0.671,0.393-0.919
				c0.263-0.249,0.611-0.373,1.046-0.373c0.438,0,0.79,0.127,1.057,0.381s0.399,0.563,0.399,0.928c0,0.232-0.061,0.436-0.183,0.607
				s-0.307,0.305-0.556,0.398c0.308,0.1,0.542,0.262,0.703,0.484c0.16,0.224,0.24,0.49,0.24,0.801c0,0.428-0.151,0.788-0.454,1.08
				c-0.304,0.291-0.702,0.438-1.196,0.438c-0.495,0-0.894-0.146-1.196-0.439c-0.304-0.293-0.455-0.658-0.455-1.096
				c0-0.326,0.083-0.599,0.248-0.818S145.771,110.827,146.077,110.748z M145.755,112.02c0,0.175,0.041,0.345,0.125,0.509
				c0.083,0.164,0.206,0.291,0.37,0.381s0.341,0.136,0.53,0.136c0.294,0,0.536-0.095,0.728-0.284s0.287-0.43,0.287-0.722
				c0-0.296-0.099-0.541-0.295-0.734c-0.197-0.193-0.444-0.291-0.74-0.291c-0.29,0-0.529,0.096-0.72,0.287
				S145.755,111.732,145.755,112.02z M145.954,109.705c0,0.237,0.076,0.431,0.229,0.581c0.153,0.15,0.352,0.226,0.595,0.226
				c0.237,0,0.432-0.074,0.583-0.224s0.228-0.332,0.228-0.549c0-0.226-0.078-0.415-0.234-0.569c-0.156-0.153-0.351-0.23-0.583-0.23
				c-0.234,0-0.43,0.075-0.584,0.226C146.031,109.315,145.954,109.495,145.954,109.705z"/>
		</g>
		<g>
			<path d="M132.83,112.873v0.592h-3.312c-0.004-0.148,0.02-0.291,0.072-0.428c0.084-0.225,0.219-0.447,0.405-0.666
				c0.186-0.219,0.454-0.472,0.805-0.759c0.544-0.446,0.913-0.801,1.104-1.062s0.287-0.508,0.287-0.74
				c0-0.243-0.087-0.449-0.262-0.616c-0.174-0.168-0.401-0.251-0.682-0.251c-0.296,0-0.533,0.088-0.711,0.266
				s-0.268,0.424-0.27,0.738l-0.632-0.064c0.043-0.472,0.206-0.831,0.489-1.078s0.662-0.371,1.138-0.371
				c0.481,0,0.861,0.133,1.142,0.4c0.28,0.266,0.42,0.597,0.42,0.99c0,0.201-0.041,0.398-0.123,0.592s-0.218,0.397-0.409,0.611
				c-0.19,0.215-0.506,0.509-0.948,0.883c-0.369,0.31-0.606,0.52-0.711,0.63s-0.191,0.222-0.26,0.333H132.83z"/>
			<path d="M133.582,112.307l0.591-0.055c0.05,0.277,0.146,0.479,0.287,0.604s0.322,0.188,0.543,0.188
				c0.189,0,0.355-0.044,0.497-0.131c0.143-0.086,0.259-0.202,0.351-0.347s0.167-0.34,0.229-0.586s0.092-0.497,0.092-0.752
				c0-0.027-0.001-0.068-0.003-0.123c-0.123,0.196-0.291,0.354-0.504,0.477c-0.213,0.122-0.443,0.183-0.692,0.183
				c-0.415,0-0.766-0.15-1.053-0.451s-0.431-0.697-0.431-1.189c0-0.508,0.15-0.917,0.45-1.227c0.299-0.31,0.675-0.465,1.126-0.465
				c0.326,0,0.624,0.088,0.894,0.264c0.271,0.175,0.476,0.425,0.615,0.75c0.141,0.324,0.21,0.795,0.21,1.41
				c0,0.64-0.069,1.149-0.208,1.529c-0.139,0.379-0.346,0.668-0.62,0.866c-0.275,0.198-0.597,0.298-0.966,0.298
				c-0.392,0-0.712-0.109-0.96-0.327S133.632,112.7,133.582,112.307z M136.101,110.095c0-0.354-0.094-0.634-0.282-0.841
				c-0.188-0.207-0.415-0.311-0.679-0.311c-0.273,0-0.512,0.111-0.714,0.334c-0.203,0.224-0.304,0.514-0.304,0.869
				c0,0.318,0.096,0.578,0.289,0.777c0.192,0.199,0.43,0.299,0.712,0.299c0.285,0,0.519-0.1,0.703-0.299
				C136.009,110.725,136.101,110.448,136.101,110.095z"/>
		</g>
		<g>
			<path d="M117.71,112.143l0.615-0.082c0.071,0.348,0.191,0.6,0.36,0.753c0.17,0.154,0.377,0.231,0.621,0.231
				c0.29,0,0.534-0.101,0.733-0.301c0.2-0.201,0.299-0.449,0.299-0.746c0-0.282-0.092-0.515-0.277-0.698s-0.419-0.275-0.704-0.275
				c-0.116,0-0.261,0.022-0.434,0.068l0.068-0.54c0.041,0.005,0.074,0.007,0.099,0.007c0.262,0,0.498-0.068,0.708-0.205
				s0.314-0.348,0.314-0.632c0-0.227-0.076-0.413-0.229-0.561c-0.153-0.148-0.35-0.223-0.591-0.223
				c-0.239,0-0.438,0.075-0.598,0.226s-0.262,0.376-0.308,0.677l-0.615-0.109c0.075-0.412,0.246-0.732,0.513-0.959
				s0.598-0.34,0.995-0.34c0.273,0,0.525,0.059,0.755,0.176s0.406,0.277,0.528,0.48c0.122,0.203,0.183,0.418,0.183,0.646
				c0,0.216-0.058,0.413-0.174,0.591s-0.288,0.319-0.516,0.424c0.296,0.068,0.526,0.21,0.69,0.426
				c0.164,0.215,0.246,0.484,0.246,0.808c0,0.438-0.16,0.809-0.479,1.113c-0.319,0.304-0.722,0.456-1.21,0.456
				c-0.44,0-0.805-0.131-1.096-0.394C117.917,112.898,117.751,112.559,117.71,112.143z"/>
			<path d="M121.6,110.994c0-0.593,0.061-1.069,0.183-1.431c0.122-0.361,0.303-0.64,0.543-0.836
				c0.241-0.196,0.543-0.294,0.908-0.294c0.269,0,0.505,0.054,0.708,0.162s0.37,0.265,0.502,0.469s0.236,0.452,0.311,0.745
				s0.113,0.688,0.113,1.185c0,0.588-0.061,1.062-0.181,1.423s-0.301,0.641-0.542,0.838c-0.24,0.197-0.544,0.296-0.911,0.296
				c-0.483,0-0.862-0.174-1.138-0.52C121.765,112.613,121.6,111.935,121.6,110.994z M122.232,110.994
				c0,0.822,0.096,1.369,0.289,1.642c0.192,0.272,0.43,0.409,0.712,0.409s0.52-0.137,0.712-0.41c0.193-0.273,0.289-0.82,0.289-1.641
				c0-0.825-0.096-1.373-0.289-1.645c-0.192-0.271-0.432-0.406-0.719-0.406c-0.283,0-0.508,0.119-0.677,0.358
				C122.338,109.607,122.232,110.171,122.232,110.994z"/>
		</g>
		<g>
			<path d="M105.57,112.143l0.615-0.082c0.071,0.348,0.191,0.6,0.36,0.753c0.17,0.154,0.377,0.231,0.621,0.231
				c0.29,0,0.534-0.101,0.733-0.301c0.2-0.201,0.299-0.449,0.299-0.746c0-0.282-0.092-0.515-0.277-0.698s-0.419-0.275-0.704-0.275
				c-0.116,0-0.261,0.022-0.434,0.068l0.068-0.54c0.041,0.005,0.074,0.007,0.099,0.007c0.262,0,0.498-0.068,0.708-0.205
				s0.314-0.348,0.314-0.632c0-0.227-0.076-0.413-0.229-0.561c-0.153-0.148-0.35-0.223-0.591-0.223
				c-0.239,0-0.438,0.075-0.598,0.226s-0.262,0.376-0.308,0.677l-0.615-0.109c0.075-0.412,0.246-0.732,0.513-0.959
				s0.598-0.34,0.995-0.34c0.273,0,0.525,0.059,0.755,0.176s0.406,0.277,0.528,0.48c0.122,0.203,0.183,0.418,0.183,0.646
				c0,0.216-0.058,0.413-0.174,0.591s-0.288,0.319-0.516,0.424c0.296,0.068,0.526,0.21,0.69,0.426
				c0.164,0.215,0.246,0.484,0.246,0.808c0,0.438-0.16,0.809-0.479,1.113c-0.319,0.304-0.722,0.456-1.21,0.456
				c-0.44,0-0.805-0.131-1.096-0.394C105.777,112.898,105.611,112.559,105.57,112.143z"/>
			<path d="M111.777,113.465h-0.615v-3.92c-0.148,0.141-0.342,0.282-0.583,0.424c-0.241,0.141-0.457,0.247-0.648,0.317v-0.595
				c0.344-0.162,0.645-0.357,0.902-0.588s0.44-0.453,0.547-0.67h0.396V113.465z"/>
		</g>
		<g>
			<path d="M93.931,112.143l0.615-0.082c0.071,0.348,0.191,0.6,0.36,0.753c0.17,0.154,0.377,0.231,0.621,0.231
				c0.29,0,0.534-0.101,0.733-0.301c0.2-0.201,0.299-0.449,0.299-0.746c0-0.282-0.092-0.515-0.277-0.698s-0.419-0.275-0.704-0.275
				c-0.116,0-0.261,0.022-0.434,0.068l0.068-0.54c0.041,0.005,0.074,0.007,0.099,0.007c0.262,0,0.498-0.068,0.708-0.205
				s0.314-0.348,0.314-0.632c0-0.227-0.076-0.413-0.229-0.561c-0.153-0.148-0.35-0.223-0.591-0.223
				c-0.239,0-0.438,0.075-0.598,0.226s-0.262,0.376-0.308,0.677l-0.615-0.109c0.075-0.412,0.246-0.732,0.513-0.959
				s0.598-0.34,0.995-0.34c0.273,0,0.525,0.059,0.755,0.176s0.406,0.277,0.528,0.48c0.122,0.203,0.183,0.418,0.183,0.646
				c0,0.216-0.058,0.413-0.174,0.591s-0.288,0.319-0.516,0.424c0.296,0.068,0.526,0.21,0.69,0.426
				c0.164,0.215,0.246,0.484,0.246,0.808c0,0.438-0.16,0.809-0.479,1.113c-0.319,0.304-0.722,0.456-1.21,0.456
				c-0.44,0-0.805-0.131-1.096-0.394C94.138,112.898,93.972,112.559,93.931,112.143z"/>
			<path d="M101.054,112.873v0.592h-3.312c-0.004-0.148,0.02-0.291,0.072-0.428c0.084-0.225,0.219-0.447,0.405-0.666
				c0.186-0.219,0.454-0.472,0.805-0.759c0.544-0.446,0.913-0.801,1.104-1.062s0.287-0.508,0.287-0.74
				c0-0.243-0.087-0.449-0.262-0.616c-0.174-0.168-0.401-0.251-0.682-0.251c-0.296,0-0.533,0.088-0.711,0.266
				s-0.268,0.424-0.27,0.738l-0.632-0.064c0.043-0.472,0.206-0.831,0.489-1.078s0.662-0.371,1.138-0.371
				c0.481,0,0.861,0.133,1.142,0.4c0.28,0.266,0.42,0.597,0.42,0.99c0,0.201-0.041,0.398-0.123,0.592s-0.218,0.397-0.409,0.611
				c-0.19,0.215-0.506,0.509-0.948,0.883c-0.369,0.31-0.606,0.52-0.711,0.63s-0.191,0.222-0.26,0.333H101.054z"/>
		</g>
		<line style="fill:none;stroke:#000000;stroke-width:0.5;" x1="127.388" y1="93.387" x2="127.388" y2="117.009"/>
		<line style="fill:none;stroke:#000000;stroke-width:0.5;" x1="139.089" y1="93.387" x2="139.089" y2="117.009"/>
		<line style="fill:none;stroke:#000000;stroke-width:0.5;" x1="150.793" y1="93.387" x2="150.793" y2="117.009"/>
		<line style="fill:none;stroke:#000000;stroke-width:0.5;" x1="162.494" y1="93.387" x2="162.494" y2="117.009"/>
		<line style="fill:none;stroke:#000000;stroke-width:0.5;" x1="174.197" y1="93.387" x2="174.197" y2="117.009"/>
		<line style="fill:none;stroke:#000000;stroke-width:0.5;" x1="186.363" y1="93.387" x2="186.363" y2="117.009"/>
		<line style="fill:none;stroke:#000000;stroke-width:0.5;" x1="198.175" y1="93.387" x2="198.175" y2="117.009"/>
		<line style="fill:none;stroke:#000000;stroke-width:0.5;" x1="209.986" y1="93.387" x2="209.986" y2="117.009"/>
		<line style="fill:none;stroke:#000000;stroke-width:0.5;" x1="221.796" y1="93.387" x2="221.796" y2="117.009"/>
		<line style="fill:none;stroke:#000000;stroke-width:0.5;" x1="233.607" y1="93.387" x2="233.607" y2="117.009"/>
		<line style="fill:none;stroke:#000000;stroke-width:0.5;" x1="245.419" y1="93.387" x2="245.419" y2="117.009"/>
		<line style="fill:none;stroke:#000000;stroke-width:0.5;" x1="257.23" y1="93.387" x2="257.23" y2="117.009"/>
	</g>
	<polyline style="fill:none;stroke:#000000;stroke-width:0.5;" points="269.04,117.009 269.04,93.387 80.064,93.387 80.064,105.197 
		91.874,105.197 	"/>
	<polyline style="fill:none;stroke:#000000;stroke-width:0.5;" points="269.04,93.387 280.851,93.387 280.851,105.197 	"/>
</g>
<g>
	<path d="M176.158,131.675v-0.588l2.122-0.004v1.859c-0.326,0.26-0.662,0.455-1.009,0.586c-0.346,0.132-0.701,0.197-1.066,0.197
		c-0.492,0-0.939-0.105-1.342-0.316s-0.705-0.516-0.91-0.914c-0.205-0.399-0.309-0.845-0.309-1.337c0-0.487,0.103-0.942,0.307-1.365
		c0.203-0.423,0.497-0.737,0.88-0.942s0.823-0.308,1.323-0.308c0.362,0,0.689,0.059,0.982,0.177c0.293,0.117,0.522,0.28,0.689,0.49
		c0.166,0.21,0.292,0.483,0.379,0.82l-0.598,0.164c-0.076-0.255-0.17-0.456-0.281-0.602s-0.271-0.263-0.479-0.351
		s-0.438-0.132-0.689-0.132c-0.304,0-0.566,0.047-0.787,0.139c-0.221,0.093-0.399,0.214-0.535,0.364
		c-0.135,0.15-0.24,0.315-0.316,0.495c-0.127,0.311-0.191,0.646-0.191,1.009c0,0.446,0.078,0.82,0.231,1.121s0.378,0.524,0.671,0.67
		c0.295,0.146,0.607,0.219,0.938,0.219c0.287,0,0.567-0.055,0.841-0.166c0.273-0.11,0.48-0.228,0.622-0.354v-0.933H176.158z"/>
	<path d="M179.007,131.169c0-0.593,0.062-1.069,0.184-1.431c0.121-0.361,0.303-0.64,0.543-0.836s0.543-0.294,0.908-0.294
		c0.269,0,0.504,0.054,0.707,0.162s0.371,0.265,0.503,0.469c0.132,0.203,0.235,0.452,0.312,0.745
		c0.074,0.293,0.112,0.688,0.112,1.185c0,0.588-0.061,1.063-0.181,1.423c-0.121,0.361-0.303,0.641-0.543,0.838
		s-0.543,0.296-0.91,0.296c-0.483,0-0.863-0.174-1.139-0.52C179.173,132.789,179.007,132.109,179.007,131.169z M179.64,131.169
		c0,0.822,0.096,1.37,0.289,1.642c0.192,0.272,0.43,0.409,0.713,0.409c0.282,0,0.52-0.137,0.713-0.41
		c0.191-0.273,0.289-0.82,0.289-1.641c0-0.825-0.098-1.373-0.289-1.645c-0.193-0.271-0.434-0.407-0.721-0.407
		c-0.281,0-0.508,0.12-0.676,0.359C179.746,129.782,179.64,130.346,179.64,131.169z"/>
	<path d="M184.874,133.64v-1.199H182.7v-0.564l2.286-3.247h0.504v3.247h0.676v0.564h-0.676v1.199H184.874z M184.874,131.876v-2.26
		l-1.569,2.26H184.874z"/>
</g>
<g>
	<path d="M96.952,134.869v-6.423h1.703v0.755h-0.79v4.912h0.79v0.756H96.952z"/>
	<path d="M103.813,133.457h-1.101l-0.438-1.138h-2.003l-0.414,1.138h-1.073l1.952-5.011h1.07L103.813,133.457z M101.95,131.475
		l-0.69-1.859l-0.677,1.859H101.95z"/>
	<path d="M105.672,128.446v6.423h-1.702v-0.756h0.79v-4.919h-0.79v-0.748H105.672z"/>
</g>
<g>
	<rect x="97.026" y="141.383" style="fill:none;stroke:#000000;stroke-width:0.5;" width="168.663" height="22.678"/>
	<rect x="160.806" y="137.131" style="fill:none;stroke:#000000;stroke-width:0.5;" width="39.686" height="4.252"/>
	<rect x="264.271" y="137.131" style="fill:none;stroke:#000000;stroke-width:0.5;" width="1.418" height="4.252"/>
	<rect x="245.847" y="137.131" style="fill:none;stroke:#000000;stroke-width:0.5;" width="1.416" height="4.252"/>
	<rect x="214.665" y="137.131" style="fill:none;stroke:#000000;stroke-width:0.5;" width="1.416" height="4.252"/>
	<rect x="136.711" y="137.131" style="fill:none;stroke:#000000;stroke-width:0.5;" width="1.418" height="4.252"/>
	<rect x="106.946" y="137.051" style="fill:none;stroke:#000000;stroke-width:0.5;" width="1.418" height="4.252"/>
	<rect x="97.024" y="137.051" style="fill:none;stroke:#000000;stroke-width:0.5;" width="1.418" height="4.252"/>
	<line style="fill:none;stroke:#000000;stroke-width:0.5;" x1="255.767" y1="141.383" x2="255.767" y2="164.061"/>
	<line style="fill:none;stroke:#000000;stroke-width:0.5;" x1="245.847" y1="141.383" x2="245.847" y2="164.061"/>
	<line style="fill:none;stroke:#000000;stroke-width:0.5;" x1="235.925" y1="141.383" x2="235.925" y2="164.061"/>
	<line style="fill:none;stroke:#000000;stroke-width:0.5;" x1="226.003" y1="141.383" x2="226.003" y2="164.061"/>
	<line style="fill:none;stroke:#000000;stroke-width:0.5;" x1="216.081" y1="141.383" x2="216.081" y2="164.061"/>
	<line style="fill:none;stroke:#000000;stroke-width:0.5;" x1="206.16" y1="141.383" x2="206.16" y2="164.061"/>
	<line style="fill:none;stroke:#000000;stroke-width:0.5;" x1="196.238" y1="141.383" x2="196.238" y2="164.061"/>
	<line style="fill:none;stroke:#000000;stroke-width:0.5;" x1="186.318" y1="141.383" x2="186.318" y2="164.061"/>
	<line style="fill:none;stroke:#000000;stroke-width:0.5;" x1="176.396" y1="141.383" x2="176.396" y2="164.061"/>
	<line style="fill:none;stroke:#000000;stroke-width:0.5;" x1="166.474" y1="141.383" x2="166.474" y2="164.061"/>
	<line style="fill:none;stroke:#000000;stroke-width:0.5;" x1="156.552" y1="141.383" x2="156.552" y2="164.061"/>
	<line style="fill:none;stroke:#000000;stroke-width:0.5;" x1="146.63" y1="141.383" x2="146.63" y2="164.061"/>
	<line style="fill:none;stroke:#000000;stroke-width:0.5;" x1="136.71" y1="141.383" x2="136.71" y2="164.061"/>
	<line style="fill:none;stroke:#000000;stroke-width:0.5;" x1="126.786" y1="141.383" x2="126.786" y2="164.061"/>
	<line style="fill:none;stroke:#000000;stroke-width:0.5;" x1="116.864" y1="141.391" x2="116.864" y2="164.066"/>
	<line style="fill:none;stroke:#000000;stroke-width:0.5;" x1="106.942" y1="141.182" x2="106.942" y2="163.859"/>
	<line style="fill:none;stroke:#000000;stroke-width:0.5;" x1="265.689" y1="152.721" x2="97.026" y2="152.721"/>
	<g>
		<path d="M250.887,149.226h-0.615v-3.92c-0.147,0.141-0.343,0.283-0.583,0.424s-0.456,0.247-0.647,0.318v-0.596
			c0.345-0.161,0.646-0.357,0.902-0.588c0.257-0.229,0.44-0.453,0.547-0.67h0.396V149.226z"/>
	</g>
	<g>
		<path d="M241.883,148.637v0.591h-3.312c-0.005-0.147,0.02-0.29,0.071-0.427c0.085-0.226,0.22-0.448,0.405-0.667
			s0.453-0.471,0.805-0.758c0.545-0.447,0.912-0.801,1.104-1.063c0.191-0.26,0.287-0.507,0.287-0.739
			c0-0.243-0.086-0.45-0.262-0.616c-0.174-0.168-0.4-0.252-0.682-0.252c-0.296,0-0.533,0.089-0.711,0.267s-0.268,0.424-0.27,0.738
			l-0.633-0.065c0.044-0.471,0.207-0.83,0.489-1.078c0.282-0.247,0.662-0.371,1.138-0.371c0.481,0,0.861,0.134,1.143,0.4
			c0.279,0.267,0.42,0.598,0.42,0.991c0,0.2-0.041,0.397-0.123,0.591c-0.082,0.194-0.219,0.398-0.408,0.612
			c-0.19,0.214-0.507,0.509-0.949,0.882c-0.369,0.311-0.605,0.52-0.711,0.631c-0.104,0.11-0.191,0.221-0.26,0.333H241.883z"/>
	</g>
	<g>
		<path d="M228.732,147.905l0.615-0.082c0.07,0.349,0.19,0.6,0.359,0.754c0.17,0.154,0.377,0.23,0.621,0.23
			c0.289,0,0.533-0.1,0.732-0.301c0.2-0.201,0.3-0.449,0.3-0.745c0-0.282-0.093-0.516-0.276-0.698
			c-0.186-0.184-0.42-0.275-0.705-0.275c-0.115,0-0.26,0.022-0.434,0.068l0.068-0.541c0.041,0.005,0.074,0.008,0.1,0.008
			c0.262,0,0.498-0.068,0.707-0.205s0.314-0.348,0.314-0.633c0-0.226-0.076-0.412-0.229-0.561c-0.153-0.148-0.35-0.223-0.592-0.223
			c-0.239,0-0.438,0.076-0.598,0.227c-0.16,0.15-0.263,0.375-0.309,0.676l-0.615-0.109c0.076-0.412,0.246-0.731,0.514-0.959
			c0.266-0.227,0.598-0.34,0.994-0.34c0.273,0,0.525,0.059,0.756,0.176c0.229,0.118,0.406,0.278,0.527,0.48
			c0.122,0.203,0.184,0.418,0.184,0.646c0,0.217-0.059,0.414-0.175,0.592s-0.288,0.318-0.517,0.424
			c0.297,0.068,0.527,0.209,0.691,0.426c0.164,0.215,0.246,0.484,0.246,0.808c0,0.438-0.16,0.808-0.479,1.112
			c-0.319,0.305-0.723,0.457-1.211,0.457c-0.439,0-0.805-0.131-1.096-0.394C228.939,148.661,228.773,148.322,228.732,147.905z"/>
	</g>
	<g>
		<path d="M220.779,149.226v-1.199h-2.174v-0.564l2.286-3.246h0.503v3.246h0.676v0.564h-0.676v1.199H220.779z M220.779,147.462
			v-2.259l-1.569,2.259H220.779z"/>
	</g>
	<g>
		<path d="M208.884,147.915l0.646-0.055c0.048,0.314,0.159,0.551,0.333,0.709c0.175,0.159,0.385,0.238,0.631,0.238
			c0.296,0,0.547-0.111,0.752-0.335s0.308-0.52,0.308-0.889c0-0.351-0.099-0.628-0.296-0.831c-0.196-0.202-0.455-0.304-0.774-0.304
			c-0.197,0-0.377,0.045-0.536,0.136c-0.159,0.09-0.284,0.206-0.376,0.35l-0.578-0.075l0.486-2.573h2.491v0.588h-1.999l-0.271,1.346
			c0.301-0.209,0.616-0.314,0.946-0.314c0.438,0,0.807,0.152,1.107,0.455s0.451,0.693,0.451,1.169c0,0.454-0.132,0.845-0.396,1.176
			c-0.32,0.405-0.76,0.608-1.315,0.608c-0.456,0-0.827-0.127-1.116-0.383C209.09,148.675,208.925,148.337,208.884,147.915z"/>
	</g>
	<g>
		<path d="M202.156,145.444l-0.611,0.048c-0.055-0.241-0.133-0.417-0.232-0.526c-0.166-0.176-0.371-0.264-0.615-0.264
			c-0.195,0-0.368,0.055-0.516,0.164c-0.194,0.142-0.347,0.348-0.459,0.619c-0.111,0.271-0.17,0.657-0.174,1.158
			c0.148-0.225,0.329-0.393,0.543-0.502c0.215-0.109,0.439-0.164,0.674-0.164c0.41,0,0.76,0.15,1.048,0.453
			c0.288,0.302,0.433,0.691,0.433,1.17c0,0.314-0.068,0.607-0.204,0.877s-0.321,0.477-0.559,0.621
			c-0.237,0.143-0.506,0.215-0.807,0.215c-0.513,0-0.931-0.188-1.255-0.566c-0.323-0.377-0.484-0.998-0.484-1.863
			c0-0.969,0.178-1.673,0.536-2.113c0.312-0.383,0.732-0.574,1.261-0.574c0.395,0,0.718,0.111,0.97,0.332
			C201.955,144.749,202.106,145.055,202.156,145.444z M199.644,147.604c0,0.212,0.045,0.414,0.135,0.608s0.217,0.341,0.378,0.442
			s0.331,0.152,0.509,0.152c0.26,0,0.483-0.105,0.67-0.314c0.188-0.209,0.281-0.494,0.281-0.854c0-0.347-0.093-0.619-0.277-0.819
			c-0.185-0.199-0.417-0.299-0.697-0.299c-0.277,0-0.514,0.1-0.707,0.299C199.741,147.02,199.644,147.28,199.644,147.604z"/>
	</g>
	<g>
		<path d="M189.083,144.874v-0.592h3.243v0.479c-0.319,0.34-0.636,0.791-0.948,1.354c-0.313,0.563-0.556,1.142-0.727,1.736
			c-0.123,0.42-0.201,0.879-0.236,1.377h-0.632c0.007-0.394,0.085-0.87,0.232-1.428c0.147-0.559,0.36-1.098,0.638-1.615
			c0.276-0.519,0.571-0.955,0.883-1.311H189.083z"/>
	</g>
	<g>
		<path d="M180.068,146.511c-0.256-0.094-0.444-0.227-0.567-0.4c-0.123-0.173-0.185-0.38-0.185-0.621
			c0-0.365,0.131-0.672,0.393-0.92c0.263-0.248,0.611-0.373,1.047-0.373c0.438,0,0.789,0.127,1.056,0.381
			c0.267,0.255,0.399,0.564,0.399,0.929c0,0.232-0.061,0.435-0.183,0.606s-0.307,0.305-0.556,0.398
			c0.309,0.1,0.542,0.262,0.703,0.485c0.16,0.224,0.24,0.489,0.24,0.8c0,0.428-0.15,0.789-0.454,1.08s-0.702,0.438-1.196,0.438
			s-0.893-0.146-1.196-0.439s-0.454-0.658-0.454-1.096c0-0.325,0.082-0.598,0.247-0.818
			C179.527,146.74,179.763,146.591,180.068,146.511z M179.747,147.782c0,0.176,0.042,0.346,0.125,0.51s0.206,0.291,0.37,0.381
			s0.342,0.135,0.53,0.135c0.294,0,0.536-0.095,0.728-0.283c0.191-0.189,0.287-0.43,0.287-0.722c0-0.296-0.098-0.541-0.295-0.735
			c-0.197-0.193-0.443-0.29-0.74-0.29c-0.289,0-0.529,0.096-0.72,0.287S179.747,147.495,179.747,147.782z M179.945,145.468
			c0,0.237,0.076,0.432,0.229,0.582c0.153,0.15,0.352,0.225,0.596,0.225c0.236,0,0.431-0.074,0.582-0.223
			c0.152-0.15,0.228-0.333,0.228-0.549c0-0.227-0.078-0.416-0.234-0.57c-0.155-0.152-0.351-0.23-0.583-0.23
			c-0.234,0-0.43,0.076-0.584,0.227S179.945,145.259,179.945,145.468z"/>
	</g>
	<g>
		<path d="M169.292,148.069l0.592-0.055c0.05,0.277,0.146,0.479,0.287,0.605c0.141,0.125,0.322,0.188,0.543,0.188
			c0.189,0,0.355-0.043,0.497-0.13c0.143-0.087,0.259-0.202,0.351-0.347s0.168-0.34,0.229-0.586
			c0.063-0.246,0.093-0.497,0.093-0.752c0-0.027-0.001-0.068-0.003-0.123c-0.123,0.195-0.291,0.354-0.505,0.477
			c-0.213,0.121-0.443,0.183-0.692,0.183c-0.414,0-0.766-0.15-1.053-0.451s-0.43-0.697-0.43-1.189c0-0.509,0.149-0.917,0.449-1.228
			c0.299-0.31,0.675-0.465,1.126-0.465c0.325,0,0.624,0.088,0.894,0.264c0.271,0.176,0.476,0.426,0.615,0.75
			c0.141,0.324,0.211,0.795,0.211,1.41c0,0.641-0.07,1.15-0.209,1.529s-0.346,0.668-0.62,0.867
			c-0.274,0.197-0.597,0.297-0.966,0.297c-0.393,0-0.712-0.109-0.961-0.326C169.492,148.77,169.343,148.464,169.292,148.069z
			 M171.812,145.858c0-0.354-0.095-0.634-0.282-0.842c-0.188-0.207-0.415-0.311-0.679-0.311c-0.273,0-0.512,0.111-0.715,0.335
			c-0.202,0.224-0.304,0.513-0.304,0.868c0,0.318,0.097,0.578,0.289,0.777s0.43,0.299,0.712,0.299c0.285,0,0.52-0.1,0.703-0.299
			S171.812,146.211,171.812,145.858z"/>
	</g>
	<g>
		<path d="M159.651,149.228h-0.615v-3.92c-0.147,0.141-0.343,0.283-0.583,0.424s-0.456,0.247-0.647,0.318v-0.596
			c0.345-0.161,0.646-0.357,0.902-0.588c0.257-0.229,0.44-0.453,0.547-0.67h0.396V149.228z"/>
		<path d="M161.226,146.757c0-0.592,0.062-1.069,0.184-1.43c0.121-0.361,0.303-0.641,0.543-0.836
			c0.24-0.196,0.543-0.295,0.908-0.295c0.269,0,0.504,0.055,0.707,0.162c0.203,0.109,0.37,0.266,0.502,0.469
			c0.133,0.204,0.236,0.453,0.312,0.746c0.075,0.292,0.112,0.688,0.112,1.184c0,0.588-0.061,1.063-0.181,1.424
			s-0.302,0.641-0.542,0.838c-0.24,0.196-0.544,0.295-0.91,0.295c-0.483,0-0.863-0.174-1.139-0.52
			C161.392,148.377,161.226,147.698,161.226,146.757z M161.859,146.757c0,0.822,0.096,1.37,0.289,1.643
			c0.192,0.271,0.43,0.408,0.713,0.408c0.282,0,0.52-0.137,0.712-0.41s0.289-0.82,0.289-1.641c0-0.824-0.097-1.373-0.289-1.645
			c-0.192-0.271-0.433-0.406-0.72-0.406c-0.282,0-0.508,0.119-0.676,0.359C161.964,145.37,161.859,145.935,161.859,146.757z"/>
	</g>
	<g>
		<path d="M149.729,149.228h-0.615v-3.92c-0.147,0.141-0.343,0.283-0.583,0.424s-0.456,0.247-0.647,0.318v-0.596
			c0.345-0.161,0.646-0.357,0.902-0.588c0.257-0.229,0.44-0.453,0.547-0.67h0.396V149.228z"/>
		<path d="M153.623,149.228h-0.615v-3.92c-0.148,0.141-0.343,0.283-0.583,0.424c-0.241,0.141-0.456,0.247-0.647,0.318v-0.596
			c0.344-0.161,0.645-0.357,0.902-0.588c0.257-0.229,0.439-0.453,0.547-0.67h0.396V149.228z"/>
	</g>
	<g>
		<path d="M139.807,149.228h-0.615v-3.92c-0.148,0.141-0.342,0.283-0.583,0.424c-0.241,0.141-0.457,0.247-0.648,0.318v-0.596
			c0.344-0.161,0.645-0.357,0.902-0.588c0.257-0.229,0.44-0.453,0.547-0.67h0.396V149.228z"/>
		<path d="M144.617,148.637v0.591h-3.313c-0.004-0.147,0.02-0.29,0.072-0.427c0.084-0.226,0.219-0.448,0.404-0.667
			s0.454-0.471,0.805-0.758c0.545-0.447,0.913-0.801,1.104-1.063c0.191-0.26,0.287-0.507,0.287-0.739
			c0-0.243-0.087-0.45-0.262-0.616c-0.174-0.168-0.401-0.252-0.682-0.252c-0.296,0-0.533,0.089-0.711,0.267
			s-0.268,0.424-0.271,0.738l-0.632-0.065c0.044-0.471,0.206-0.83,0.489-1.078c0.282-0.247,0.662-0.371,1.138-0.371
			c0.481,0,0.861,0.134,1.142,0.4s0.42,0.598,0.42,0.991c0,0.2-0.041,0.397-0.123,0.591c-0.082,0.194-0.218,0.398-0.408,0.612
			c-0.189,0.214-0.506,0.509-0.948,0.882c-0.369,0.311-0.606,0.52-0.711,0.631c-0.104,0.11-0.191,0.221-0.26,0.333H144.617z"/>
	</g>
	<g>
		<path d="M129.886,149.228h-0.615v-3.92c-0.148,0.141-0.342,0.283-0.583,0.424c-0.241,0.141-0.457,0.247-0.648,0.318v-0.596
			c0.344-0.161,0.645-0.357,0.902-0.588c0.257-0.229,0.44-0.453,0.547-0.67h0.396V149.228z"/>
		<path d="M131.465,147.905l0.615-0.082c0.071,0.349,0.191,0.6,0.36,0.754c0.17,0.154,0.377,0.23,0.621,0.23
			c0.29,0,0.534-0.1,0.733-0.301c0.2-0.201,0.299-0.449,0.299-0.745c0-0.282-0.092-0.516-0.277-0.698
			c-0.185-0.184-0.419-0.275-0.704-0.275c-0.116,0-0.261,0.022-0.434,0.068l0.068-0.541c0.041,0.005,0.074,0.008,0.099,0.008
			c0.262,0,0.498-0.068,0.708-0.205s0.314-0.348,0.314-0.633c0-0.226-0.076-0.412-0.229-0.561s-0.35-0.223-0.591-0.223
			c-0.239,0-0.438,0.076-0.598,0.227s-0.262,0.375-0.308,0.676l-0.615-0.109c0.075-0.412,0.246-0.731,0.513-0.959
			c0.267-0.227,0.598-0.34,0.995-0.34c0.273,0,0.525,0.059,0.755,0.176c0.23,0.118,0.406,0.278,0.528,0.48
			c0.122,0.203,0.183,0.418,0.183,0.646c0,0.217-0.058,0.414-0.174,0.592s-0.288,0.318-0.516,0.424
			c0.296,0.068,0.526,0.209,0.69,0.426c0.164,0.215,0.246,0.484,0.246,0.808c0,0.438-0.16,0.808-0.479,1.112
			s-0.722,0.457-1.21,0.457c-0.44,0-0.805-0.131-1.096-0.394C131.672,148.661,131.506,148.322,131.465,147.905z"/>
	</g>
	<g>
		<path d="M119.964,149.226h-0.615v-3.92c-0.148,0.141-0.342,0.283-0.583,0.424c-0.241,0.141-0.457,0.247-0.648,0.318v-0.596
			c0.344-0.161,0.645-0.357,0.902-0.588c0.257-0.229,0.44-0.453,0.547-0.67h0.396V149.226z"/>
		<path d="M123.512,149.226v-1.199h-2.174v-0.564l2.287-3.246h0.502v3.246h0.677v0.564h-0.677v1.199H123.512z M123.512,147.462
			v-2.259l-1.569,2.259H123.512z"/>
	</g>
	<g>
		<path d="M110.043,149.226h-0.615v-3.92c-0.148,0.141-0.342,0.283-0.583,0.424c-0.241,0.141-0.457,0.247-0.648,0.318v-0.596
			c0.344-0.161,0.645-0.357,0.902-0.588c0.257-0.229,0.44-0.453,0.547-0.67h0.396V149.226z"/>
		<path d="M111.619,147.913l0.646-0.055c0.048,0.314,0.159,0.551,0.333,0.709c0.175,0.159,0.385,0.238,0.631,0.238
			c0.296,0,0.547-0.111,0.752-0.335s0.308-0.52,0.308-0.889c0-0.351-0.099-0.628-0.296-0.831c-0.197-0.202-0.455-0.304-0.774-0.304
			c-0.198,0-0.377,0.045-0.537,0.136c-0.16,0.09-0.285,0.206-0.376,0.35l-0.578-0.075l0.485-2.573h2.492v0.588h-2l-0.27,1.346
			c0.301-0.209,0.616-0.314,0.947-0.314c0.438,0,0.807,0.152,1.107,0.455s0.451,0.693,0.451,1.169c0,0.454-0.132,0.845-0.396,1.176
			c-0.321,0.405-0.76,0.608-1.316,0.608c-0.456,0-0.828-0.127-1.116-0.383C111.825,148.673,111.66,148.335,111.619,147.913z"/>
	</g>
	<g>
		<path d="M100.123,149.226h-0.615v-3.92c-0.148,0.141-0.342,0.283-0.583,0.424c-0.241,0.141-0.457,0.247-0.648,0.318v-0.596
			c0.344-0.161,0.645-0.357,0.902-0.588c0.257-0.229,0.44-0.453,0.547-0.67h0.396V149.226z"/>
		<path d="M104.891,145.442l-0.612,0.048c-0.055-0.241-0.132-0.417-0.232-0.526c-0.167-0.176-0.372-0.264-0.615-0.264
			c-0.196,0-0.368,0.055-0.516,0.164c-0.194,0.142-0.346,0.348-0.458,0.619s-0.17,0.657-0.174,1.158
			c0.148-0.225,0.329-0.393,0.543-0.502s0.438-0.164,0.673-0.164c0.41,0,0.759,0.15,1.048,0.453c0.288,0.302,0.432,0.691,0.432,1.17
			c0,0.314-0.068,0.607-0.204,0.877c-0.135,0.27-0.322,0.477-0.559,0.621c-0.237,0.143-0.506,0.215-0.807,0.215
			c-0.513,0-0.931-0.188-1.254-0.566c-0.324-0.377-0.485-0.998-0.485-1.863c0-0.969,0.179-1.673,0.537-2.113
			c0.312-0.383,0.732-0.574,1.261-0.574c0.394,0,0.717,0.111,0.969,0.332C104.689,144.747,104.84,145.053,104.891,145.442z
			 M102.378,147.603c0,0.212,0.045,0.414,0.135,0.608c0.09,0.194,0.216,0.341,0.378,0.442s0.332,0.152,0.509,0.152
			c0.26,0,0.483-0.105,0.67-0.314s0.28-0.494,0.28-0.854c0-0.347-0.092-0.619-0.277-0.819c-0.185-0.199-0.417-0.299-0.697-0.299
			c-0.278,0-0.514,0.1-0.708,0.299C102.475,147.018,102.378,147.278,102.378,147.603z"/>
	</g>
	<g>
		<path d="M259.571,161.038h-0.615v-3.921c-0.147,0.142-0.343,0.282-0.583,0.424s-0.456,0.247-0.647,0.317v-0.594
			c0.345-0.162,0.646-0.358,0.902-0.588c0.257-0.23,0.44-0.454,0.547-0.67h0.396V161.038z"/>
		<path d="M261.187,156.683v-0.591h3.244v0.479c-0.318,0.339-0.635,0.79-0.948,1.354s-0.556,1.142-0.727,1.736
			c-0.123,0.419-0.202,0.878-0.235,1.378h-0.633c0.007-0.395,0.084-0.871,0.232-1.43c0.148-0.558,0.36-1.096,0.638-1.615
			c0.276-0.518,0.571-0.955,0.884-1.311H261.187z"/>
	</g>
	<g>
		<path d="M249.649,161.036h-0.615v-3.921c-0.147,0.142-0.343,0.282-0.583,0.424s-0.456,0.247-0.647,0.317v-0.594
			c0.345-0.162,0.646-0.358,0.902-0.588c0.257-0.23,0.44-0.454,0.547-0.67h0.396V161.036z"/>
		<path d="M252.171,158.318c-0.256-0.093-0.444-0.227-0.567-0.399c-0.123-0.174-0.185-0.381-0.185-0.623
			c0-0.364,0.131-0.67,0.393-0.919c0.263-0.249,0.611-0.372,1.047-0.372c0.438,0,0.789,0.127,1.056,0.381s0.399,0.563,0.399,0.928
			c0,0.232-0.061,0.435-0.183,0.607c-0.122,0.172-0.307,0.305-0.556,0.397c0.309,0.101,0.542,0.263,0.703,0.485
			c0.16,0.223,0.24,0.49,0.24,0.8c0,0.429-0.15,0.788-0.454,1.08s-0.702,0.438-1.196,0.438s-0.893-0.146-1.196-0.438
			c-0.304-0.293-0.454-0.658-0.454-1.096c0-0.326,0.082-0.6,0.247-0.818C251.63,158.548,251.867,158.397,252.171,158.318z
			 M251.85,159.59c0,0.175,0.042,0.345,0.125,0.509s0.206,0.291,0.37,0.381c0.164,0.091,0.342,0.136,0.53,0.136
			c0.294,0,0.536-0.095,0.728-0.284c0.191-0.188,0.287-0.43,0.287-0.721c0-0.297-0.098-0.541-0.295-0.734
			c-0.197-0.194-0.443-0.291-0.74-0.291c-0.289,0-0.529,0.096-0.72,0.287S251.85,159.303,251.85,159.59z M252.048,157.276
			c0,0.236,0.076,0.43,0.229,0.58c0.153,0.15,0.352,0.227,0.596,0.227c0.236,0,0.431-0.075,0.582-0.225
			c0.152-0.148,0.228-0.332,0.228-0.549c0-0.225-0.078-0.414-0.234-0.568c-0.155-0.154-0.351-0.23-0.583-0.23
			c-0.234,0-0.43,0.074-0.584,0.225S252.048,157.066,252.048,157.276z"/>
	</g>
	<g>
		<path d="M239.727,161.036h-0.615v-3.921c-0.147,0.142-0.343,0.282-0.583,0.424s-0.456,0.247-0.647,0.317v-0.594
			c0.345-0.162,0.646-0.358,0.902-0.588c0.257-0.23,0.44-0.454,0.547-0.67h0.396V161.036z"/>
		<path d="M241.395,159.877l0.591-0.055c0.051,0.278,0.146,0.479,0.287,0.604c0.142,0.126,0.322,0.188,0.544,0.188
			c0.188,0,0.354-0.044,0.497-0.13s0.26-0.202,0.351-0.348c0.091-0.145,0.167-0.34,0.229-0.586c0.061-0.246,0.092-0.496,0.092-0.752
			c0-0.027-0.001-0.068-0.004-0.123c-0.123,0.196-0.291,0.355-0.504,0.477c-0.213,0.123-0.443,0.184-0.691,0.184
			c-0.415,0-0.766-0.15-1.053-0.451s-0.432-0.697-0.432-1.189c0-0.508,0.15-0.917,0.45-1.227c0.3-0.311,0.675-0.465,1.126-0.465
			c0.326,0,0.624,0.088,0.894,0.263c0.271,0.175,0.476,0.425,0.615,0.751c0.141,0.324,0.21,0.794,0.21,1.409
			c0,0.64-0.068,1.149-0.208,1.53c-0.14,0.379-0.346,0.668-0.62,0.865c-0.275,0.199-0.597,0.298-0.966,0.298
			c-0.392,0-0.712-0.108-0.96-0.327C241.594,160.577,241.445,160.271,241.395,159.877z M243.914,157.665
			c0-0.353-0.094-0.633-0.281-0.84c-0.188-0.208-0.414-0.312-0.679-0.312c-0.273,0-0.512,0.112-0.714,0.335
			c-0.203,0.223-0.305,0.513-0.305,0.868c0,0.319,0.096,0.578,0.289,0.778c0.192,0.199,0.43,0.299,0.713,0.299
			c0.284,0,0.519-0.1,0.702-0.299C243.822,158.295,243.914,158.019,243.914,157.665z"/>
	</g>
	<g>
		<path d="M230.723,160.445v0.591h-3.312c-0.005-0.147,0.02-0.29,0.071-0.427c0.085-0.226,0.22-0.448,0.405-0.667
			s0.453-0.471,0.805-0.758c0.545-0.447,0.912-0.801,1.104-1.063c0.191-0.26,0.287-0.507,0.287-0.739
			c0-0.243-0.086-0.45-0.262-0.616c-0.174-0.168-0.4-0.252-0.682-0.252c-0.296,0-0.533,0.089-0.711,0.267s-0.268,0.424-0.27,0.738
			l-0.633-0.065c0.044-0.471,0.207-0.83,0.489-1.078c0.282-0.247,0.662-0.371,1.138-0.371c0.481,0,0.861,0.134,1.143,0.4
			c0.279,0.267,0.42,0.598,0.42,0.991c0,0.2-0.041,0.397-0.123,0.591c-0.082,0.194-0.219,0.398-0.408,0.612
			c-0.19,0.214-0.507,0.509-0.949,0.882c-0.369,0.311-0.605,0.52-0.711,0.631c-0.104,0.11-0.191,0.221-0.26,0.333H230.723z"/>
		<path d="M231.382,158.565c0-0.592,0.062-1.069,0.184-1.43c0.121-0.361,0.303-0.641,0.543-0.836
			c0.24-0.196,0.543-0.295,0.908-0.295c0.269,0,0.504,0.055,0.707,0.162c0.203,0.109,0.37,0.266,0.502,0.469
			c0.133,0.204,0.236,0.453,0.312,0.746c0.075,0.292,0.112,0.688,0.112,1.184c0,0.588-0.061,1.063-0.181,1.424
			s-0.302,0.641-0.542,0.838c-0.24,0.196-0.544,0.295-0.91,0.295c-0.483,0-0.863-0.174-1.139-0.52
			C231.548,160.186,231.382,159.507,231.382,158.565z M232.015,158.565c0,0.822,0.096,1.37,0.289,1.643
			c0.192,0.271,0.43,0.408,0.713,0.408c0.282,0,0.52-0.137,0.712-0.41s0.289-0.82,0.289-1.641c0-0.824-0.097-1.373-0.289-1.645
			c-0.192-0.271-0.433-0.406-0.72-0.406c-0.282,0-0.508,0.119-0.676,0.359C232.121,157.179,232.015,157.743,232.015,158.565z"/>
	</g>
	<g>
		<path d="M220.801,160.445v0.591h-3.312c-0.005-0.147,0.02-0.29,0.071-0.427c0.085-0.226,0.22-0.448,0.405-0.667
			s0.453-0.471,0.805-0.758c0.545-0.447,0.912-0.801,1.104-1.063c0.191-0.26,0.287-0.507,0.287-0.739
			c0-0.243-0.086-0.45-0.262-0.616c-0.174-0.168-0.4-0.252-0.682-0.252c-0.296,0-0.533,0.089-0.711,0.267s-0.268,0.424-0.27,0.738
			l-0.633-0.065c0.044-0.471,0.207-0.83,0.489-1.078c0.282-0.247,0.662-0.371,1.138-0.371c0.481,0,0.861,0.134,1.143,0.4
			c0.279,0.267,0.42,0.598,0.42,0.991c0,0.2-0.041,0.397-0.123,0.591c-0.082,0.194-0.219,0.398-0.408,0.612
			c-0.19,0.214-0.507,0.509-0.949,0.882c-0.369,0.311-0.605,0.52-0.711,0.631c-0.104,0.11-0.191,0.221-0.26,0.333H220.801z"/>
		<path d="M223.779,161.036h-0.615v-3.92c-0.148,0.141-0.343,0.283-0.583,0.424c-0.241,0.141-0.456,0.247-0.647,0.318v-0.596
			c0.344-0.161,0.645-0.357,0.902-0.588c0.257-0.229,0.439-0.453,0.547-0.67h0.396V161.036z"/>
	</g>
	<g>
		<path d="M210.88,160.445v0.591h-3.313c-0.004-0.147,0.02-0.29,0.072-0.427c0.084-0.226,0.219-0.448,0.404-0.667
			s0.454-0.471,0.805-0.758c0.545-0.447,0.913-0.801,1.104-1.063c0.191-0.26,0.287-0.507,0.287-0.739
			c0-0.243-0.087-0.45-0.262-0.616c-0.174-0.168-0.401-0.252-0.682-0.252c-0.296,0-0.533,0.089-0.711,0.267
			s-0.268,0.424-0.271,0.738l-0.632-0.065c0.044-0.471,0.206-0.83,0.489-1.078c0.282-0.247,0.662-0.371,1.138-0.371
			c0.481,0,0.861,0.134,1.142,0.4s0.42,0.598,0.42,0.991c0,0.2-0.041,0.397-0.123,0.591c-0.082,0.194-0.218,0.398-0.408,0.612
			c-0.189,0.214-0.506,0.509-0.948,0.882c-0.369,0.311-0.606,0.52-0.711,0.631c-0.104,0.11-0.191,0.221-0.26,0.333H210.88z"/>
		<path d="M214.773,160.445v0.591h-3.313c-0.004-0.147,0.02-0.29,0.072-0.427c0.084-0.226,0.219-0.448,0.404-0.667
			c0.187-0.219,0.455-0.471,0.806-0.758c0.544-0.447,0.913-0.801,1.104-1.063c0.191-0.26,0.287-0.507,0.287-0.739
			c0-0.243-0.088-0.45-0.262-0.616c-0.174-0.168-0.402-0.252-0.682-0.252c-0.297,0-0.533,0.089-0.711,0.267
			s-0.268,0.424-0.271,0.738l-0.632-0.065c0.043-0.471,0.205-0.83,0.488-1.078c0.283-0.247,0.662-0.371,1.139-0.371
			c0.48,0,0.861,0.134,1.141,0.4c0.281,0.267,0.421,0.598,0.421,0.991c0,0.2-0.041,0.397-0.123,0.591
			c-0.082,0.194-0.218,0.398-0.409,0.612c-0.189,0.214-0.506,0.509-0.947,0.882c-0.369,0.311-0.606,0.52-0.711,0.631
			c-0.105,0.11-0.191,0.221-0.26,0.333H214.773z"/>
	</g>
	<g>
		<path d="M200.958,160.445v0.591h-3.313c-0.004-0.147,0.02-0.29,0.072-0.427c0.084-0.226,0.219-0.448,0.404-0.667
			s0.454-0.471,0.805-0.758c0.545-0.447,0.913-0.801,1.104-1.063c0.191-0.26,0.287-0.507,0.287-0.739
			c0-0.243-0.087-0.45-0.262-0.616c-0.174-0.168-0.401-0.252-0.682-0.252c-0.296,0-0.533,0.089-0.711,0.267
			s-0.268,0.424-0.271,0.738l-0.632-0.065c0.044-0.471,0.206-0.83,0.489-1.078c0.282-0.247,0.662-0.371,1.138-0.371
			c0.481,0,0.861,0.134,1.142,0.4s0.42,0.598,0.42,0.991c0,0.2-0.041,0.397-0.123,0.591c-0.082,0.194-0.218,0.398-0.408,0.612
			c-0.189,0.214-0.506,0.509-0.948,0.882c-0.369,0.311-0.606,0.52-0.711,0.631c-0.104,0.11-0.191,0.221-0.26,0.333H200.958z"/>
		<path d="M201.621,159.714l0.615-0.082c0.071,0.349,0.191,0.6,0.361,0.754s0.377,0.23,0.62,0.23c0.29,0,0.534-0.1,0.733-0.301
			s0.299-0.449,0.299-0.745c0-0.282-0.092-0.516-0.277-0.698c-0.184-0.184-0.419-0.275-0.703-0.275
			c-0.117,0-0.262,0.022-0.435,0.068l0.068-0.541c0.041,0.005,0.074,0.008,0.099,0.008c0.263,0,0.498-0.068,0.708-0.205
			s0.314-0.348,0.314-0.633c0-0.226-0.076-0.412-0.229-0.561c-0.152-0.148-0.35-0.223-0.591-0.223c-0.239,0-0.438,0.076-0.599,0.227
			c-0.159,0.15-0.262,0.375-0.307,0.676l-0.615-0.109c0.074-0.412,0.246-0.731,0.512-0.959c0.268-0.227,0.599-0.34,0.995-0.34
			c0.273,0,0.525,0.059,0.755,0.176c0.23,0.118,0.406,0.278,0.529,0.48c0.121,0.203,0.182,0.418,0.182,0.646
			c0,0.217-0.058,0.414-0.174,0.592s-0.288,0.318-0.516,0.424c0.296,0.068,0.525,0.209,0.689,0.426
			c0.164,0.215,0.246,0.484,0.246,0.808c0,0.438-0.159,0.808-0.479,1.112c-0.318,0.305-0.722,0.457-1.209,0.457
			c-0.44,0-0.805-0.131-1.096-0.394S201.662,160.131,201.621,159.714z"/>
	</g>
	<g>
		<path d="M191.037,160.445v0.591h-3.312c-0.005-0.147,0.02-0.29,0.071-0.427c0.085-0.226,0.22-0.448,0.405-0.667
			c0.187-0.219,0.454-0.471,0.806-0.758c0.544-0.447,0.912-0.801,1.104-1.063c0.191-0.26,0.287-0.507,0.287-0.739
			c0-0.243-0.087-0.45-0.262-0.616c-0.174-0.168-0.401-0.252-0.682-0.252c-0.297,0-0.533,0.089-0.711,0.267s-0.268,0.424-0.27,0.738
			l-0.633-0.065c0.043-0.471,0.206-0.83,0.488-1.078c0.283-0.247,0.662-0.371,1.139-0.371c0.48,0,0.861,0.134,1.142,0.4
			s0.421,0.598,0.421,0.991c0,0.2-0.041,0.397-0.123,0.591c-0.082,0.194-0.219,0.398-0.409,0.612s-0.507,0.509-0.948,0.882
			c-0.369,0.311-0.605,0.52-0.711,0.631c-0.105,0.11-0.191,0.221-0.26,0.333H191.037z"/>
		<path d="M193.669,161.036v-1.199h-2.174v-0.564l2.286-3.246h0.503v3.246h0.676v0.564h-0.676v1.199H193.669z M193.669,159.272
			v-2.259l-1.569,2.259H193.669z"/>
	</g>
	<g>
		<path d="M181.117,160.445v0.591h-3.313c-0.004-0.147,0.02-0.29,0.072-0.427c0.084-0.226,0.219-0.448,0.404-0.667
			s0.454-0.471,0.805-0.758c0.545-0.447,0.913-0.801,1.104-1.063c0.191-0.26,0.287-0.507,0.287-0.739
			c0-0.243-0.087-0.45-0.262-0.616c-0.174-0.168-0.401-0.252-0.682-0.252c-0.296,0-0.533,0.089-0.711,0.267
			s-0.268,0.424-0.271,0.738l-0.632-0.065c0.044-0.471,0.206-0.83,0.489-1.078c0.282-0.247,0.662-0.371,1.138-0.371
			c0.481,0,0.861,0.134,1.142,0.4s0.42,0.598,0.42,0.991c0,0.2-0.041,0.397-0.123,0.591c-0.082,0.194-0.218,0.398-0.408,0.612
			c-0.189,0.214-0.506,0.509-0.948,0.882c-0.369,0.311-0.606,0.52-0.711,0.631c-0.104,0.11-0.191,0.221-0.26,0.333H181.117z"/>
		<path d="M181.776,159.724l0.646-0.055c0.049,0.314,0.16,0.551,0.334,0.709c0.174,0.159,0.385,0.238,0.631,0.238
			c0.296,0,0.547-0.111,0.752-0.335s0.307-0.52,0.307-0.889c0-0.351-0.098-0.628-0.295-0.831c-0.197-0.202-0.455-0.304-0.774-0.304
			c-0.198,0-0.377,0.045-0.536,0.136c-0.16,0.09-0.285,0.206-0.377,0.35l-0.577-0.075l0.485-2.573h2.492v0.588h-2l-0.27,1.346
			c0.301-0.209,0.615-0.314,0.946-0.314c0.438,0,0.807,0.152,1.107,0.455s0.451,0.693,0.451,1.169c0,0.454-0.132,0.845-0.396,1.176
			c-0.321,0.405-0.76,0.608-1.315,0.608c-0.456,0-0.828-0.127-1.117-0.383C181.982,160.483,181.817,160.146,181.776,159.724z"/>
	</g>
	<g>
		<path d="M171.197,160.445v0.591h-3.313c-0.004-0.147,0.02-0.29,0.072-0.427c0.084-0.226,0.219-0.448,0.404-0.667
			s0.454-0.471,0.805-0.758c0.545-0.447,0.913-0.801,1.104-1.063c0.191-0.26,0.287-0.507,0.287-0.739
			c0-0.243-0.087-0.45-0.262-0.616c-0.174-0.168-0.401-0.252-0.682-0.252c-0.296,0-0.533,0.089-0.711,0.267
			s-0.268,0.424-0.271,0.738L168,157.454c0.044-0.471,0.206-0.83,0.489-1.078c0.282-0.247,0.662-0.371,1.138-0.371
			c0.481,0,0.861,0.134,1.142,0.4s0.42,0.598,0.42,0.991c0,0.2-0.041,0.397-0.123,0.591c-0.082,0.194-0.218,0.398-0.408,0.612
			c-0.189,0.214-0.506,0.509-0.948,0.882c-0.369,0.311-0.606,0.52-0.711,0.631c-0.104,0.11-0.191,0.221-0.26,0.333H171.197z"/>
		<path d="M175.048,157.253l-0.611,0.048c-0.055-0.241-0.133-0.417-0.232-0.526c-0.167-0.176-0.372-0.264-0.615-0.264
			c-0.196,0-0.369,0.055-0.517,0.164c-0.194,0.142-0.347,0.348-0.458,0.619s-0.17,0.657-0.174,1.158
			c0.147-0.225,0.328-0.393,0.543-0.502s0.438-0.164,0.674-0.164c0.41,0,0.759,0.15,1.047,0.453c0.289,0.302,0.433,0.691,0.433,1.17
			c0,0.314-0.067,0.607-0.204,0.877c-0.135,0.27-0.321,0.477-0.559,0.621c-0.236,0.143-0.506,0.215-0.807,0.215
			c-0.512,0-0.93-0.188-1.254-0.566c-0.324-0.377-0.485-0.998-0.485-1.863c0-0.969,0.179-1.673,0.536-2.113
			c0.313-0.383,0.732-0.574,1.262-0.574c0.395,0,0.717,0.111,0.969,0.332S174.998,156.863,175.048,157.253z M172.537,159.413
			c0,0.212,0.045,0.414,0.135,0.608s0.216,0.341,0.377,0.442c0.162,0.102,0.332,0.152,0.51,0.152c0.26,0,0.482-0.105,0.67-0.314
			s0.28-0.494,0.28-0.854c0-0.347-0.093-0.619-0.276-0.819c-0.186-0.199-0.418-0.299-0.697-0.299c-0.278,0-0.514,0.1-0.708,0.299
			C172.632,158.828,172.537,159.089,172.537,159.413z"/>
	</g>
	<g>
		<path d="M161.275,160.445v0.591h-3.313c-0.004-0.147,0.02-0.29,0.072-0.427c0.084-0.226,0.219-0.448,0.404-0.667
			s0.454-0.471,0.805-0.758c0.545-0.447,0.913-0.801,1.104-1.063c0.191-0.26,0.287-0.507,0.287-0.739
			c0-0.243-0.087-0.45-0.262-0.616c-0.174-0.168-0.401-0.252-0.682-0.252c-0.296,0-0.533,0.089-0.711,0.267
			s-0.268,0.424-0.271,0.738l-0.632-0.065c0.044-0.471,0.206-0.83,0.489-1.078c0.282-0.247,0.662-0.371,1.138-0.371
			c0.481,0,0.861,0.134,1.142,0.4s0.42,0.598,0.42,0.991c0,0.2-0.041,0.397-0.123,0.591c-0.082,0.194-0.218,0.398-0.408,0.612
			c-0.189,0.214-0.506,0.509-0.948,0.882c-0.369,0.311-0.606,0.52-0.711,0.631c-0.104,0.11-0.191,0.221-0.26,0.333H161.275z"/>
		<path d="M161.975,156.683v-0.592h3.243v0.479c-0.318,0.34-0.635,0.791-0.947,1.354c-0.314,0.563-0.557,1.142-0.727,1.736
			c-0.123,0.42-0.202,0.879-0.236,1.377h-0.633c0.008-0.394,0.085-0.87,0.232-1.428c0.148-0.559,0.361-1.098,0.639-1.615
			c0.275-0.519,0.57-0.955,0.883-1.311H161.975z"/>
	</g>
	<g>
		<path d="M151.353,160.445v0.591h-3.313c-0.004-0.147,0.02-0.29,0.072-0.427c0.084-0.226,0.219-0.448,0.404-0.667
			s0.454-0.471,0.805-0.758c0.545-0.447,0.913-0.801,1.104-1.063c0.191-0.26,0.287-0.507,0.287-0.739
			c0-0.243-0.087-0.45-0.262-0.616c-0.174-0.168-0.401-0.252-0.682-0.252c-0.296,0-0.533,0.089-0.711,0.267
			s-0.268,0.424-0.271,0.738l-0.632-0.065c0.044-0.471,0.206-0.83,0.489-1.078c0.282-0.247,0.662-0.371,1.138-0.371
			c0.481,0,0.861,0.134,1.142,0.4s0.42,0.598,0.42,0.991c0,0.2-0.041,0.397-0.123,0.591c-0.082,0.194-0.218,0.398-0.408,0.612
			c-0.189,0.214-0.506,0.509-0.948,0.882c-0.369,0.311-0.606,0.52-0.711,0.631c-0.104,0.11-0.191,0.221-0.26,0.333H151.353z"/>
		<path d="M152.958,158.319c-0.255-0.094-0.443-0.227-0.566-0.4c-0.123-0.173-0.186-0.38-0.186-0.621
			c0-0.365,0.131-0.672,0.394-0.92s0.61-0.373,1.046-0.373c0.438,0,0.789,0.127,1.057,0.381c0.266,0.255,0.399,0.564,0.399,0.929
			c0,0.232-0.062,0.435-0.183,0.606c-0.122,0.172-0.307,0.305-0.556,0.398c0.308,0.1,0.542,0.262,0.702,0.485s0.241,0.489,0.241,0.8
			c0,0.428-0.151,0.789-0.454,1.08c-0.304,0.291-0.702,0.438-1.197,0.438c-0.494,0-0.893-0.146-1.195-0.439
			c-0.304-0.293-0.455-0.658-0.455-1.096c0-0.325,0.082-0.598,0.248-0.818C152.418,158.549,152.654,158.399,152.958,158.319z
			 M152.638,159.591c0,0.176,0.041,0.346,0.125,0.51c0.082,0.164,0.206,0.291,0.37,0.381s0.341,0.135,0.53,0.135
			c0.293,0,0.536-0.095,0.728-0.283c0.191-0.189,0.287-0.43,0.287-0.722c0-0.296-0.099-0.541-0.296-0.735
			c-0.197-0.193-0.443-0.29-0.74-0.29c-0.289,0-0.529,0.096-0.719,0.287C152.733,159.064,152.638,159.304,152.638,159.591z
			 M152.835,157.276c0,0.237,0.076,0.432,0.229,0.582s0.351,0.225,0.595,0.225c0.236,0,0.432-0.074,0.582-0.223
			c0.152-0.15,0.229-0.333,0.229-0.549c0-0.227-0.078-0.416-0.234-0.57c-0.156-0.152-0.351-0.23-0.583-0.23
			c-0.235,0-0.43,0.076-0.585,0.227C152.914,156.888,152.835,157.067,152.835,157.276z"/>
	</g>
	<g>
		<path d="M141.431,160.445v0.591h-3.312c-0.004-0.147,0.02-0.29,0.072-0.427c0.084-0.226,0.219-0.448,0.405-0.667
			c0.186-0.219,0.454-0.471,0.805-0.758c0.544-0.447,0.913-0.801,1.104-1.063c0.191-0.26,0.287-0.507,0.287-0.739
			c0-0.243-0.087-0.45-0.262-0.616c-0.174-0.168-0.401-0.252-0.682-0.252c-0.296,0-0.533,0.089-0.711,0.267s-0.268,0.424-0.27,0.738
			l-0.632-0.065c0.043-0.471,0.206-0.83,0.489-1.078c0.283-0.247,0.662-0.371,1.138-0.371c0.481,0,0.861,0.134,1.142,0.4
			s0.421,0.598,0.421,0.991c0,0.2-0.041,0.397-0.124,0.591c-0.082,0.194-0.218,0.398-0.409,0.612
			c-0.19,0.214-0.506,0.509-0.948,0.882c-0.369,0.311-0.606,0.52-0.711,0.631c-0.105,0.11-0.191,0.221-0.26,0.333H141.431z"/>
		<path d="M142.183,159.878l0.592-0.055c0.051,0.277,0.146,0.479,0.287,0.605c0.141,0.125,0.322,0.188,0.543,0.188
			c0.189,0,0.355-0.043,0.498-0.13s0.259-0.202,0.35-0.347c0.092-0.145,0.168-0.34,0.229-0.586s0.093-0.497,0.093-0.752
			c0-0.027-0.002-0.068-0.004-0.123c-0.123,0.195-0.291,0.354-0.504,0.477c-0.213,0.121-0.443,0.183-0.692,0.183
			c-0.415,0-0.766-0.15-1.053-0.451s-0.431-0.697-0.431-1.189c0-0.509,0.15-0.917,0.449-1.228c0.3-0.31,0.676-0.465,1.127-0.465
			c0.325,0,0.623,0.088,0.893,0.264c0.271,0.176,0.477,0.426,0.615,0.75c0.141,0.324,0.211,0.795,0.211,1.41
			c0,0.641-0.069,1.15-0.209,1.529c-0.139,0.379-0.346,0.668-0.619,0.867c-0.275,0.197-0.598,0.297-0.967,0.297
			c-0.392,0-0.711-0.109-0.96-0.326C142.382,160.578,142.234,160.272,142.183,159.878z M144.703,157.667
			c0-0.354-0.094-0.634-0.281-0.842c-0.189-0.207-0.415-0.311-0.68-0.311c-0.273,0-0.512,0.111-0.714,0.335
			s-0.304,0.513-0.304,0.868c0,0.318,0.096,0.578,0.289,0.777c0.191,0.199,0.43,0.299,0.712,0.299c0.284,0,0.519-0.1,0.702-0.299
			S144.703,158.02,144.703,157.667z"/>
	</g>
	<g>
		<path d="M128.28,159.714l0.615-0.082c0.071,0.349,0.191,0.6,0.36,0.754c0.17,0.154,0.377,0.23,0.621,0.23
			c0.29,0,0.534-0.1,0.733-0.301c0.2-0.201,0.299-0.449,0.299-0.745c0-0.282-0.092-0.516-0.277-0.698
			c-0.185-0.184-0.419-0.275-0.704-0.275c-0.116,0-0.261,0.022-0.434,0.068l0.068-0.541c0.041,0.005,0.074,0.008,0.099,0.008
			c0.262,0,0.498-0.068,0.708-0.205s0.314-0.348,0.314-0.633c0-0.226-0.076-0.412-0.229-0.561s-0.35-0.223-0.591-0.223
			c-0.239,0-0.438,0.076-0.598,0.227s-0.262,0.375-0.308,0.676l-0.615-0.109c0.075-0.412,0.246-0.731,0.513-0.959
			c0.267-0.227,0.598-0.34,0.995-0.34c0.273,0,0.525,0.059,0.755,0.176c0.23,0.118,0.406,0.278,0.528,0.48
			c0.122,0.203,0.183,0.418,0.183,0.646c0,0.217-0.058,0.414-0.174,0.592s-0.288,0.318-0.516,0.424
			c0.296,0.068,0.526,0.209,0.69,0.426c0.164,0.215,0.246,0.484,0.246,0.808c0,0.438-0.16,0.808-0.479,1.112
			s-0.722,0.457-1.21,0.457c-0.44,0-0.805-0.131-1.096-0.394C128.487,160.47,128.321,160.131,128.28,159.714z"/>
		<path d="M132.169,158.565c0-0.592,0.061-1.069,0.183-1.43c0.122-0.361,0.303-0.641,0.543-0.836
			c0.241-0.196,0.543-0.295,0.908-0.295c0.269,0,0.505,0.055,0.708,0.162c0.203,0.109,0.37,0.266,0.502,0.469
			c0.132,0.204,0.236,0.453,0.311,0.746c0.075,0.292,0.113,0.688,0.113,1.184c0,0.588-0.061,1.063-0.181,1.424
			s-0.301,0.641-0.542,0.838c-0.24,0.196-0.544,0.295-0.911,0.295c-0.483,0-0.862-0.174-1.138-0.52
			C132.334,160.186,132.169,159.507,132.169,158.565z M132.802,158.565c0,0.822,0.096,1.37,0.289,1.643
			c0.192,0.271,0.43,0.408,0.712,0.408s0.52-0.137,0.712-0.41c0.193-0.273,0.289-0.82,0.289-1.641c0-0.824-0.096-1.373-0.289-1.645
			c-0.192-0.271-0.432-0.406-0.719-0.406c-0.283,0-0.508,0.119-0.677,0.359C132.908,157.179,132.802,157.743,132.802,158.565z"/>
	</g>
	<g>
		<path d="M118.359,159.714l0.615-0.082c0.071,0.349,0.191,0.6,0.36,0.754c0.17,0.154,0.377,0.23,0.621,0.23
			c0.29,0,0.534-0.1,0.733-0.301c0.2-0.201,0.299-0.449,0.299-0.745c0-0.282-0.092-0.516-0.277-0.698
			c-0.185-0.184-0.419-0.275-0.704-0.275c-0.116,0-0.261,0.022-0.434,0.068l0.068-0.541c0.041,0.005,0.074,0.008,0.099,0.008
			c0.262,0,0.498-0.068,0.708-0.205s0.314-0.348,0.314-0.633c0-0.226-0.076-0.412-0.229-0.561s-0.35-0.223-0.591-0.223
			c-0.239,0-0.438,0.076-0.598,0.227s-0.262,0.375-0.308,0.676l-0.615-0.109c0.075-0.412,0.246-0.731,0.513-0.959
			c0.267-0.227,0.598-0.34,0.995-0.34c0.273,0,0.525,0.059,0.755,0.176c0.23,0.118,0.406,0.278,0.528,0.48
			c0.122,0.203,0.183,0.418,0.183,0.646c0,0.217-0.058,0.414-0.174,0.592s-0.288,0.318-0.516,0.424
			c0.296,0.068,0.526,0.209,0.69,0.426c0.164,0.215,0.246,0.484,0.246,0.808c0,0.438-0.16,0.808-0.479,1.112
			s-0.722,0.457-1.21,0.457c-0.44,0-0.805-0.131-1.096-0.394C118.566,160.47,118.4,160.131,118.359,159.714z"/>
		<path d="M124.566,161.036h-0.615v-3.92c-0.148,0.141-0.342,0.283-0.583,0.424c-0.241,0.141-0.457,0.247-0.648,0.318v-0.596
			c0.344-0.161,0.645-0.357,0.902-0.588c0.257-0.229,0.44-0.453,0.547-0.67h0.396V161.036z"/>
	</g>
	<g>
		<path d="M108.438,159.715l0.615-0.082c0.071,0.349,0.191,0.601,0.36,0.753c0.17,0.154,0.377,0.231,0.621,0.231
			c0.29,0,0.534-0.101,0.733-0.301c0.2-0.2,0.299-0.448,0.299-0.745c0-0.283-0.092-0.516-0.277-0.699s-0.419-0.275-0.704-0.275
			c-0.116,0-0.261,0.023-0.434,0.068l0.068-0.539c0.041,0.004,0.074,0.006,0.099,0.006c0.262,0,0.498-0.068,0.708-0.205
			s0.314-0.348,0.314-0.632c0-0.226-0.076-0.413-0.229-0.561s-0.35-0.222-0.591-0.222c-0.239,0-0.438,0.074-0.598,0.225
			s-0.262,0.377-0.308,0.678l-0.615-0.109c0.075-0.413,0.246-0.732,0.513-0.959s0.598-0.34,0.995-0.34
			c0.273,0,0.525,0.059,0.755,0.176s0.406,0.277,0.528,0.48c0.122,0.202,0.183,0.418,0.183,0.646c0,0.216-0.058,0.413-0.174,0.591
			s-0.288,0.319-0.516,0.424c0.296,0.068,0.526,0.211,0.69,0.426s0.246,0.484,0.246,0.809c0,0.438-0.16,0.809-0.479,1.113
			c-0.319,0.303-0.722,0.455-1.21,0.455c-0.44,0-0.805-0.131-1.096-0.393C108.645,160.472,108.479,160.132,108.438,159.715z"/>
		<path d="M115.561,160.446v0.592h-3.312c-0.004-0.148,0.02-0.291,0.072-0.428c0.084-0.226,0.219-0.447,0.405-0.666
			c0.186-0.219,0.454-0.473,0.805-0.76c0.544-0.446,0.913-0.8,1.104-1.061c0.191-0.262,0.287-0.508,0.287-0.74
			c0-0.244-0.087-0.449-0.262-0.617c-0.174-0.168-0.401-0.251-0.682-0.251c-0.296,0-0.533,0.089-0.711,0.267
			s-0.268,0.424-0.27,0.738l-0.632-0.064c0.043-0.473,0.206-0.832,0.489-1.078c0.283-0.248,0.662-0.371,1.138-0.371
			c0.481,0,0.861,0.133,1.142,0.399s0.42,0.597,0.42,0.991c0,0.201-0.041,0.397-0.123,0.592c-0.082,0.193-0.218,0.396-0.409,0.611
			c-0.19,0.215-0.506,0.508-0.948,0.882c-0.369,0.31-0.606,0.521-0.711,0.63c-0.105,0.111-0.191,0.223-0.26,0.334H115.561z"/>
	</g>
</g>
</svg>
